<mxfile host="app.diagrams.net" modified="2023-02-21T22:28:19.052Z" agent="5.0 (Windows NT 10.0; Win64; x64) AppleWebKit/537.36 (KHTML, like Gecko) Chrome/109.0.0.0 Safari/537.36 OPR/95.0.0.0" etag="c7s2hC7u3V87E3dXR97L" version="20.8.20" type="github">
  <diagram name="Seite-1" id="EqdNMKlvbmxBvKPHWaoe">
    <mxGraphModel dx="23547" dy="16629" grid="1" gridSize="10" guides="1" tooltips="1" connect="1" arrows="1" fold="1" page="1" pageScale="1" pageWidth="827" pageHeight="1169" math="0" shadow="0">
      <root>
        <mxCell id="0" />
        <mxCell id="1" parent="0" />
        <mxCell id="tDVTQqPS8ryEu18_ABAF-174" value="" style="rounded=0;whiteSpace=wrap;html=1;" parent="1" vertex="1">
          <mxGeometry x="1690" y="3120" width="2360" height="1900" as="geometry" />
        </mxCell>
        <mxCell id="tDVTQqPS8ryEu18_ABAF-173" value="" style="rounded=0;whiteSpace=wrap;html=1;" parent="1" vertex="1">
          <mxGeometry x="1666" y="1160" width="2360" height="1900" as="geometry" />
        </mxCell>
        <mxCell id="tDVTQqPS8ryEu18_ABAF-172" value="" style="rounded=0;whiteSpace=wrap;html=1;" parent="1" vertex="1">
          <mxGeometry x="1654" y="-785" width="2360" height="1900" as="geometry" />
        </mxCell>
        <mxCell id="tDVTQqPS8ryEu18_ABAF-166" value="technologisches Wissen, Kapitalbestand, Arbeitsangebot" style="rounded=1;whiteSpace=wrap;html=1;" parent="1" vertex="1">
          <mxGeometry x="1710" y="1250" width="310" height="120" as="geometry" />
        </mxCell>
        <mxCell id="tDVTQqPS8ryEu18_ABAF-168" value="tBildungssystem, Sparraten, Rolle der Regierung" style="rounded=1;whiteSpace=wrap;html=1;" parent="1" vertex="1">
          <mxGeometry x="1720" y="3200" width="310" height="120" as="geometry" />
        </mxCell>
        <mxCell id="tDVTQqPS8ryEu18_ABAF-165" value="rückgang Nachfrage -&amp;gt;&amp;nbsp;&lt;br&gt;rückgnang Produktion" style="rounded=1;whiteSpace=wrap;html=1;" parent="1" vertex="1">
          <mxGeometry x="1740" y="-660" width="310" height="120" as="geometry" />
        </mxCell>
        <mxCell id="tDVTQqPS8ryEu18_ABAF-1" value="VGR&lt;br&gt;Volkswirtschaftliche Gesamtrechnung" style="ellipse;whiteSpace=wrap;html=1;fillColor=#647687;fontColor=#ffffff;strokeColor=#314354;" parent="1" vertex="1">
          <mxGeometry x="420" width="120" height="80" as="geometry" />
        </mxCell>
        <mxCell id="tDVTQqPS8ryEu18_ABAF-3" value="" style="edgeStyle=orthogonalEdgeStyle;rounded=0;orthogonalLoop=1;jettySize=auto;html=1;" parent="1" source="tDVTQqPS8ryEu18_ABAF-2" target="tDVTQqPS8ryEu18_ABAF-1" edge="1">
          <mxGeometry relative="1" as="geometry" />
        </mxCell>
        <mxCell id="tDVTQqPS8ryEu18_ABAF-128" style="edgeStyle=orthogonalEdgeStyle;rounded=0;orthogonalLoop=1;jettySize=auto;html=1;entryX=0.5;entryY=0;entryDx=0;entryDy=0;endArrow=none;endFill=0;" parent="1" source="tDVTQqPS8ryEu18_ABAF-2" target="tDVTQqPS8ryEu18_ABAF-127" edge="1">
          <mxGeometry relative="1" as="geometry" />
        </mxCell>
        <mxCell id="tDVTQqPS8ryEu18_ABAF-129" style="edgeStyle=orthogonalEdgeStyle;rounded=0;orthogonalLoop=1;jettySize=auto;html=1;entryX=0.5;entryY=0;entryDx=0;entryDy=0;endArrow=none;endFill=0;" parent="1" source="tDVTQqPS8ryEu18_ABAF-2" target="tDVTQqPS8ryEu18_ABAF-126" edge="1">
          <mxGeometry relative="1" as="geometry">
            <Array as="points">
              <mxPoint x="80" y="60" />
              <mxPoint x="370" y="60" />
            </Array>
          </mxGeometry>
        </mxCell>
        <mxCell id="tDVTQqPS8ryEu18_ABAF-2" value="Wirschaftsanalyse" style="ellipse;whiteSpace=wrap;html=1;" parent="1" vertex="1">
          <mxGeometry x="20" y="-80" width="120" height="90" as="geometry" />
        </mxCell>
        <mxCell id="tDVTQqPS8ryEu18_ABAF-140" value="" style="edgeStyle=orthogonalEdgeStyle;rounded=0;orthogonalLoop=1;jettySize=auto;html=1;dashed=1;dashPattern=8 8;endArrow=none;endFill=0;startArrow=none;" parent="1" source="tDVTQqPS8ryEu18_ABAF-136" target="tDVTQqPS8ryEu18_ABAF-139" edge="1">
          <mxGeometry relative="1" as="geometry" />
        </mxCell>
        <mxCell id="tDVTQqPS8ryEu18_ABAF-4" value="Nominal&lt;br&gt;zu laufenden Preisen" style="rounded=0;whiteSpace=wrap;html=1;fillColor=#dae8fc;strokeColor=#6c8ebf;" parent="1" vertex="1">
          <mxGeometry x="580" y="-40" width="120" height="40" as="geometry" />
        </mxCell>
        <mxCell id="tDVTQqPS8ryEu18_ABAF-5" value="Real&lt;br&gt;zu konstanten Preisen" style="rounded=0;whiteSpace=wrap;html=1;fillColor=#dae8fc;strokeColor=#6c8ebf;" parent="1" vertex="1">
          <mxGeometry x="570" y="115" width="140" height="40" as="geometry" />
        </mxCell>
        <mxCell id="tDVTQqPS8ryEu18_ABAF-6" value="Niveau" style="rounded=0;whiteSpace=wrap;html=1;" parent="1" vertex="1">
          <mxGeometry x="80" y="-140" width="70" height="20" as="geometry" />
        </mxCell>
        <mxCell id="tDVTQqPS8ryEu18_ABAF-7" value="Wachstumsrate&lt;br&gt;prozentuale Änderung" style="rounded=0;whiteSpace=wrap;html=1;" parent="1" vertex="1">
          <mxGeometry x="160" y="-190" width="140" height="40" as="geometry" />
        </mxCell>
        <mxCell id="tDVTQqPS8ryEu18_ABAF-15" value="Niveau" style="rounded=0;whiteSpace=wrap;html=1;" parent="1" vertex="1">
          <mxGeometry x="230" y="-240" width="70" height="20" as="geometry" />
        </mxCell>
        <mxCell id="tDVTQqPS8ryEu18_ABAF-22" value="" style="endArrow=none;html=1;rounded=0;entryX=0;entryY=0.5;entryDx=0;entryDy=0;" parent="1" target="tDVTQqPS8ryEu18_ABAF-7" edge="1">
          <mxGeometry width="50" height="50" relative="1" as="geometry">
            <mxPoint x="120" y="-140" as="sourcePoint" />
            <mxPoint x="170" y="-190" as="targetPoint" />
          </mxGeometry>
        </mxCell>
        <mxCell id="tDVTQqPS8ryEu18_ABAF-24" value="" style="endArrow=none;html=1;rounded=0;entryX=0;entryY=0.5;entryDx=0;entryDy=0;" parent="1" edge="1">
          <mxGeometry width="50" height="50" relative="1" as="geometry">
            <mxPoint x="190" y="-190" as="sourcePoint" />
            <mxPoint x="230" y="-220" as="targetPoint" />
          </mxGeometry>
        </mxCell>
        <mxCell id="tDVTQqPS8ryEu18_ABAF-37" value="" style="edgeStyle=orthogonalEdgeStyle;rounded=0;orthogonalLoop=1;jettySize=auto;html=1;endArrow=none;endFill=0;" parent="1" source="tDVTQqPS8ryEu18_ABAF-25" target="tDVTQqPS8ryEu18_ABAF-27" edge="1">
          <mxGeometry relative="1" as="geometry" />
        </mxCell>
        <mxCell id="tDVTQqPS8ryEu18_ABAF-120" style="edgeStyle=orthogonalEdgeStyle;rounded=0;orthogonalLoop=1;jettySize=auto;html=1;entryX=0.5;entryY=1;entryDx=0;entryDy=0;endArrow=none;endFill=0;" parent="1" source="tDVTQqPS8ryEu18_ABAF-25" target="tDVTQqPS8ryEu18_ABAF-4" edge="1">
          <mxGeometry relative="1" as="geometry" />
        </mxCell>
        <mxCell id="tDVTQqPS8ryEu18_ABAF-123" style="edgeStyle=orthogonalEdgeStyle;rounded=0;orthogonalLoop=1;jettySize=auto;html=1;entryX=0.5;entryY=0;entryDx=0;entryDy=0;endArrow=none;endFill=0;" parent="1" source="tDVTQqPS8ryEu18_ABAF-25" target="tDVTQqPS8ryEu18_ABAF-5" edge="1">
          <mxGeometry relative="1" as="geometry" />
        </mxCell>
        <mxCell id="tDVTQqPS8ryEu18_ABAF-25" value="BIP&lt;br&gt;Bruttoinlandprodukt&lt;br&gt;-&amp;gt; Wirtschaftswachstum/&lt;br&gt;Konjukturschwankungen" style="rounded=0;whiteSpace=wrap;html=1;fillColor=#647687;strokeColor=#314354;fontColor=#ffffff;" parent="1" vertex="1">
          <mxGeometry x="765" y="42.5" width="140" height="65" as="geometry" />
        </mxCell>
        <mxCell id="tDVTQqPS8ryEu18_ABAF-38" value="" style="edgeStyle=orthogonalEdgeStyle;rounded=0;orthogonalLoop=1;jettySize=auto;html=1;endArrow=none;endFill=0;" parent="1" source="tDVTQqPS8ryEu18_ABAF-26" target="tDVTQqPS8ryEu18_ABAF-25" edge="1">
          <mxGeometry relative="1" as="geometry" />
        </mxCell>
        <mxCell id="tDVTQqPS8ryEu18_ABAF-26" value="Entstehungsseite" style="rounded=1;whiteSpace=wrap;html=1;fillColor=#dae8fc;strokeColor=#6c8ebf;" parent="1" vertex="1">
          <mxGeometry x="935" y="-10" width="120" height="40" as="geometry" />
        </mxCell>
        <mxCell id="tDVTQqPS8ryEu18_ABAF-27" value="Verwendung" style="rounded=1;whiteSpace=wrap;html=1;fillColor=#dae8fc;strokeColor=#6c8ebf;" parent="1" vertex="1">
          <mxGeometry x="935" y="55" width="120" height="40" as="geometry" />
        </mxCell>
        <mxCell id="tDVTQqPS8ryEu18_ABAF-39" value="" style="edgeStyle=orthogonalEdgeStyle;rounded=0;orthogonalLoop=1;jettySize=auto;html=1;endArrow=none;endFill=0;" parent="1" source="tDVTQqPS8ryEu18_ABAF-28" target="tDVTQqPS8ryEu18_ABAF-25" edge="1">
          <mxGeometry relative="1" as="geometry" />
        </mxCell>
        <mxCell id="tDVTQqPS8ryEu18_ABAF-28" value="Verteilung" style="rounded=1;whiteSpace=wrap;html=1;fillColor=#dae8fc;strokeColor=#6c8ebf;" parent="1" vertex="1">
          <mxGeometry x="935" y="120" width="120" height="40" as="geometry" />
        </mxCell>
        <mxCell id="tDVTQqPS8ryEu18_ABAF-41" style="edgeStyle=orthogonalEdgeStyle;rounded=0;orthogonalLoop=1;jettySize=auto;html=1;entryX=1;entryY=0.5;entryDx=0;entryDy=0;endArrow=none;endFill=0;" parent="1" source="tDVTQqPS8ryEu18_ABAF-34" target="tDVTQqPS8ryEu18_ABAF-26" edge="1">
          <mxGeometry relative="1" as="geometry" />
        </mxCell>
        <mxCell id="tDVTQqPS8ryEu18_ABAF-62" style="edgeStyle=orthogonalEdgeStyle;rounded=0;orthogonalLoop=1;jettySize=auto;html=1;entryX=1.015;entryY=0.461;entryDx=0;entryDy=0;entryPerimeter=0;endArrow=none;endFill=0;" parent="1" source="tDVTQqPS8ryEu18_ABAF-34" target="tDVTQqPS8ryEu18_ABAF-44" edge="1">
          <mxGeometry relative="1" as="geometry">
            <Array as="points">
              <mxPoint x="1150" y="-40" />
              <mxPoint x="1215" y="-40" />
              <mxPoint x="1215" y="-110" />
              <mxPoint x="1498" y="-110" />
            </Array>
          </mxGeometry>
        </mxCell>
        <mxCell id="tDVTQqPS8ryEu18_ABAF-34" value="&lt;span style=&quot;color: rgb(0, 0, 0); font-family: Helvetica; font-size: 12px; font-style: normal; font-variant-ligatures: normal; font-variant-caps: normal; font-weight: 400; letter-spacing: normal; orphans: 2; text-align: center; text-indent: 0px; text-transform: none; widows: 2; word-spacing: 0px; -webkit-text-stroke-width: 0px; background-color: rgb(251, 251, 251); text-decoration-thickness: initial; text-decoration-style: initial; text-decoration-color: initial; float: none; display: inline !important;&quot;&gt;Produktion&lt;/span&gt;&lt;br style=&quot;border-color: var(--border-color); color: rgb(0, 0, 0); font-family: Helvetica; font-size: 12px; font-style: normal; font-variant-ligatures: normal; font-variant-caps: normal; font-weight: 400; letter-spacing: normal; orphans: 2; text-align: center; text-indent: 0px; text-transform: none; widows: 2; word-spacing: 0px; -webkit-text-stroke-width: 0px; background-color: rgb(251, 251, 251); text-decoration-thickness: initial; text-decoration-style: initial; text-decoration-color: initial;&quot;&gt;&lt;span style=&quot;color: rgb(0, 0, 0); font-family: Helvetica; font-size: 12px; font-style: normal; font-variant-ligatures: normal; font-variant-caps: normal; font-weight: 400; letter-spacing: normal; orphans: 2; text-align: center; text-indent: 0px; text-transform: none; widows: 2; word-spacing: 0px; -webkit-text-stroke-width: 0px; background-color: rgb(251, 251, 251); text-decoration-thickness: initial; text-decoration-style: initial; text-decoration-color: initial; float: none; display: inline !important;&quot;&gt;Wertschöpfung &lt;br&gt;Waren/ Dienstleistungen Endverbrauch/ Zeitraum/ Endprodukt und Zwischenprodukt&lt;/span&gt;" style="rounded=0;whiteSpace=wrap;html=1;" parent="1" vertex="1">
          <mxGeometry x="1075" y="-120" width="150" height="90" as="geometry" />
        </mxCell>
        <mxCell id="tDVTQqPS8ryEu18_ABAF-42" value="" style="edgeStyle=orthogonalEdgeStyle;rounded=0;orthogonalLoop=1;jettySize=auto;html=1;endArrow=none;endFill=0;" parent="1" source="tDVTQqPS8ryEu18_ABAF-35" target="tDVTQqPS8ryEu18_ABAF-27" edge="1">
          <mxGeometry relative="1" as="geometry" />
        </mxCell>
        <mxCell id="tDVTQqPS8ryEu18_ABAF-61" style="edgeStyle=orthogonalEdgeStyle;rounded=0;orthogonalLoop=1;jettySize=auto;html=1;entryX=0.5;entryY=1;entryDx=0;entryDy=0;endArrow=none;endFill=0;" parent="1" source="tDVTQqPS8ryEu18_ABAF-35" target="tDVTQqPS8ryEu18_ABAF-44" edge="1">
          <mxGeometry relative="1" as="geometry" />
        </mxCell>
        <mxCell id="tDVTQqPS8ryEu18_ABAF-35" value="gesamtwirtschaftliche Nachfrage" style="rounded=0;whiteSpace=wrap;html=1;" parent="1" vertex="1">
          <mxGeometry x="1075" y="55" width="150" height="60" as="geometry" />
        </mxCell>
        <mxCell id="tDVTQqPS8ryEu18_ABAF-43" value="" style="edgeStyle=orthogonalEdgeStyle;rounded=0;orthogonalLoop=1;jettySize=auto;html=1;endArrow=none;endFill=0;" parent="1" source="tDVTQqPS8ryEu18_ABAF-36" target="tDVTQqPS8ryEu18_ABAF-28" edge="1">
          <mxGeometry relative="1" as="geometry" />
        </mxCell>
        <mxCell id="tDVTQqPS8ryEu18_ABAF-60" style="edgeStyle=orthogonalEdgeStyle;rounded=0;orthogonalLoop=1;jettySize=auto;html=1;entryX=0.5;entryY=0;entryDx=0;entryDy=0;endArrow=none;endFill=0;" parent="1" source="tDVTQqPS8ryEu18_ABAF-36" target="tDVTQqPS8ryEu18_ABAF-44" edge="1">
          <mxGeometry relative="1" as="geometry">
            <Array as="points">
              <mxPoint x="1245" y="300" />
              <mxPoint x="1245" y="-47" />
              <mxPoint x="1375" y="-47" />
            </Array>
          </mxGeometry>
        </mxCell>
        <mxCell id="tDVTQqPS8ryEu18_ABAF-36" value="Löhne/ Einkommen&lt;br&gt;Einnahmen Produktion - Abschreibungen - indirekte Steuer&lt;br&gt;Arbeits und Kapitaleinkommen (unternehmen + Haushalt)" style="rounded=0;whiteSpace=wrap;html=1;" parent="1" vertex="1">
          <mxGeometry x="920" y="180" width="150" height="110" as="geometry" />
        </mxCell>
        <mxCell id="tDVTQqPS8ryEu18_ABAF-44" value="" style="swimlane;startSize=0;" parent="1" vertex="1">
          <mxGeometry x="1255" y="-27.5" width="239" height="225" as="geometry" />
        </mxCell>
        <mxCell id="tDVTQqPS8ryEu18_ABAF-50" value="Ausgabe/Nachfrage" style="edgeStyle=orthogonalEdgeStyle;rounded=0;orthogonalLoop=1;jettySize=auto;html=1;entryX=0.5;entryY=1;entryDx=0;entryDy=0;endArrow=none;endFill=0;" parent="tDVTQqPS8ryEu18_ABAF-44" source="tDVTQqPS8ryEu18_ABAF-45" target="tDVTQqPS8ryEu18_ABAF-46" edge="1">
          <mxGeometry relative="1" as="geometry">
            <Array as="points">
              <mxPoint x="45" y="184" />
              <mxPoint x="190" y="184" />
              <mxPoint x="190" y="124" />
            </Array>
          </mxGeometry>
        </mxCell>
        <mxCell id="tDVTQqPS8ryEu18_ABAF-58" value="Güter" style="edgeStyle=orthogonalEdgeStyle;rounded=0;orthogonalLoop=1;jettySize=auto;html=1;entryX=0;entryY=0.5;entryDx=0;entryDy=0;endArrow=none;endFill=0;" parent="tDVTQqPS8ryEu18_ABAF-44" source="tDVTQqPS8ryEu18_ABAF-45" target="tDVTQqPS8ryEu18_ABAF-46" edge="1">
          <mxGeometry relative="1" as="geometry">
            <Array as="points">
              <mxPoint x="150" y="118" />
            </Array>
          </mxGeometry>
        </mxCell>
        <mxCell id="tDVTQqPS8ryEu18_ABAF-59" value="Arbeit" style="edgeStyle=orthogonalEdgeStyle;rounded=0;orthogonalLoop=1;jettySize=auto;html=1;entryX=0;entryY=0.25;entryDx=0;entryDy=0;endArrow=none;endFill=0;" parent="tDVTQqPS8ryEu18_ABAF-44" source="tDVTQqPS8ryEu18_ABAF-45" target="tDVTQqPS8ryEu18_ABAF-46" edge="1">
          <mxGeometry relative="1" as="geometry">
            <Array as="points">
              <mxPoint x="100" y="98" />
              <mxPoint x="100" y="98" />
            </Array>
          </mxGeometry>
        </mxCell>
        <mxCell id="tDVTQqPS8ryEu18_ABAF-45" value="Haushalt &lt;br&gt;H" style="rounded=0;whiteSpace=wrap;html=1;" parent="tDVTQqPS8ryEu18_ABAF-44" vertex="1">
          <mxGeometry x="10" y="89" width="70" height="35" as="geometry" />
        </mxCell>
        <mxCell id="tDVTQqPS8ryEu18_ABAF-49" value="Einkommen" style="edgeStyle=orthogonalEdgeStyle;rounded=0;orthogonalLoop=1;jettySize=auto;html=1;entryX=0.5;entryY=0;entryDx=0;entryDy=0;endArrow=none;endFill=0;" parent="tDVTQqPS8ryEu18_ABAF-44" source="tDVTQqPS8ryEu18_ABAF-46" target="tDVTQqPS8ryEu18_ABAF-45" edge="1">
          <mxGeometry relative="1" as="geometry">
            <Array as="points">
              <mxPoint x="195" y="34" />
              <mxPoint x="45" y="34" />
            </Array>
          </mxGeometry>
        </mxCell>
        <mxCell id="tDVTQqPS8ryEu18_ABAF-46" value="Unternehmen U" style="rounded=0;whiteSpace=wrap;html=1;" parent="tDVTQqPS8ryEu18_ABAF-44" vertex="1">
          <mxGeometry x="150" y="89" width="80" height="35" as="geometry" />
        </mxCell>
        <mxCell id="tDVTQqPS8ryEu18_ABAF-63" value="Mehrwert&lt;br&gt;im produktionsprozess zusätzlich/&lt;br&gt;&amp;nbsp;leistungen - vorleistungen" style="rounded=0;whiteSpace=wrap;html=1;" parent="1" vertex="1">
          <mxGeometry x="925" y="-120" width="150" height="90" as="geometry" />
        </mxCell>
        <mxCell id="tDVTQqPS8ryEu18_ABAF-99" style="edgeStyle=orthogonalEdgeStyle;rounded=0;orthogonalLoop=1;jettySize=auto;html=1;entryX=0.5;entryY=0;entryDx=0;entryDy=0;endArrow=none;endFill=0;" parent="1" source="tDVTQqPS8ryEu18_ABAF-64" target="tDVTQqPS8ryEu18_ABAF-25" edge="1">
          <mxGeometry relative="1" as="geometry" />
        </mxCell>
        <mxCell id="tDVTQqPS8ryEu18_ABAF-64" value="geschlossene Marktwirtschaft" style="rounded=0;whiteSpace=wrap;html=1;fillColor=#f8cecc;strokeColor=#b85450;" parent="1" vertex="1">
          <mxGeometry x="490" y="-167.5" width="120" height="60" as="geometry" />
        </mxCell>
        <mxCell id="tDVTQqPS8ryEu18_ABAF-67" value="" style="edgeStyle=orthogonalEdgeStyle;rounded=0;orthogonalLoop=1;jettySize=auto;html=1;endArrow=none;endFill=0;" parent="1" target="tDVTQqPS8ryEu18_ABAF-64" edge="1">
          <mxGeometry relative="1" as="geometry">
            <mxPoint x="550" y="-330" as="sourcePoint" />
          </mxGeometry>
        </mxCell>
        <mxCell id="tDVTQqPS8ryEu18_ABAF-87" style="edgeStyle=orthogonalEdgeStyle;rounded=0;orthogonalLoop=1;jettySize=auto;html=1;entryX=0;entryY=0.5;entryDx=0;entryDy=0;endArrow=none;endFill=0;" parent="1" source="tDVTQqPS8ryEu18_ABAF-65" target="tDVTQqPS8ryEu18_ABAF-73" edge="1">
          <mxGeometry relative="1" as="geometry">
            <Array as="points">
              <mxPoint x="550" y="-360" />
            </Array>
          </mxGeometry>
        </mxCell>
        <mxCell id="tDVTQqPS8ryEu18_ABAF-88" style="edgeStyle=orthogonalEdgeStyle;rounded=0;orthogonalLoop=1;jettySize=auto;html=1;entryX=0.5;entryY=1;entryDx=0;entryDy=0;endArrow=none;endFill=0;" parent="1" source="tDVTQqPS8ryEu18_ABAF-65" target="tDVTQqPS8ryEu18_ABAF-72" edge="1">
          <mxGeometry relative="1" as="geometry" />
        </mxCell>
        <mxCell id="tDVTQqPS8ryEu18_ABAF-65" value="Investitionen + Konsum &lt;br&gt;= Einkommen (U+H)" style="rounded=0;whiteSpace=wrap;html=1;" parent="1" vertex="1">
          <mxGeometry x="490" y="-280" width="120" height="60" as="geometry" />
        </mxCell>
        <mxCell id="tDVTQqPS8ryEu18_ABAF-83" value="" style="edgeStyle=orthogonalEdgeStyle;rounded=0;orthogonalLoop=1;jettySize=auto;html=1;endArrow=none;endFill=0;entryX=1;entryY=0.5;entryDx=0;entryDy=0;" parent="1" source="tDVTQqPS8ryEu18_ABAF-68" target="tDVTQqPS8ryEu18_ABAF-70" edge="1">
          <mxGeometry relative="1" as="geometry">
            <Array as="points">
              <mxPoint x="780" y="-300" />
              <mxPoint x="780" y="-310" />
            </Array>
          </mxGeometry>
        </mxCell>
        <mxCell id="tDVTQqPS8ryEu18_ABAF-68" value="IM&lt;br&gt;Importe" style="rounded=0;whiteSpace=wrap;html=1;" parent="1" vertex="1">
          <mxGeometry x="800" y="-320" width="120" height="40" as="geometry" />
        </mxCell>
        <mxCell id="tDVTQqPS8ryEu18_ABAF-80" style="edgeStyle=orthogonalEdgeStyle;rounded=0;orthogonalLoop=1;jettySize=auto;html=1;endArrow=none;endFill=0;" parent="1" source="tDVTQqPS8ryEu18_ABAF-69" target="tDVTQqPS8ryEu18_ABAF-70" edge="1">
          <mxGeometry relative="1" as="geometry" />
        </mxCell>
        <mxCell id="tDVTQqPS8ryEu18_ABAF-69" value="X&amp;nbsp;&lt;br&gt;Exporte" style="rounded=0;whiteSpace=wrap;html=1;" parent="1" vertex="1">
          <mxGeometry x="800" y="-360" width="120" height="40" as="geometry" />
        </mxCell>
        <mxCell id="tDVTQqPS8ryEu18_ABAF-70" value="X- IM&amp;nbsp;&lt;br&gt;Nettoexporte" style="rounded=0;whiteSpace=wrap;html=1;" parent="1" vertex="1">
          <mxGeometry x="650" y="-330" width="120" height="40" as="geometry" />
        </mxCell>
        <mxCell id="tDVTQqPS8ryEu18_ABAF-71" value="G&lt;br&gt;Staatsausgaben" style="rounded=0;whiteSpace=wrap;html=1;" parent="1" vertex="1">
          <mxGeometry x="650" y="-280" width="120" height="40" as="geometry" />
        </mxCell>
        <mxCell id="tDVTQqPS8ryEu18_ABAF-72" value="I&amp;nbsp;&lt;br&gt;Bruttoinvestitionen" style="rounded=0;whiteSpace=wrap;html=1;" parent="1" vertex="1">
          <mxGeometry x="650" y="-230" width="120" height="40" as="geometry" />
        </mxCell>
        <mxCell id="tDVTQqPS8ryEu18_ABAF-73" value="C&amp;nbsp;&lt;br&gt;Konsum" style="rounded=0;whiteSpace=wrap;html=1;" parent="1" vertex="1">
          <mxGeometry x="650" y="-380" width="120" height="40" as="geometry" />
        </mxCell>
        <mxCell id="tDVTQqPS8ryEu18_ABAF-85" value="" style="edgeStyle=orthogonalEdgeStyle;rounded=0;orthogonalLoop=1;jettySize=auto;html=1;endArrow=none;endFill=0;" parent="1" source="tDVTQqPS8ryEu18_ABAF-76" target="tDVTQqPS8ryEu18_ABAF-69" edge="1">
          <mxGeometry relative="1" as="geometry" />
        </mxCell>
        <mxCell id="tDVTQqPS8ryEu18_ABAF-76" value="X&amp;gt;IM&lt;br&gt;Handelsbilanzüberschuss" style="rounded=0;whiteSpace=wrap;html=1;" parent="1" vertex="1">
          <mxGeometry x="945" y="-380" width="160" height="60" as="geometry" />
        </mxCell>
        <mxCell id="tDVTQqPS8ryEu18_ABAF-84" value="" style="edgeStyle=orthogonalEdgeStyle;rounded=0;orthogonalLoop=1;jettySize=auto;html=1;endArrow=none;endFill=0;" parent="1" source="tDVTQqPS8ryEu18_ABAF-77" target="tDVTQqPS8ryEu18_ABAF-69" edge="1">
          <mxGeometry relative="1" as="geometry" />
        </mxCell>
        <mxCell id="tDVTQqPS8ryEu18_ABAF-77" value="X&amp;lt;IM&lt;br&gt;Handelsbilanzdefizit" style="rounded=0;whiteSpace=wrap;html=1;" parent="1" vertex="1">
          <mxGeometry x="945" y="-320" width="160" height="60" as="geometry" />
        </mxCell>
        <mxCell id="tDVTQqPS8ryEu18_ABAF-90" value="" style="edgeStyle=orthogonalEdgeStyle;rounded=0;orthogonalLoop=1;jettySize=auto;html=1;endArrow=none;endFill=0;" parent="1" source="tDVTQqPS8ryEu18_ABAF-86" target="tDVTQqPS8ryEu18_ABAF-89" edge="1">
          <mxGeometry relative="1" as="geometry" />
        </mxCell>
        <mxCell id="tDVTQqPS8ryEu18_ABAF-86" value="offene&lt;br&gt;&amp;nbsp;Marktwirtschaft" style="rounded=0;whiteSpace=wrap;html=1;fillColor=#d5e8d4;strokeColor=#82b366;" parent="1" vertex="1">
          <mxGeometry x="490" y="340" width="120" height="60" as="geometry" />
        </mxCell>
        <mxCell id="tDVTQqPS8ryEu18_ABAF-94" value="BIP + SALDO&lt;br&gt;Primär und Sekundäreinkommen" style="edgeStyle=orthogonalEdgeStyle;rounded=0;orthogonalLoop=1;jettySize=auto;html=1;entryX=0.5;entryY=0;entryDx=0;entryDy=0;endArrow=none;endFill=0;" parent="1" source="tDVTQqPS8ryEu18_ABAF-89" target="tDVTQqPS8ryEu18_ABAF-93" edge="1">
          <mxGeometry relative="1" as="geometry" />
        </mxCell>
        <mxCell id="tDVTQqPS8ryEu18_ABAF-89" value="inländische (Investitionen + Konsum) bzw. Produktion&lt;br&gt;!= Einkommen (U+H) inländer" style="rounded=0;whiteSpace=wrap;html=1;" parent="1" vertex="1">
          <mxGeometry x="475" y="210" width="150" height="70" as="geometry" />
        </mxCell>
        <mxCell id="tDVTQqPS8ryEu18_ABAF-101" value="besser ohne Abschreibung,&lt;br&gt;&amp;nbsp;da diese nicht zur Verfügung stehen" style="edgeStyle=orthogonalEdgeStyle;rounded=0;orthogonalLoop=1;jettySize=auto;html=1;endArrow=none;endFill=0;" parent="1" source="tDVTQqPS8ryEu18_ABAF-93" target="tDVTQqPS8ryEu18_ABAF-100" edge="1">
          <mxGeometry relative="1" as="geometry" />
        </mxCell>
        <mxCell id="tDVTQqPS8ryEu18_ABAF-93" value="BNE&lt;br&gt;Einkommen aller Inländer(+ausland-ausländer)" style="rounded=0;whiteSpace=wrap;html=1;fillColor=#dae8fc;strokeColor=#6c8ebf;" parent="1" vertex="1">
          <mxGeometry x="660" y="490" width="120" height="60" as="geometry" />
        </mxCell>
        <mxCell id="tDVTQqPS8ryEu18_ABAF-112" value="- indirekte Steuern/ + Subvetionen&amp;nbsp;" style="edgeStyle=orthogonalEdgeStyle;rounded=0;orthogonalLoop=1;jettySize=auto;html=1;endArrow=none;endFill=0;" parent="1" source="tDVTQqPS8ryEu18_ABAF-100" target="tDVTQqPS8ryEu18_ABAF-111" edge="1">
          <mxGeometry relative="1" as="geometry" />
        </mxCell>
        <mxCell id="tDVTQqPS8ryEu18_ABAF-100" value="NNE" style="whiteSpace=wrap;html=1;rounded=0;fillColor=#dae8fc;strokeColor=#6c8ebf;" parent="1" vertex="1">
          <mxGeometry x="660" y="630" width="120" height="60" as="geometry" />
        </mxCell>
        <mxCell id="tDVTQqPS8ryEu18_ABAF-105" value="kurze Frist" style="ellipse;whiteSpace=wrap;html=1;fillColor=#ffff88;strokeColor=#36393d;" parent="1" vertex="1">
          <mxGeometry x="1690" y="-735" width="120" height="120" as="geometry" />
        </mxCell>
        <mxCell id="tDVTQqPS8ryEu18_ABAF-107" value="mittlere Frist" style="ellipse;whiteSpace=wrap;html=1;fillColor=#ffff88;strokeColor=#36393d;" parent="1" vertex="1">
          <mxGeometry x="1680" y="1200" width="120" height="80" as="geometry" />
        </mxCell>
        <mxCell id="tDVTQqPS8ryEu18_ABAF-108" value="lange Frist" style="ellipse;whiteSpace=wrap;html=1;fillColor=#ffff88;strokeColor=#36393d;" parent="1" vertex="1">
          <mxGeometry x="1702" y="3150" width="120" height="80" as="geometry" />
        </mxCell>
        <mxCell id="tDVTQqPS8ryEu18_ABAF-115" value="- direkte Steuern/ -Sozialbeiträge/ + Transfereinkommen" style="edgeStyle=orthogonalEdgeStyle;rounded=0;orthogonalLoop=1;jettySize=auto;html=1;endArrow=none;endFill=0;" parent="1" source="tDVTQqPS8ryEu18_ABAF-111" target="tDVTQqPS8ryEu18_ABAF-114" edge="1">
          <mxGeometry relative="1" as="geometry" />
        </mxCell>
        <mxCell id="tDVTQqPS8ryEu18_ABAF-111" value="Volkseinkommen" style="whiteSpace=wrap;html=1;rounded=0;" parent="1" vertex="1">
          <mxGeometry x="661" y="770" width="120" height="60" as="geometry" />
        </mxCell>
        <mxCell id="tDVTQqPS8ryEu18_ABAF-114" value="verfügbares Volkseinkommen&lt;br&gt;-&amp;gt; für Konsumanalyse" style="whiteSpace=wrap;html=1;rounded=0;" parent="1" vertex="1">
          <mxGeometry x="661" y="910" width="120" height="60" as="geometry" />
        </mxCell>
        <mxCell id="tDVTQqPS8ryEu18_ABAF-117" value="nicht geeeignett" style="edgeStyle=orthogonalEdgeStyle;rounded=0;orthogonalLoop=1;jettySize=auto;html=1;entryX=1;entryY=0.5;entryDx=0;entryDy=0;endArrow=none;endFill=0;" parent="1" source="tDVTQqPS8ryEu18_ABAF-116" target="tDVTQqPS8ryEu18_ABAF-114" edge="1">
          <mxGeometry relative="1" as="geometry">
            <Array as="points">
              <mxPoint x="1020" y="940" />
            </Array>
          </mxGeometry>
        </mxCell>
        <mxCell id="tDVTQqPS8ryEu18_ABAF-118" value="gut geeignet" style="edgeStyle=orthogonalEdgeStyle;rounded=0;orthogonalLoop=1;jettySize=auto;html=1;entryX=1;entryY=0.5;entryDx=0;entryDy=0;endArrow=none;endFill=0;" parent="1" source="tDVTQqPS8ryEu18_ABAF-116" target="tDVTQqPS8ryEu18_ABAF-100" edge="1">
          <mxGeometry relative="1" as="geometry" />
        </mxCell>
        <mxCell id="tDVTQqPS8ryEu18_ABAF-119" value="niciht geeignet wegen Schwarzmarkt,&lt;br&gt;&amp;nbsp;öffentliche Güter" style="edgeStyle=orthogonalEdgeStyle;rounded=0;orthogonalLoop=1;jettySize=auto;html=1;entryX=0.75;entryY=1;entryDx=0;entryDy=0;endArrow=none;endFill=0;" parent="1" source="tDVTQqPS8ryEu18_ABAF-116" target="tDVTQqPS8ryEu18_ABAF-25" edge="1">
          <mxGeometry relative="1" as="geometry">
            <Array as="points">
              <mxPoint x="1060" y="380" />
              <mxPoint x="880" y="380" />
              <mxPoint x="880" y="108" />
            </Array>
          </mxGeometry>
        </mxCell>
        <mxCell id="tDVTQqPS8ryEu18_ABAF-116" value="Lebesstandard" style="rounded=0;whiteSpace=wrap;html=1;fillColor=#dae8fc;strokeColor=#6c8ebf;" parent="1" vertex="1">
          <mxGeometry x="950" y="560" width="120" height="60" as="geometry" />
        </mxCell>
        <mxCell id="tDVTQqPS8ryEu18_ABAF-124" value="Zunahme weil Produktion steigt&lt;br&gt;Zunahme weil Preise steigen" style="rounded=1;whiteSpace=wrap;html=1;" parent="1" vertex="1">
          <mxGeometry x="555" y="-80" width="170" height="40" as="geometry" />
        </mxCell>
        <mxCell id="tDVTQqPS8ryEu18_ABAF-125" value="Zunahme weil Produktion steigt" style="rounded=1;whiteSpace=wrap;html=1;" parent="1" vertex="1">
          <mxGeometry x="555" y="155" width="175" height="35" as="geometry" />
        </mxCell>
        <mxCell id="tDVTQqPS8ryEu18_ABAF-164" style="edgeStyle=orthogonalEdgeStyle;rounded=0;orthogonalLoop=1;jettySize=auto;html=1;entryX=1;entryY=0.5;entryDx=0;entryDy=0;endArrow=none;endFill=0;" parent="1" source="tDVTQqPS8ryEu18_ABAF-126" target="tDVTQqPS8ryEu18_ABAF-159" edge="1">
          <mxGeometry relative="1" as="geometry">
            <Array as="points">
              <mxPoint x="260" y="225" />
              <mxPoint x="260" y="225" />
            </Array>
          </mxGeometry>
        </mxCell>
        <mxCell id="tDVTQqPS8ryEu18_ABAF-126" value="Inflation" style="rounded=0;whiteSpace=wrap;html=1;fillColor=#647687;strokeColor=#314354;fontColor=#ffffff;" parent="1" vertex="1">
          <mxGeometry x="300" y="180" width="140" height="65" as="geometry" />
        </mxCell>
        <mxCell id="tDVTQqPS8ryEu18_ABAF-131" value="pi = P(t)+P(t-1)/P(t-1)" style="edgeStyle=orthogonalEdgeStyle;rounded=0;orthogonalLoop=1;jettySize=auto;html=1;endArrow=none;endFill=0;" parent="1" source="tDVTQqPS8ryEu18_ABAF-130" target="tDVTQqPS8ryEu18_ABAF-126" edge="1">
          <mxGeometry relative="1" as="geometry" />
        </mxCell>
        <mxCell id="tDVTQqPS8ryEu18_ABAF-133" value="" style="edgeStyle=orthogonalEdgeStyle;rounded=0;orthogonalLoop=1;jettySize=auto;html=1;endArrow=none;endFill=0;" parent="1" source="tDVTQqPS8ryEu18_ABAF-130" target="tDVTQqPS8ryEu18_ABAF-132" edge="1">
          <mxGeometry relative="1" as="geometry" />
        </mxCell>
        <mxCell id="tDVTQqPS8ryEu18_ABAF-135" style="edgeStyle=orthogonalEdgeStyle;rounded=0;orthogonalLoop=1;jettySize=auto;html=1;entryX=0.5;entryY=0;entryDx=0;entryDy=0;endArrow=none;endFill=0;" parent="1" source="tDVTQqPS8ryEu18_ABAF-130" target="tDVTQqPS8ryEu18_ABAF-134" edge="1">
          <mxGeometry relative="1" as="geometry" />
        </mxCell>
        <mxCell id="tDVTQqPS8ryEu18_ABAF-130" value="Inflationsrate&lt;br&gt;-&amp;gt; Rate Steigung Preisniveau" style="rounded=0;whiteSpace=wrap;html=1;fillColor=#647687;strokeColor=#314354;fontColor=#ffffff;" parent="1" vertex="1">
          <mxGeometry x="310" y="360" width="120" height="60" as="geometry" />
        </mxCell>
        <mxCell id="tDVTQqPS8ryEu18_ABAF-147" value="" style="edgeStyle=orthogonalEdgeStyle;rounded=0;orthogonalLoop=1;jettySize=auto;html=1;endArrow=none;endFill=0;" parent="1" source="tDVTQqPS8ryEu18_ABAF-134" target="tDVTQqPS8ryEu18_ABAF-146" edge="1">
          <mxGeometry relative="1" as="geometry" />
        </mxCell>
        <mxCell id="tDVTQqPS8ryEu18_ABAF-134" value="Verbraucherpreisindex&lt;br&gt;CPI" style="rounded=0;whiteSpace=wrap;html=1;fillColor=#dae8fc;strokeColor=#6c8ebf;" parent="1" vertex="1">
          <mxGeometry x="20" y="410" width="130" height="60" as="geometry" />
        </mxCell>
        <mxCell id="tDVTQqPS8ryEu18_ABAF-143" value="" style="edgeStyle=orthogonalEdgeStyle;rounded=0;orthogonalLoop=1;jettySize=auto;html=1;endArrow=none;endFill=0;" parent="1" source="tDVTQqPS8ryEu18_ABAF-136" target="tDVTQqPS8ryEu18_ABAF-142" edge="1">
          <mxGeometry relative="1" as="geometry" />
        </mxCell>
        <mxCell id="tDVTQqPS8ryEu18_ABAF-137" value="" style="endArrow=none;html=1;rounded=0;exitX=1;exitY=0.5;exitDx=0;exitDy=0;dashed=1;dashPattern=8 8;startArrow=none;" parent="1" source="tDVTQqPS8ryEu18_ABAF-139" edge="1">
          <mxGeometry width="50" height="50" relative="1" as="geometry">
            <mxPoint x="480" y="390" as="sourcePoint" />
            <mxPoint x="640" y="70" as="targetPoint" />
          </mxGeometry>
        </mxCell>
        <mxCell id="tDVTQqPS8ryEu18_ABAF-141" value="" style="endArrow=none;html=1;rounded=0;exitX=1;exitY=0.5;exitDx=0;exitDy=0;dashed=1;dashPattern=8 8;" parent="1" source="tDVTQqPS8ryEu18_ABAF-136" target="tDVTQqPS8ryEu18_ABAF-139" edge="1">
          <mxGeometry width="50" height="50" relative="1" as="geometry">
            <mxPoint x="340" y="550" as="sourcePoint" />
            <mxPoint x="640" y="70" as="targetPoint" />
          </mxGeometry>
        </mxCell>
        <mxCell id="tDVTQqPS8ryEu18_ABAF-139" value="nominale Wachstumsrate =&amp;nbsp;&lt;br&gt;reale Wachstumsrate + Inflationsrate(BIP deflatorrate)" style="whiteSpace=wrap;html=1;fillColor=#dae8fc;strokeColor=#6c8ebf;rounded=0;" parent="1" vertex="1">
          <mxGeometry x="520" y="430" width="120" height="60" as="geometry" />
        </mxCell>
        <mxCell id="tDVTQqPS8ryEu18_ABAF-142" value="Problem:&lt;br&gt;1 nicht alles konsumiert&lt;br&gt;2 importe" style="whiteSpace=wrap;html=1;rounded=1;" parent="1" vertex="1">
          <mxGeometry x="290" y="610" width="160" height="60" as="geometry" />
        </mxCell>
        <mxCell id="tDVTQqPS8ryEu18_ABAF-144" value="" style="edgeStyle=orthogonalEdgeStyle;rounded=0;orthogonalLoop=1;jettySize=auto;html=1;dashed=1;dashPattern=8 8;endArrow=none;endFill=0;strokeColor=none;startArrow=none;" parent="1" source="tDVTQqPS8ryEu18_ABAF-132" target="tDVTQqPS8ryEu18_ABAF-136" edge="1">
          <mxGeometry relative="1" as="geometry">
            <mxPoint x="580" y="-20" as="sourcePoint" />
            <mxPoint x="410" y="585.0000000000005" as="targetPoint" />
          </mxGeometry>
        </mxCell>
        <mxCell id="tDVTQqPS8ryEu18_ABAF-136" value="P(t) = nominales BIP/ realesBIP&lt;br&gt;Basisjahr = 100&lt;br&gt;Durschnittspreis der Produktion&lt;br&gt;aller Endgüter" style="rounded=1;whiteSpace=wrap;html=1;" parent="1" vertex="1">
          <mxGeometry x="280" y="520" width="180" height="60" as="geometry" />
        </mxCell>
        <mxCell id="tDVTQqPS8ryEu18_ABAF-145" value="" style="edgeStyle=orthogonalEdgeStyle;rounded=0;orthogonalLoop=1;jettySize=auto;html=1;dashed=1;dashPattern=8 8;endArrow=none;endFill=0;strokeColor=none;" parent="1" source="tDVTQqPS8ryEu18_ABAF-4" target="tDVTQqPS8ryEu18_ABAF-132" edge="1">
          <mxGeometry relative="1" as="geometry">
            <mxPoint x="580" y="-20" as="sourcePoint" />
            <mxPoint x="370" y="520" as="targetPoint" />
          </mxGeometry>
        </mxCell>
        <mxCell id="tDVTQqPS8ryEu18_ABAF-132" value="BIP Deflator" style="whiteSpace=wrap;html=1;rounded=0;fillColor=#dae8fc;strokeColor=#6c8ebf;" parent="1" vertex="1">
          <mxGeometry x="310" y="460" width="120" height="60" as="geometry" />
        </mxCell>
        <mxCell id="tDVTQqPS8ryEu18_ABAF-146" value="Durschnittspreis der konsumgüter" style="whiteSpace=wrap;html=1;rounded=0;" parent="1" vertex="1">
          <mxGeometry x="17.5" y="550" width="135" height="60" as="geometry" />
        </mxCell>
        <mxCell id="tDVTQqPS8ryEu18_ABAF-148" value="hedonischer Preisindex&lt;br&gt;Qualitätssteigerung" style="rounded=0;whiteSpace=wrap;html=1;" parent="1" vertex="1">
          <mxGeometry x="100" y="640" width="170" height="40" as="geometry" />
        </mxCell>
        <mxCell id="tDVTQqPS8ryEu18_ABAF-149" value="Erwerbspersonen L =&amp;nbsp;&lt;br&gt;Erwerbstätige N + Erwerbslose U" style="rounded=0;whiteSpace=wrap;html=1;" parent="1" vertex="1">
          <mxGeometry x="-340" y="135" width="150" height="60" as="geometry" />
        </mxCell>
        <mxCell id="tDVTQqPS8ryEu18_ABAF-150" value="Erwerbslosenquote&lt;br&gt;u = U/L" style="rounded=1;whiteSpace=wrap;html=1;" parent="1" vertex="1">
          <mxGeometry x="-325" y="195" width="120" height="45" as="geometry" />
        </mxCell>
        <mxCell id="tDVTQqPS8ryEu18_ABAF-152" style="edgeStyle=orthogonalEdgeStyle;rounded=0;orthogonalLoop=1;jettySize=auto;html=1;entryX=0;entryY=0.5;entryDx=0;entryDy=0;endArrow=none;endFill=0;dashed=1;dashPattern=8 8;startArrow=none;" parent="1" source="tDVTQqPS8ryEu18_ABAF-127" target="tDVTQqPS8ryEu18_ABAF-25" edge="1">
          <mxGeometry relative="1" as="geometry" />
        </mxCell>
        <mxCell id="tDVTQqPS8ryEu18_ABAF-153" style="edgeStyle=orthogonalEdgeStyle;rounded=0;orthogonalLoop=1;jettySize=auto;html=1;endArrow=none;endFill=0;" parent="1" source="tDVTQqPS8ryEu18_ABAF-151" edge="1">
          <mxGeometry relative="1" as="geometry">
            <mxPoint x="-260" y="240" as="targetPoint" />
            <Array as="points">
              <mxPoint x="-390" y="260" />
              <mxPoint x="-260" y="260" />
              <mxPoint x="-260" y="240" />
            </Array>
          </mxGeometry>
        </mxCell>
        <mxCell id="tDVTQqPS8ryEu18_ABAF-151" value="Gesetz von Onkun" style="rounded=0;whiteSpace=wrap;html=1;fillColor=#dae8fc;strokeColor=#6c8ebf;" parent="1" vertex="1">
          <mxGeometry x="-450" y="65" width="120" height="60" as="geometry" />
        </mxCell>
        <mxCell id="tDVTQqPS8ryEu18_ABAF-157" value="hohes Wachstum -&amp;gt; rückgang erwerbslosenquote&lt;br&gt;niedriges wachstum -&amp;gt;&lt;br&gt;steiegerung erwerbslosenquote" style="rounded=1;whiteSpace=wrap;html=1;" parent="1" vertex="1">
          <mxGeometry x="-480" y="-40" width="200" height="105" as="geometry" />
        </mxCell>
        <mxCell id="tDVTQqPS8ryEu18_ABAF-158" value="erwerbslosenquote hoch -&amp;gt; niedrige Inflation&lt;br&gt;erwerbslosenquote niedrig -&amp;gt; hohe inflation" style="rounded=1;whiteSpace=wrap;html=1;" parent="1" vertex="1">
          <mxGeometry x="-40" y="255" width="270" height="75" as="geometry" />
        </mxCell>
        <mxCell id="tDVTQqPS8ryEu18_ABAF-159" value="Philipskurve" style="rounded=0;whiteSpace=wrap;html=1;fillColor=#dae8fc;strokeColor=#6c8ebf;" parent="1" vertex="1">
          <mxGeometry x="50" y="195" width="120" height="60" as="geometry" />
        </mxCell>
        <mxCell id="tDVTQqPS8ryEu18_ABAF-160" value="" style="edgeStyle=orthogonalEdgeStyle;rounded=0;orthogonalLoop=1;jettySize=auto;html=1;entryX=0;entryY=0.5;entryDx=0;entryDy=0;endArrow=none;endFill=0;dashed=1;dashPattern=8 8;" parent="1" source="tDVTQqPS8ryEu18_ABAF-151" target="tDVTQqPS8ryEu18_ABAF-127" edge="1">
          <mxGeometry relative="1" as="geometry">
            <mxPoint x="-330" y="95.07692307692287" as="sourcePoint" />
            <mxPoint x="765" y="75" as="targetPoint" />
          </mxGeometry>
        </mxCell>
        <mxCell id="tDVTQqPS8ryEu18_ABAF-163" style="edgeStyle=orthogonalEdgeStyle;rounded=0;orthogonalLoop=1;jettySize=auto;html=1;entryX=0;entryY=0.75;entryDx=0;entryDy=0;endArrow=none;endFill=0;" parent="1" source="tDVTQqPS8ryEu18_ABAF-127" target="tDVTQqPS8ryEu18_ABAF-159" edge="1">
          <mxGeometry relative="1" as="geometry">
            <Array as="points">
              <mxPoint x="-70" y="220" />
              <mxPoint x="50" y="220" />
            </Array>
          </mxGeometry>
        </mxCell>
        <mxCell id="tDVTQqPS8ryEu18_ABAF-127" value="Arbeitslosigkeit" style="rounded=0;whiteSpace=wrap;html=1;fillColor=#647687;strokeColor=#314354;fontColor=#ffffff;" parent="1" vertex="1">
          <mxGeometry x="-140" y="62.5" width="140" height="65" as="geometry" />
        </mxCell>
        <mxCell id="tDVTQqPS8ryEu18_ABAF-175" value="" style="shape=image;verticalLabelPosition=bottom;labelBackgroundColor=default;verticalAlign=top;aspect=fixed;imageAspect=0;image=data:image/png,iVBORw0KGgoAAAANSUhEUgAAAggAAAGMCAYAAAC/NVowAAAAAXNSR0IArs4c6QAAIABJREFUeF7snQdYVNf29t8zhd67gCjYULEhoqKgoiJ2UbFgrIkl5qb8k5tyb5KbL7kpN900Y2ISNfYee8eCXWyIolJUiiK9T5/zPfsYC9F7EZgZpqzzPDwmcM7ea/3Wnpl39l57bY7neR50EQEiQASIABEgAkTgEQIcCQQaD0SACBABIkAEiMBfCZBAoDFBBIgAESACRIAIPEaABAINCiJABIgAESACRIAEAo0BIkAEiAARIAJEoG4CNINQNyO6gwgQASJABIiAxREggWBxISeHiQARIAJEgAjUTYAEQt2M6A4iQASIABEgAhZHgASCxYWcHCYCRIAIEAEiUDcBEgh1M6I7iAARIAJEgAhYHAESCBYXcnKYCBABIkAEiEDdBEgg1M2I7iACRIAIEAEiYHEESCBYXMjJYSJABIgAESACdRMggVA3I7qDCBABIkAEiIDFESCBYHEhJ4eJABEgAkSACNRNgARC3YzoDiJABIgAESACFkeABILFhZwcJgJEgAgQASJQNwESCHUzojuIABEgAkSACFgcARIIFhdycpgIEAEiQASIQN0ESCDUzYjuIAJEgAgQASJgcQRIIFhcyMlhIkAEiAARIAJ1E2iEQOCh1fLgeR4cx0EkEtXqTavVCn9j15P+XrdpdAcRIAL6JMBeo+zn0ev+a5X9SxcRIAKWTaDBAqHkbjY2bPgDGVk5CGgbgvj4sfB2cxRoMmGwZeVibDt4Fs6O9gjtPwwTRwyAVCK2bNrkPREwIgI7tm/HmlWrIJPJBKtEYjGaNWuGuc8/j/bt2wvCni4iQAQsl0CDBUJlWRHyi6vgbCfB6mVL0bbXUMT27w72lsIEwrY1S6GwD8KImJ6QiCWQSCXC3+giAkTAOAiUlJQgNycHarVaMKi8vBwbNmzAxEmTEBkZSQLBOMJEVhCBJiPQYIFw32KFvAbrlv0Cj+A+iO33UCBsWfUr7sgcMCi6F/x9fWFrY9VkTlLHRIAI1E2gqKgIC77+GjFDhpBAqBsX3UEEzJ5AowVC4e0sLP5lJSY+Ox+t/NwFYGwGIWnvVpy9cgvVFWVoF9oHY2L7QyqlJQazH1HkoMkSIIFgsqEjw4mAXgg0SiDwGjWWL/wCKs8umDEhFmLRw0UEjUYDrUaD9EunsWLrMbz+6t/g6myvFyeoUSJABBpPgARC4xlSC0TAnAg0WCBo1SokH9mNDftT8MZbr8LDyRY8r4VarYVUKgHPsqM5DnkZl7Bo5S783ysvwN3FwZzYkS9EwKwIkEAwq3CSM0Sg0QQaLBBuXbuAz776Eb0Hj0L7ID808/OHLafA5Yw76NUrFLdvZOBucRky0y6hWGWHmc+MhZ2NdaMNpgaIABHQDwESCPrhSq0SAVMl0ECBwCM99Rz2HzkDOzs7SK1tENKlG9TFN3AqsxJzpsfhespZpFzJhEhqg9Ae4QgMaAYRbZsy1XFCdlsAARIIFhBkcpEI1INAAwUCoFYpoVCqAFYLiQMkEjHOHT8Mlb0vosI7QaNWQalUQSSWwMpKSlum6hEUupUINAUBEghNQZ36JALGS6DBAuGvLrGdC3KZDJxEChsrqfF6TJYRASLwRAIkEGhgEAEi8CgBnQkEwkoEiIBpEyCBYNrxI+uJgK4JkEDQNVFqjwiYKAESCCYaODKbCOiJAAkEPYGlZomAqREggWBqESN7iYB+CZBA0C9fap0ImAwBEggmEyoylAgYhAAJBINgpk6IgPETIIFg/DEiC4mAIQmQQDAkbeqLCBgxARIIRhwcMo0INAEBEghNAJ26JALGSIAEgjFGhWwiAk1HgARC07GnnomAUREggWBU4SBjiECTEyCB0OQhIAOIgHEQIIFgHHEgK4iAsRAggWAskSA7iEATEyCB0MQBoO6JgJERIIFgZAEhc4hAUxEggdBU5KlfImCcBEggGGdcyCoiYHACJBAMjpw6JAJGTYAEglGHh4wjAoYjQALBcKypJyJgCgRIIJhClMhGImAAAiQQDACZuiACJkSABIIJBYtMJQL6JEACQZ90qW0iYHoESCCYXszIYiKgFwIkEPSClRolAiZLgASCyYaODCcCuiVAAkG3PKk1ImDqBEggmHoEyX4ioCMCJBB0BJKaIQJmQoAEgpkEktwgAo0lQAKhsQTpeSJgXgRIIOgznjwPbXUVNCVlELm5Q+xgJ/SmldVAW1oOkbMLRHa2AAdoa6qhLauAyMUVIjsb8FottOVl4OUqiNzcILKW6tNSapsIgAQCDQIiQAQeJUACQY/jQVNwG1U7dkKVkw+tWgrX//sbRGIlanbvhvLaTXCuzeA8KwGcVobqbVuhzMgB59kCzjPioc1JR8W6P8BrRLDq2gMOMVEQ2Vjp0Vpq2tIJkECw9BFA/hOB2gRIIOhxRPAKBTQyOURWEpR++gHEoSNh29oRNcfPw374UFSvXwFJ9yGw8dKicudxOD4Tj6olP8EqZiLUx7cBzTrDtrMfKjftg+PkCbDy89KjtdS0pRMggWDpI4D8JwIkEAw+BnitGuVffwJR8CBIHWuguFUKp0lxkO/biJqbHOyCHaDMlcE5YTSqt6yCSu4K/mYyrGMTYNvaDaU/LYPt0NGw69Ta4LZTh5ZDgASC5cSaPCUCT0OAZhCehlIj71HfuYmSL36C86uvQZN6EqoiDZwmj4Li2C5UHMyFXVc3aGrs4BQfC9m+zajJUMHKuhC8UxCsg31QsXQd7CdNg33Pjo20hB4nAv+dAAkEGh1EgAg8SoAEgp7HAy+vQuXatdBa+cA5fghkB/dCeVcJ58mjIU/ahqrjRbDr4gJ1hRWcJgyDbM8GyHKlcIxqherEE+DsbKBMuQaHqTNg162tnq2l5i2ZAAkES44++U4EHidAAkGfo0KjhuxkEmRnM+A4cRykXi6Qnz4G+dU8OE6Ig2z7GigV3rBrZQ3Z5btwnj4O1WuWgHcNgWNsOLQlxVAX3EHV7iQ4jBsH60BffVpLbVs4ARIIFj4AyH0i8BcCJBAaMCR4lQqaykrhSbGTEziJ5ImtqLMzULZ8HaTtu8A6uBXE7p5ATTGqdh6AtG1byI+dgH3CTEhtFKhYtwVWod0gP3gEjnPnQyxRQF1YCsX5ZGjkUjhPjoPY8d42SbqIgD4IkEDQB1VqkwiYLgESCPWJHc9DdecOqtZvguzYCfAaDWzCusNp2hRIfZsBHPdIazxUmddRuWETtJUKodaBdd/BcBgQBvn5M5AdPwdpSHc4RPcGtGrIk09Cdvw8rEJ7wT6qB5SXz6Fq50GIffxhNyj63g6GWu3Xx3C6lwjUTYAEQt2M6A4iYEkESCDUI9pamRxlPy1G9eatgFJ570mOg23sYLi+9DeIXZxrt8bzQsGjBxfHgROJAPZ7nhee5e5/6P/5O+H/Oe7e33n2rAic6FHhUQ+D6VYiUA8CJBDqAYtuJQIWQKDBAkGr1aC0uBil5RVw8/CGq7NjrS+49/5ehBqFBp5enrCxMv1KgKq8PBS+/Hdo8m7XGhpi32Zw/ccbsA0LtYAhQy6aKwESCOYaWfKLCDSMQIMFQmFeFrbtSoRcLoNWZIu48ePh5+XywIrcrGvYtecAZEoN2of2woCIUEjE4oZZaSRPKa6no/Cl18CXl9eySG5jjbvDY9F22jPw8qJiRkYSLjKjDgIZGRm4efMmtBqNcGdlZSV279qFqdOmITIq6uHsFpEkAkTAIgk0WCDIqitRWlENMTTYvGYlmnfpj2HR4WypHTyvxd7Nq1HKeaJLoAu2JZ7FnNnT4OJob9KQ1UXFKHj5NWiybtTyQ+nhhqROHXHLSoKpU6ciMCiI3lxNOtKWYTwTA5s2boRcLhccVqlUKC4uxtvvvosoEgiWMQjISyLwPwg0WCDcb1OpqMHGFUvhGBiG4X8KBK1ajl8WLEDnIfEIbemMj7/8ETOfn48W3u4mHQxerRaSDisWLwEvkwm+sB0M9uPjYDNjKvYeOIBdu3Zh5qxZCO3eHVKp6S+rmHTAyPj/SUA4EEyrBf/nXUwcfPvNNxgSG4vIyEgSuTR+iICFE2i0QGBLDb8tXY2x0+eijb+HgFMjr8RXn3+DIZNmomOAEz7+4EvEzX0eIQHeJo9bW1WF6v0HITt6jH3lgk3vXnAYNUI4lZG92V66dAnLli5Fl86dMXDQIDTz9YXYxJdWTD5o5MBTEaAchKfCRDcRAYsh0CiBoFJUY93SX6ByaY0p44dCKhbdEwiKKnz75QL0HzcdnZhA+PhrxM99Ae39Pc0DLNtxoFY/mEH46/ZD9ka7edMmVFZUIKJPH3Tp2hW2trbm4Tt5YbYESCCYbWjJMSLQIAINFghajQrH9m3DoQs5mD1nFnzcHIWteexbNAcNVv78I/xCB6FHKxd8/eMKPPf8XPh6PExibJC1JvRQTU0NTp08iTNnziAwMBAxQ4bA2fkv2yBNyB8y1fwJkEAw/xiTh0SgPgQaLBCyUk/jyx+Wo//Q4Wgd0Aw+vn6w0tbgzKWbGBjdB8mHduPM1Tz4udshrwJ4dmo87G2t62Obyd+rVquRfesWtm3fjorycsyYORP+/v60tmvykTVPB0ggmGdcySsi0FACDRQIPFLOJGHrzoNQqjSQ2NghKnownNRFOJpegb/Nioe8qgwH9+1FTlE1BsfGIqh5M4stBKhQKLB161Zs3bIFc+bORe/evSH5L+WZGxpIeo4INJYACYTGEqTniYB5EWigQHgcAq9V48i+3dA4+SO6d1fzoqQDb9jSS0pKCjZu2IB2wcEYNGiQUDNBxCor0kUEjIAACQQjCAKZQASMiIDuBALPo7qqEmKpNWxtLGsp4WnjyURCTk4O9uzeDTarwIrRhISE0GzC0wKk+/RKgASCXvFS40TA5AjoTCCYnOdNZDBL5CwrK8PJEyeQcvEiglq1QmxsLBydnJrIIuqWCNwjQAKBRgIRIAKPEiCB0ETjgc0gZGVlYeeOHVAplZiUkIAWLVpQAmMTxYO6JYFAY4AIEIHaBEggNOGIYLMJMplMqH9/5PBhTHnmGaECIxVWasKgWHDXNINgwcEn14nAEwiQQDCCYcG2QyYnJ2P92rVCXgKrwOjg4ECzCUYQG0sygQSCJUWbfCUCdRMggVA3I4PcwWYTbty4gQ3r1sHO3l7Y5dCqdWs6z8Eg9KkTykGgMUAEiMBfCZBAMLIxUV5Whr179yIzI0Mo0dw7IkKowMhx7JxMuoiA/gjQDIL+2FLLRMAUCZBAMMKosWN3L6emIikpCdbW1ogdOlSowEg1E4wwWGZkEgkEMwomuUIEdECABIIOIOqjCVYzobCwEHv37EFGejrGjR+PkE6dSCToAza1KRAggUADgQgQgUcJkEAw8vGgVCqRdOQI1q1ZgxGjRmHQ4MGwsbGhJQcjj5spmkcCwRSjRjYTAf0RIIGgP7Y6a5nNJrCaCSuXL4enpyeGxMYioEULSmDUGWFqiGYQaAwQASLwVwIkEExkTLBdDuXl5UKZZlauuXtYGHqGhws7HugiArogQDMIuqBIbRAB8yFAAsHEYskKK128cAHHjx+Hi4sL4saOhaurq4l5QeYaIwESCMYYFbKJCDQdARIITce+wT2zwkr5+fnYvXs3Ll28iLnz5qF9hw6Ul9BgovQgLTHQGCACRICWGMxkDLAlByYUzpw5g0U//oj4+HghN8HKyspMPCQ3DE2AZhAMTZz6IwLGTYBmEIw7PnVaJ1RgzMrC8uXL4evri6HDhgn/Us2EOtHRDX8hQAKBhgQRIAKPEiCBYAbjgYmEgoIC7NqxA8UlJejTty+6du0qbIekiwg8LQESCE9Liu4jApZBgASCGcW5uroap06exOlTp+Dn748hQ4bA08uLchPMKMb6dIUEgj7pUttEwPQIkEAwvZj9T4s1Gg2ys7NxYP9+FBUWCsWV2rdvT0dIm1mc9eEOCQR9UKU2iYDpEiCBYLqx+5+W19TU4Mjhw0g8cEBIXmTHSFMCo5kGW0dukUDQEUhqhgiYCQESCGYSyCe5wWYT2KFPq1atQnBwMMbExdHJkGYc78a6RgKhsQTpeSJgXgRIIJhXPB/zhiUw5t+5g/Xr14PlKMTGxgo1EyiB0cwD3wD3SCA0ABo9QgTMmAAJBDMO7qOusSUHdnz0hXPn0KZtW0T16wd3d3dKYLSQ+D+NmyQQnoYS3UMELIcACQTLiTXYkkN6ejoOHTwIhUKBkaNGITAwkESCBY2B/+UqCQQaCESACDxKgKuukfO2Nlb0IWEh44KdDMkOfWIi4fChQ5ickIAe4eFC/NkPXZZLgASC5caePCcCTyLAvfDCK3yvyH4YFN0PXh4uENGHhEWMFJabkJqaio8//BAxMTGInzgR9vb2JBIsIvpPdpIEggUHn1wnAk8gwJUU5vPnkpNRw1sjMrIPXBxsCZQFESgpLsZvS5aA12oxYsQItGrdmrZDWlD8H3WVBIKFBp7cJgL/hQBXnJ/LVyhF8PV2h0QihUhE08yWNlrY7gZWLyEtLQ2dOnUSSjU7OTlZGgaL95cEgsUPAQJABGoR4LKunOMvZpZg5PBoiGl5wWKHB0tavHLlCo4mJQnLDCNHjkTzgAA69MmCRgQJBAsKNrlKBJ6CAHfp9GH+YlYFJsYPh4RmD54CmfnewhIYCwsLheTFs2fPYsTIkejZsyctOZhvyGt5RgLBQgJNbhKBpyTAvf7am/z46XPQIyQINIHwlNTM/Da1Wo1LKSlYuXIlunXrhlGjR8PR0dHMvSb3SCDQGCACROBRAtzla1l8S/9msLOr59HAPI/SwjvYvGkjOvcfjbDggAftsgz5Y/u342jyFVhbWyE4tA8GR4ZBIhYRfRMhwGYT2KFPG9evh5W1tZDAGNCiBR36ZCLxexozWYzZz/2ruLgY337zzb2zOyIjaUfL00Cke4iAGRPgrlw8w+cVKTFgQO965SCoFVXYsHIVDh45ghHPvomRkZ1qCYQtK3/BbZkDInt1gouHF/x8PGkLpYkNJCb0SktLsW/PHmRlZaFX794I69GDZhNMLI5PMpfF9srly0JiKpsxYldVVRWSjhzBs889JxzuRXUxzCDQ5AIRaAQB7svPP+PbdYlA7KCIegkEjbIGl9IycWz7SrSImoIRfxEI29YsQbVVAIYP6Q0HOzvaHdGIIDX1oyyB8cL588LpkE7Ozhg2bBj8mzenD5CmDkwj+mcC4fTJkzh69CiUSqXQkkwmE0TDS6+8QgKhEWzpUSJgLgS4S6lXeP/mAXBxsq+3TzyvxS+fvYNmEZOfIBB+w9ELN+Di7ISowUPRu3sIxJQEWW/GxvIAm4ouKCjAwcREZKSnY9jw4ejarRstORhLgBpgh0qlgkIuB//ns2yJYdHChRg2YgQtMTSAJz1CBMyNAFeUn8vnFVQjpFNb1D9DgMfiT99+TCAwSDVVlZAplLicnIT9Z27itZfnwtmRijCZ+gCSy+U4m5yMDRs2YMCAAYJQkEgkpu4W2Q+AkhRpGBABIvAoAe7tN17n+41IwKDIrqh/iaTHBQKbunx07TL/Zhq++20z/u/VF+HhQpnw5jD8WIxv3ryJHxcuRDMfH0x55hm4e3jQbIKJB5cEgokHkMwnAjomwB08cZ7vFdoRNlbSBjRdWyDUVJYhr6AMQYEBKCsuQFWNAumXkpGcXowX5kyDo309d0o0wCJ6xHAEKioqsHb1aty+fRuDY2LQuUsXOs/BcPh13hMJBJ0jpQaJgEkT4JYvX8l37BKOLiGtUf8UAR7bV/0C95CB6N05EGlnj+LgxduYMz0el8+dQEpaJmQyJbqE90ZYl/YQi+q/iGHSdC3AeJYBf/LECZw8eRL+/v6I6tcPPj4+VIHRBGNPAsEEg0YmEwE9EuAOJh7iAwLbIrBFswYVSiotKoDUzhn2NhIk7d2BMokHRg2KQE1VBUrLKmBlYwtXFxdIJGI9ukFNNyUBjUaDWzdv4vCRIyguKhL20Xfs2JFEQlMGpQF9k0BoADR6hAiYMQHuyJEk3r9Fa7Rs7tMggXCfDVuXLi68C7G1A1ydHcwYGbn2JAIs/pUVFcJMwq5du4QExtihQ6lMswkNFxIIJhQsMpUIGIAA9//e+zffJ3oYoiNDG7DEYAALqQuTIsCEQk5ODhZ89RWaNWuGWc89Bzc3N6qZYAJRJIFgAkEiE4mAAQlwSqWS50QiIQO9/rsYDGgpdWVSBMrLy7Fp40bk5eVh6LBhCAkJgbW1tUn5YGnGkkCwtIiTv0TgfxPg9uzZy7ds3R5tgvxJINBo0SmBmpoanDh+HMnJyWjTpg2iBw6Ei4uLTvugxnRHgASC7lhSS0TAHAhwK1eu5jt07oHOHVvREoM5RNTIfGDV+jIzM5F44ADYrMLoMWMQHBxMCYxGFidmDgkEIwwKmUQEmpAAt3v3Hr5lq/Zo24rV1m9CS6hrsyXA8hLKy8pw6tQpoVRzv/79MSA6GjY2VBfDmIJOAsGYokG2EIGmJ8A9O/M5fvz05xETRUmKTR8O87aAneeQmZGBpUuWCEdHT5g4Ea6urubttAl5RwLBhILVBKYyoc+K4RWVVsLTyxt2to/nFCnlNSgqLoWzmzvsbW0gq6lCSUkZnFzd4GBvB/A8qoUt8OVwcnGDk4MdKkqLcbeoVPBIJJbAy9sbTg71PxvoPhKtWo2iwgKoIIGPt8cT6u/wqKqsQGW1DO7uHrCS3isVz7bml1VUC1VhWaG/8spqsG/Njk6u8PJ0//MsIR6Fd26Dl9rBy8P837u45CN7+BslIsSNGliv0xybYHxSl2ZC4O7du1i7Zg1qqqsxdtw4BAYFQSptSCVPMwFiJG6QQDCSQBilGTxuZ13BVwt+hELLIaBVB0yfMRVerg+3tGs1KpxM3IXvfl2Ll//xLrq18cG3n32GG/ml8G3VETOnTYaVohAfffIVFLwIbt4BmDrtGZRkJWPl5v3QKBUoLK3BrOdfxNCBEQ1a8taqlTi4eyt27ktCdU01BoyehvHDI2t9tilk1Vj76w84lV6M1958HUG+HtColfj9+09xKqMcr73+Cn5f8BFulajg4eaErr37YfyYEbCzEqOqOA8vz50Hv96j8cFrzxllpHRpFLdk0fe8vU87xI0cCEn9Synq0hZqy4IIVFdX48D+/UICY8+ePdG7d2+40nbIJh0BJBCaFL9OOud5De7eyYe1vbNwQm9JUQF4iQ3cXZwatdWY16qxdvF3KHMKxuQhYVi/agVahg7AwIiHZ/iUFd7Bnu1bceD4Rcx+6RXYVWZg5b6r+PuLU7F66e/o0Dsa3J1kbE2pwT/mT8D6VasR1LkXBkb1FMRAQd4NbNy0DeH9YuDuZIfmLVtAUVWOiio5vH28IRE/rMQrl9VArlDBydkJokfWxkvzb2HZyk2IGjICLV3UePejn/HBF5/C3d7qAd/czCtY8ssycPbuSJg1SxAI+TdS8dV3y+Du5oqxU6dh7U/fY/DkFxAe4v+AGxNA21YtwbWMXFQ7BeB9SxAI69b/wffqGwl/HzfaxaCTlyg18rQEWAXGtCtXhARGKysr9I+ORuvWrel0yKcFqOP7SCDoGGgTNMdrVdi9eQM0rkGIjQzFrs2r4doqHH1C2wnv79XVVVBrtLUss7WzfzDN/t9MViuq8OkHHyFq/LPo1cEX2zeth8zaGxPjhgjfzrUaDS6dO4lLqdeRdTMXw+InIvvEZuSJgzF/xghsWvYTVG7t0M2Xw5KNRxDdvxfSLqehz8BYhHUJBgceKaePYt/RC5icEI8d69egy8AxqLl5AWVwxvAh/WEluS8QeGRdv4qsnHxE9usH6we/B7KunMOWPScQNyEeLXxd8c8X52Hya5+hc6C74JpWrcAfq39HqdIK8qoKDI2fjBZeDlj6/QLY+XVAYVYahk6agtULv4Z7624IbtUcHTt3hre7C/JvXMGyjYcQ1c4Ve9JrLEMg3Mi+zTf38/lzfaUJRjR1adEEhAqcxcVIOnwYV69dQ++ICERERFAFxiYYFSQQmgC6zrvkce7Ibuw5n4+XnxuLRQu+xfCp89A2wBO8Ro3ta5cj407Jg145kQSDRsShU5uAB7/TqJQoKSuD5hEhoVVWY8FXCzFh3ivo1soTOzZvRJHKAdMmjxJmnmVV5diycQOatQzG2ZNHETU8Dim7l0DjNxDPTorG1tW/oZhvhrGDu+KbLz5DYQ0Pv4BWmDptCpr7eECtUmLrmmUoE3lh6sThuHh0D1ZsPQpPV0eMnTIDwUG+gsBhQkSt0eDKxbO4nH4LI0aPgb219EEp/7TzJ7Dz4AVMTJgIfx9XvPfqPAyd8S56dfYX8h9y0y9gxeYkDB4QjlMnkxE7biL4ouv4fcd5TB4dhb3bd2H4lBnIungS5TIVsjOuQerij4SJo5G4bSOcW4XCpzoTGy+VWYZAeOutd/j4qbMQ2iFQ50OVGiQCT0tALpcj9dIlbNq0Ce3atcOECRNga2f3tI/TfTogQAJBBxCNoInS/Bv4/NvfMWNqHDZsOYgXX34ejrZWYGK8rLgICpX6oZUcBycXV9jZPEw4LL9zC6s2bEEZS9L782LLf5eSz2Pqy28hrJ03tm/egArODVPihwkzCJkpJ7BhdzLi42Kwfs069IkdjeyTm1HhEo45U4bgj1WLUWndAl7qHJzJ02Li8L7Yt3svgrtHYECfHlDIyvHVRx9h4OT56N05CNWld/H8tMkI6j8F/3h55oNZguvJSVi+cQeKigpRUl6FloGBaBfaB7MmjhQsTb90Gtv3JWPcpAkI8HXFOy/Pw5j5Hwo2a1Ry/LbgC7h1GoC27sCBgycREzcGe1b/jpDB4+FnI8eO7bswZsY8tPC+V6/lVnoqVqzajMioSOHwwdFxI1F04SC2pFXi/dfmQPpngqMRhF0vJnDJSXv5y9k1mDxpFKSUg6AXyNTo0xFgb2D5+fn47ddfIaupEco0BwQE0JLD0+Fr9F0kEBqN0CgaYB8HmziOAAAgAElEQVSEP375OcSOrrByC8SMicOEGWK2hr5j3Qpk3Lm3Y4BdbAZh4PAxtWYQ2OuQLf+xfx9cvBq/ffsF3LsMwdCebbBl/Vo4teyC2KgwQCRC8t5N+OqXdbCxkSInOwfBPfojPqoNjmUp8fd5k7D618VoFtITVw9thHOnEZgyPAwbVq+GxL0F4oYNQu6V4/h66W588NF7cLGV4MKRXfhpfSKc7awx+6VX0drfQzBFVl2BouIyXL9yCddv5mFQzBC4ODvB0/3ejoK72elYvXEXhowagyBvG7z+yjt444sF8LG3glpehc/+9U+kF1RCJa9CYXE5xk+ZivQzJ1AsV0Ahq0JhUSmmzX8V40YMhp21BNnpV7BsxQZ07NgBRw7uR4VMiarifNRIXfH2O++gT1iIUcRcX0Zw2zes5ss09ujbqyucnF3g7ORQK+lDXx1Tu0TgSQTYmxKbTWAHPqVcvIi+ffuiR48ecHJ2blSSFdGumwAJhLoZmcYdPI7tWIdPf1yHNz/6DH26tBLM5rVaZF27jNIq+UM3OBFatGoDT1enOlzjcelEItbuOYOwLm1w80Yuho+fhDtpp2HlE4zuwc1RVSODoqIYy1euQ+/BI9CphTO++mYxOnQOwa3cAoweOwal6aexfl8K+vbugvT0LPQeEIOI7h2xbtHnKHHsgHnPjISiuhTff/UtBkx4Frln96DSqhkmxg2FtfT+icA8rlw8jysZ2Rg+ahRspQ+TF1WyKmxavw5VvBXs1GXIlTtj9uQhOHX6PIJDOsPdyR4qjQa5GVdw8MhpxIydAD83B6i1WuTdTMfe3fsxbNI0VNy9KWyDTE+9AIWVB6ZMHgcrjodGq8W1pB3Yea0a77w8C1ZW5r37ivvnm//g3b19YGtjjZDQnugZ2glWDwJhGi8HstL8CKjVaqSkpODI4cNwcnLCwEGDhNkEjqp56S3YJBD0htbgDWdfOYU3PlyMBT98Ax/XhtcUeNRwtVKGM8ePIiuvCB27dEf71r5Y8J9PMSB+FsI73luiVstrcO78BTRv3Q4+Hq5Iu5CMlKtZaBUcgs4hwRBpFTh5NAk5+SUICGqLrl1CYG8jwaHd2+EXEoE2zT1RUZyPk+evI3pgJEpuZyP9Vj66de8Oe5uHH8aF+bdRWFKONu2CIRXXrvBXfDcPJ06cQpWKExKfFcXZ2L7/OGJHjkGr5t6CnWVFd5GZlY1W7TvCxfHeUmZ5SRGuX7uOVh064da1i0hNy4CTmzd69OyJZp7swLl7NAqy0pBWoEC/Xl0NHldDd8idOn6Yz71biZCO7eDq5g53VxeIaKnB0HGg/p5AgBVWun37NpKOHMH169cxdOhQhPXoQWWa9TRaSCDoCayBm62uLMfhXZtw8pYG77w6C1aPbA9srClsho+9LkUiMdSycmzdeQjRMYPg6vRQhLC/MyHPftj97Of+/wszGex37B6R6JEthJoH/3//GZFI9PB5du8jxt9f/vhvXxiYDexin2W5NzKQmXMX3cJ6wMnuXq7FA7seafdRW9k99/1gdjx68byW5TtaxPsQt+znhTzv4I8pE0dQHYTGvnroeb0QYIc+paam4velS4XlhviJE2FHCYw6Z00CQedIm6TBqxdPYcuuJAyPT0BIK1+92cA+5GVyBWxsbYx6WVqtVgk7MthWapqBrN9w4L7+dhE/Ysy9qRc6iqF+8OhuwxJgxZW++OwzIYFq7rx58PXzoxe8DkNAAkGHMKkpImAGBDi5XM6LxZIH+0jNwCdywYwJMJGwfds2XE1Lw6CYGHTr2hV29rpZY9UrNq0WvJYHx5bv/jJlqdd+69E4CYR6wKJbiYAFEOA2bNjIt+vQDR2DA+k0RwsIuDm4qFAokHzmDI4dOwY/Pz/0798fzXx9jXNNkOehLimB6lo6tKWlELm5QtquLSTskCojS7gkgWAOrw7ygQjojgC3Y8dOPqhNR7RrzTLEddcwtUQE9EmAJRDdunkTiYmJKCkuRlT//ujatSusrR8/YU6fdtTVtvruXVRu2AzZoSPgKyohcnKCTb++cIwfB4m3V12PG/TvJBAMitvkOysvvovzFy6ivEoGdy9fdO4cAinUwomtSlihU0h7SJ82QZJVVC24jctp6XBv1hxtW7WEVHJvWyM7IfJKagqy8/KF5EBrGwd0Ce2MjMsXUVJ+r5iTl28Qwnt0xl82NJg846Z2gFOr1TzHiWjnQlNHgvqvNwGWdVxVVYVzZ88iKSkJwe3bIyYmRtgWaQwXr1Khes8+lP/4M7QlD4vTsFkEpznPwWHEUHDi+3u7m95iEghNHwNTsiD9/FH8sm4X2rdtg+yMNPh1jMCY2L7Iy76BxH2HMGzyDLT9s8BRXX4p5NVYtfhHlGutUFWtwPjJCQgO9BMeYwWMziWfRtatPChryrHv0Hm899F7uHH5LApLKpGXmYoScQt89M58KvZXF+h6/p17841/8P1ixmBIdHiDjtesZ390OxHQOQGWtHjz5k2sWb0aNjY2mD5jBjw87lVea8pLW1mFsp9/QfWGzbXN4AD7cXFwmTcHInvjKSdNAqEpR4vp9Z125iDWJqbixTlTkZ9+DkvWH8Ab/3oXLlIVFi9cjKEJsxDkc69kcV1X4a1U/OeHdXjrn6/h4MblUHt2QMKo6D8fY5Ud2dZCHuln9mPB2pNY8NnbsBJx945p/vZTaAP7YXZ8NCXa1wW6nn/nTp08xfv4tUBzf9rFUE92dLsRERDqzJeVYeOGDbh+7RqmTp8unOnAtjY11SUIhJ9+QfWmP4SDYh5cHAf7saPh8jwTCMaTYEkCoalGimn2ywTCqr3n8dzUCbiZegKHz+fh5Vfm4calk7h6R45xo2KEJQZWN4BVR1U9cgYE225obW3zoBLhxUNbseF4Dt57Yx5O7t+Mo5kyvPXC1Fpg2EmViz5+G9Ydh2PmmChhB1Nl8W28/c8P8MK7n6Cd/71yy3TpjgBXkHeTL1eI0SrQn9SX7rhSS01EQKlU4sSJE9ixfTvCw8MRGRUFLy+vJtkOyStVqNqxExWLfoG2ouIBEZaH4DhnFhxHjwQnkTQRqce7JYFgNKEwCUOYQPj6l7Vo7uuNW9n5eO7lv6OFM4cduxMR0DoYPXqEwdXJDqz88ckTJ5BxIxv3ZbLU2hZdw8LRoV0r4bCnpJ2rcTC1Bm+/NhPJR3Zg5+l8vP/m7Focyu/exKuvf4C3PvkCbfzchBmF80d2YNWBa/j4vVdhRQkIOh83XOaVs3xyWgHGjhlChZJ0jpcabAoC7I0jJycHO3fsgFKhEMqtdujQwfCHPvE8VLdvo3L1OsgOHIK2shIiRwfYDoyG4+QJkPo2M6qdDCQQmmK0mm6fTCAs2XoUI2OisGP9GgycNB/dAl2ReuUq5CotOof1hK+HMzRqFe7k5aKkvPKhSBZL4O3TDO5ursLS9tnEzdhyKh//emMOTh34A4evVeGfL05/CIfncXzPemw4loOP/vUKbKViqJU1+PW7BXAKjsTk4ZGmC9KILedOJu7kM4uBCWNjSSAYcaDItPoRYCKhvLwcJ44fF7ZEdg8Lw6DBgyGVSg06m8CqzWmKi6FMz4KmuAgSDw9IW7eCxN0dxpb0QwKhfmPM0u9mAmHdoct4ee50nNmzDmdytXjtxUdKO7NyyyzJsLoce3bswIUr1x/MIFjbOiBqYAzCQzsJnzt3Ms7jq8Vb8fa7ryNx0++ocmiFqXEDoVSqIbWSQqusxrefformvYZjfEwvod2C7Ov4ZtEKTJ0zD8Et9Vcx0pLjzL35j/f5mbPnoF2gjyVzIN/NlIBKpUJWZiaW//47XFxdMevZZ+Hq6mpQkSCgfaT+vLHuJyaBYKYvAj259UAgzJuJqruZ+P6nVZj76psIbFY7F4CJ5KqqSsgVygeWsJ1z9g72QlKxICJqKrDwq89QprFCZaUMM+bMg5+9EsvX78fMObNQfec6vlq0GvP/71UE+XoIeQ3H921DUuptzH1uWq2zIPTkrkU2y5WUVfB2ttb36lRbJAJy2hIIVFZWYumSJbiZlYXps2ahffv2wmwCXQ8JkECg0VAfAqUFecjIK0HnkPbgNEqkXLgI/zYd4OPuXJ9m/ryXR2lhPs6evwifFm0Q3LolUpO2YsvpAvzztdkou5uDrNsl6Nq5E6ytJOB5DbKupkEhskXb1oGQPG29hQZYZsmPcDeunOOv3ZJh8JAIY5vxtOS4kO96IMCOkD58+DCOJiUhNDQUvSMi4O7ubvjZBD34posmSSDogiK1oRsCPE4f2IIK2yAMiuismyaplXoT4M4m7eUv31Ai4ZnhDapCJauugtjKBlbS2tnYbA1YqVQI+1etbWwgNtL68/UmRg+YNAEmEtjR0YcOHoRYLBbKNLdp29Y4yzQbmDQJBAMDp+7+JwGlQg5OLH1QUZFwGZ4A9/EH7/E+LXpg2tT6C4SivBtYt34zesaOR/fggFrWlxTewaHEgyipVCIsoi86BwfRm7Dh40s9PoEAE68FBQU4fuwYLl64gF69e6P/gAHCeqglXyQQLDn65DsReJwAt3/XNt7BoxV6dG9fryUGZU0ZFi/6FdevX8bgZ17FiL4hD1pnCSRH923D9TtytGrmiItZRZg1bQIc7Sz7DZgGoHERYMVbMjIyhOJKrPJi/IQJ8PT0tJglBzabwg6+YoKJXcXFxfhx4UIMGz4ckZGRFsPBuEYlWUMEjIcAdz41nQ9pHwRJPZcAeLUSN3PvYu/qhfDrm4ARkZ0eCgSNCssWfoOgPiMQFuSCz79Zgufmz4OfJ1W6Mp7QkyX3CVRUVGDlihXIzcnB9Jkz0bp1a7Of7WKiYO3q1Vi2bBlqamoEFOwALJZx/tF//oOoqHuV6ugiAkTAcglw7//rPb7fiPGI6hFS710MbKbgl8/eQbOIybUEgkZRhQWff4OBE6ahU4ATPvpwAeLnPo/2zY3r9DrLDTt5/lcC1dXVwsmQZ06dQr8BA9CzZ084ODiYNaic7Gzcvn1bEAbsYkLpjz/+wOSEBJpBMOvIk3NE4OkIcCknD/LnsyqQMHFkAwol8Vj86duPCwR5Fb7+YgEGT5iBkBZO+PjfX2LsnPnoGOD9dFbRXUSgCQiwmgmpqanYs2sX3NzcMHDwYAS2bAmREZ24qE8slIOgT7rUNhEwPQLcwm++5oO69MHgqDCI6j2l+LhAYFOXWo0Sv33/LTr0H4PQIBd89tVizHx+HgK83UyPEFlsUQTY+L179y4S9+9Hdk4OevXqhZ69et0r6FLv14dpoSOBYFrxImuJgL4JcPsPHeN7dO8GJwfbBvRVWyDUVJYiK7sA7YJb49C2dchXOKBTSxfsPX4Fc2dPhbOD8Rxt2wBn6RELIsCS99gOhwMHDsDf3x8jRo6Ei4uLWYsEEggWNMDJVSLwFAQ4jUbDi+qZoPiwXR4rvvsE3uFxGNwzGGnJR7DzTA5emTcFJXduYdXyFbhVUI24SZMR0b0TxOxUDrqIgIkQYGvzbDZh1YoVwvr8/L/9rclOhjQEMhIIhqBMfRAB0yHApaRc4j29feHt6dagEvFqtQqcSAwRx+Pw7m2okHhh1OAIgYBGoxG2ULE13PovX5gORLLUvAmw7ZBb/vhDmE2YMXMmunbpAls7O7ObTSCBYN7jmLwjAvUlwH326Rd8eN/BiOzduV51EP7aEdvRcDv7FqQOrvByd6mvHXQ/ETBqAmw2IeXiRWzevFnYBhnVr5+w9MCqMZrLRQLBXCJJfhAB3RDg5HI5LxZLIJGYzxudbtBQK0TgcQK38/Kwb98+lJWVCQmM3bp1g5W1tVmgIoFgFmEkJ4iAzghw/P0yajprkhoiAuZLgL1c2MmQZ5OTcfLkSQQGBgoJjPb29ia/5EACwXzHLXlGBBpCgARCQ6jRMxZPgNVMyM3Nxfp161BRXo458+YhIKD2eSSmBokEgqlFjOwlAvolwGVlZfFOLu5wc3FqUJKifs2j1omAcRNg2yG3bt2KpMOHMWnyZIT16AErKyvjNvq/WEcCwSTDRkYTAb0R4N54/S2+35A4xEaHNypJUW8WUsNEwMgJsEOPzp87h507d6J9+/bCyZBeXqZXVpwEgpEPNDKPCBiYAFdTXc2Xl5WgSqaCr78/7KylBjaBuiMCpk+A7XLIzs7G7p07USOTYdDgwejYsaNJ7XIggWD645A8IAK6JMCtWbmCr1Fq0K5DJ3TtEkICQZd0qS2LI1BeXo7jx47hxPHj6NS5M2KHDoWjo6NJcCCBYBJhIiOJgMEIcIePnuQDWwbAw8MdNtZW9T7R0WCWUkdEwEQIsCWH7Fu3hJoJ7IqfMAHNmzc3+l0OJBBMZICRmUTAQARoF4OBQFM3lkegqqpKEAnsTIepU6cKMwoNL2uuf34kEPTPmHogAqZEgASCKUWLbDU5AmyXw/Hjx7Fvzx706t0bfSMjhUOfjFEokEAwueFFBhMBvRIggaBXvNQ4Ebh3JklmZia2btkCWxsbRPXvj3Zt2xpdBUYSCDRaiQAReJQAV15axKt4KdxdnYgMESACeiRQWlqKI4cP4/r16wgJCUGfvn3h5GQ8rzsSCHoMPjVNBEyQAHcj7QJ/NbcKgwf2gZhOYzbBEJLJpkSALTmkpaUh8cAB2NnZYfz48fDw9DQKF0ggGEUYyAgiYDQEuJvXLvLHzmUhPn40pKQQjCYwZIj5EmA1E0pKSvDHpk1ISUnBiy+9hNZt2jT5LgcSCOY75sgzItAQAtzP33zJ+4ZEYlh0D9ri2BCC9AwRaCABth2SLTmsWrkScWPHCkdIOzg4NJlQIIHQwEDSY0TATAlwazft4PtFRsDbw8VMXSS3iIDxEmCnQ964cUM49MnVxQXRgwahZcuWkEgkBjeaBILBkVOHRMCoCXDXUs/xOQVy9O/XC2IRJSEYdbTIOLMkwEQC+3BOTExETnY2wsLC0DsiAtbW1gb1lwSCQXFTZ0TA6Alw7779Dt89cghGxPSlJEWjDxcZaM4EampqcCklRRAKbDZh/IQJcHd3N9iSAwkEcx5d5BsRqD8BLuvGLd7TywsOdjb1f5qeIAJEQKcEWM2EosJCoQLjjawsTJsxA8HBwQY59IkEgk5DSY0RAZMnwFVUVfP2drYQcbS8YPLRJAfMhgDb6XBg/37s2L4dw0aMQGRkJGxtbfXqHwkEveKlxomAyRHgvvxmIT9yTBxaB/jQLgaTCx8ZbM4E2GzCldRUbN22TTjsKXrgQPj6+uqtTDMJBHMeTeQbEag/AW7v1nV8kcoR8WOGQEJJivUnSE8QAT0SYAmMd+7cwe5du1BcVCRUX+zarZtQZOmpL60Wmsoq8NXV4GxtIXJ2AicSPfY4CYSnJko3EgGLIMBtX7+Cr5Z4YdzoQRDTMoNFBJ2cND0C7GTIs8nJOHXqFJr5+iImJgZeXl51JjDyShXkKSmQJR6C5vZtcO7usOsXBdte4eCsrGqBIIFgeuOCLCYC+iTAffvDL/yoMaPRwtdDn/1Q20SACDSSAFtyyM3JwZ69e1FSXIyx48ahdevW/33JgeehSLuKsu9/hOryFTCxAIkE0qBAOM+fC9vwMOCRLwUkEBoZIHqcCJgZAU4mV/BSqUR4k6E0RTOLLrljlgSqq6uxb+9e7N+3D1OnTUN4z55PnEngFUpUbtiIip9/A69UPmQhEsF+fBxcnp8Dkc3D3UskEMxyuJBTRKDBBLjpU2fwQ8fPRPzIKFAKQoM50oNEwKAEWJlmdo7D70uXIrR7dwwbNgxu7u61ZhO0NTWo+HUpKletfcw2u9gYuLz8N4hdnB/8jQSCQUNInREBoyfAbVu/krfybI1BUeEkEIw+XGQgEXhIgCUwFhYWYtWKFWDLD/2jo9GxY0fY/DkrwCsUqFi3ARW/LAUenUEQi2E/bgxc5s6GyO7h1kkSCLofXbxGA2i1AJuhZYmhlOele8jUot4IcGuW/cwrrJshIX447WLQG2ZqmAjoj4BcLkfSkSM4d+4c2rRti+joaDg7O4PjechTL6Ps24VQpV2990HFcZC0aA7nF+bBLqK38MF1/yKBoMMY8TxUuXmQJR2FpqAQInd32Eb2gbRFQJ2JpTq0gpoiAo0iwC1c9AsfPTgWbYP8KAehUSjpYSLQdARUKhWyMjOxZ88eKJVKTE5IEGomsNwDxYWLqN69F+r0TIib+8EudoiQoCj6S+ElEgg6ih8TBwUFKP30SyhTLoGvkYGztYG0Q3t4fPAexK50MJ6OSFMzeibAlZdX8FZWVhCJOIhEYkgkYj13Sc0TASKgDwJsyYFth9y5c6dQN2H27NlCAqNEJBKEAq9WgxOL721vFD/+OieBoJuo8FotKlasQsVPv96btbl/iTg4znkOLtOf0U1H1AoR0DMB7pWXXuHFEikkUil6DxiCIQMiYGP1FEfN8jxKCvOReuUqnD2aoV2bVrCxlj4wN+PKRVy7kQexSATflm3QsV0QnRap52BS80SAEWBlmtmhT0uXLEGP8HAMiY2Fq6trnRUYSSDoZvwwMVb47vtQHDn6WINWvcLh/fXnuumIWiECeibA/bboe97KrTm6dmwDdw8veHm4CbMJdV2yymIs+uFnOHr5QV5VhvahfTCgT6hwpgP7JrPp90W4cKMCIe0D0bJtJ4R1aSeIBbqIABHQPwH2GmQ1E7Zt2wb2jbbfgAFo164dpNKHIv6vVpBA0E1ceJUaJZ99gZrtux5r0CY2Bp7vva2bjqgVIqBnAtyJxJ18VjEwcWxsvb7hp58/hhW7L+CtV2cj7fwJnLuSg4kJk+BoIxEEwva1S6FybIORsb0hYdOaenaEmicCRKA2AfY6LC0txdGkJFy/fh3B7dujX79+cHR0FG68e/cucrKzhR0Q7CqvqMAfmzZh0uTJiIyKomS6hg4onkf10WMo++RzaEvLHrQicnKC6wfvwq5neENbpueIgEEJcJ9/9iUfFTMCPTq3rdcOnKO7N+BsrggvzopD5tWLSDx8GqMnToGPm70gEDYv/wmnrhagY4e2iIiMQlDzZk81M2FQ76kzImABBNguh6tXr+JgYiLA80IFxuYBAThw4AD2790rJDWyS6FQIDs7G6+/+SaiSCA0amRoZTJU7dqDmh27oSkshNjNDXZDh8AhbhREfylx3aiO6GEioEcC3K2c27yPtyespE+Rd/DAEB4Htq7CtVJnzJs2HFnXUrE/8RhGjk+An5eTcFfOzQwUFlcg7cJp5FVL8cLsZ2Bva61HV6hpIkAE/hsBlpdQVlYmiILk06cRN24c2rVtixqZTBD07GKzDSxvYfSYMcLx0hzt2W/UgNIqFNAUF4OvrhEOyRJ7uNeqXNmoxulhImAAAtzmP7bwbYK7oH3bFvUolMTjxN7NOHVTgxefGyfMIBw8cgZjJj4Db9fap8zdybqMb5dswWuvvggP13tTm3QRASLQNATYcsKZM2ewdvVqRPXvjyFDhjw4GZJyEJomJtQrETBWAtyvvy7hO4X2Rvcu7eohEIDstLP4ecMRvPzCDKRfOI3rueUYO24EVHIF3NxcIJfVQK3RIjM1GVsOpuDlF2fDxbEeR9QaKzGyiwiYOAE2m3Djxg2sXbMGLi4uGDZ8OJo3by7MICz4+mvEDBlCMwgmHmMynwjoggCnVCp5Vv9AOKypHpmEankVVi9fCa2NIzQKOUJ69IGXVQ0Onb+FKRNHIe38SaRl5qAw/y5atO+G2OgISKnGgi5iRm0QAZ0QYIJgx/btuJGVhd4REWjVqhV+/fVX4xAIPA9NRSW0VVUQ2dlB5OQo1HCgiwgQAcMR4H5atJjv0qMvenQLrtcMAjOxsqwY6elZcHD1RMsWfjh1YCeyZXZIGDMIRXfzkJ2bDxt7J7RsGQB724enxhnOPeqJCBCB/0WAVWC8cOGCsNOBLT9cu3oVU6dPb9IZBHZ+gfx0Mmr27oe2tBSciwvsBg2AbXg4OKv/vk2TIk0EiIBuCXBJSUd5/4BWaNHcp14zCH81g+c1uHH9GsQO7mjh561bK6k1IkAE9EaAJSneuXNHqL64aeNGzJ03T1h2EDfRN3bFpVSUfPI51Ley71UiFIshaREA13++AZuOHfTGgRomAkSgNgHubt4tXg5bNPf1bHStAiEbmuMa3Q4FiQgQAcMTKCgowL/ffx+ZGRl46ZVXED1woFBYyZC7GdjsQel3P6J6wybgz/oM90nYT5oAt5fm04mIhh8a1KOFEuAyLp3hk68XYVzcEEjqk4RgocDIbSJgrgTu72IIDAzE1bQ0tAwMxMiRI+Hr5weJpD7boBtOSCuXC7MHsv2Jtc8xAGDTLwoeH79/79hkuogAEdA7Ae70kX18ZoEK4+Ni6bhnveOmDoiA8RJ4dJtjly5dsOWPP5Cfn4+IiAh0Cw2Fvb293o1nB0qV/fQLqtasB9Tqh/2JRLCfPAGuL8wz6IyG3h2mDoiAERPgvv9uIR8xYAi6dgyipQEjDhSZRgT0TeCvdRBYZUVWM4EVVvL28cHgmBh4enrq2wzIL6Wi9NMvoM68ca8vjoOkdSu4vv5/sOkUovf+qQMiQAT+fOmdPpfKdw5pB+t6VVIkfESACJgbgScVSlKr1ci+dQsHDx5ETk4OJk6cKJzpoM+8BDaLoLiYguq9B6C5kw+xtxdso/vDtnu3e0dV00UEiIBBCHB/f+Of/KQZs9G9fUuDdEidEAEiYJwE/lslRZZ8XFNTg5MnT2L1qlWIi4tDTEwMpPr8sNbyYPkIvEoJTiKFiG2TptwD4xw4ZJXZEuAunDjAX8iswJTJoykHwWzDTI4RgboJ1FVqmVVgvHXrFn5etAgtWrYUDn3y8PAQiqwZ/OJ58EqlUEiJV6nA2dtDZGcPTtwEthjceeqQCBiGAJeReoa/mFGCUSNjIKHXlmGoUy9EwAgJ1CUQmMlsNoHdt2XzZuHwp+hBgxASEgIrfc4m/JUVz0N1Jx9Vm7eiZvce8OXlkPJyIGsAACAASURBVIaEwHHqZNh2707FlIxwbJFJpkmAy7p+lYeNMwKb+5imB2Q1ESACOiHwNALhfkc11dU4evQokpOThRLNAwcOhLuHh15zE+73ra2pQeXaDahcuQZ8dfW9X3McrEI6wuW1l2Hdrq1OeFAjRMDSCXDfL/qNHzV6NJr7uFk6C/KfCFg0gfoIBAaKJTBmZWZi7759YIJhxMiRaNeund4rMKrv5KPksy+hOHUauHdS9T2N4OgAlxfnw2HEMCqmZNEjmZzXFQFu1+bVfKXIE2NHDoS4Hoc16coAaocIEAHjIFBfgXDf6oqKChw7elQ4z2HgoEHo07cvrK2t9eaUKicXJR/+B8qUS7X64Kyt4fzCXDiMi6NiSnqjTw1bEgHu0pkj/Pn0EkyaOApSESkESwo++UoEHiXQUIHA2mAJjKmpqVi+bBlCOnXC+Ph4vRVW0pSUoPT7HyHbs79WtUW2HdLl1ZdgFxVJgSUCREAHBLiPP/yEjxkzEd07BuqgOWqCCBABUyXQGIHAfGYJjLdv38a6tWshl8vBli5bt26t89kEdl6D7MRJVPy6FOqbt8CrNRA5OMB2cDScZ06D2NXVVENAdhMBoyLAXc24ybdq2RwS2h5kVIEhY4iAoQk0ViDct7eqqgoHExORkpKCzp07o3dEBNzd3XWawKiVK8BOfZQnJ4OvqoY0KBC2kX0h8fSg/ANDDxzqz2wJcJs2bubbdOiKjsEtqdSy2YaZHCMCdRPQlUBgPbEERnbgU9KRI0I+wKDBgxEUFKTTmgk8OwpaqQT7l1VY5Ax0oFTdJOkOImAeBLgNGzfx7dozgRDIdgrRRQSIgIUS0KVAYAhZXkJhYaGQvHjx4kUMGzYM4T176lQkWGioyG0iYBAC3A+Ll/Hjx8XBy9XRIB1SJ0SACBgnAV0LBOYly0tQq1S4dOkSvv/uO0T164fJCQk6z0swTqJPtkqoAKlQgO26EBmywJQpQSJbjYIAt/q3n3iNU0tMGjsYYppCMIqgkBFEoCkI6EMg3PeDCYXi4mL8+MMPEInFmDR5MgICAiCVSpvC1SbpU6tUoubgYVSuWgNtcQkkzf3hOHkibHr3hMiCODQJfOq0QQSEUsunLt/GhPEj6SyGBiGkh4iAeRDQp0C4T4jtbti1cyeuXLmCnr16ITw8HE5OTuYBsA4vao4eQ8nb/084Q+L+JW7uD/f/9w6sO7S3CAbkpGkR4LIzrvB3K4HuXdgRrqZlPFlLBIiA7ggYQiAwa5VKpbDDgeUmODo6InboUPj6+up0l4PuqOimJZZIWfzu+5AlHqrdIMfBceY0uDw3k3Zf6AY1taJDAlxu1lU+I68cffuEUyVFHYKlpoiAqREwlEBgXFgC4507d3D40CFBLIwePRrdw8IMe+iTAQPEq9UoePH/oLyQ8livtqNGwOOtv5NAMGA8qKunI8B9/MF7vF/bcCTED6UlhqdjRncRAbMkYEiBcB8gW3JIvXQJq1evRlhYmHCeA5tVMLuL5WB8/hVqNm+t7ZpYDKeX58M5frzZuUwOmT4BbtuOPXyPXj3h7eZs+t6QB0SACDSYQFMIBGYsS2DMycnBqpUrYWtri7Fjx8LP39/stkMqs26g8NU3oS0uArQ8OLEY0k4d4f6vtyHx9mpw3OhBIqAvAtyd23d4e0cnODrY6asPapcIEAETINBUAuG+SCgpKcHuXbtw69Yt9O/fH126dtXbeQ5NEQ4mhBRpV1GzYzc0xcWQ+PvBPnYwrIKCAJGoKUyiPonA/yTA/fTTYr5LWF/06BYMOquJRgsRsFwCTSkQHiw5yGQ4c+aMcDpkM19fRA8cCH9/f7NJYGQigVV/ZHUQRDY24Nj2RsoOt9wXnZF7zl25ksa7e/rA08OFSi0bebDIPCKgTwLGIBCYfyyBMTc3F4cOHhQOf2Jlmrt27QoJlVLWZ/ipbSLwGAHuxtWLfJHSBmGd2hIeIkAELJjAowKhb9++0BYWCXv22THKTVHxjx36dDY5GXv37kWvXr0QM2SIRVdgtOChSa43EQHu1vUU/sSFmxg7bgSktMbQRGGgbolA0xO4LxAG9e6NkPMpkB9OEo5Stu7eDS5/ex5WLVsYfDqczSbcvHkTP3z3Hfz8/PD8Cy8IiYx0EQEioH8C3LH9O/nccg5jx8RCQnky+idOPRABIyXABMJ3n32G8Iwb6JRfCI6tl/952fSNgNvbb0Hs0jS7nSoqKrD8998FsZCQkIDg9u1hw9bwaf3eSEcTmWUOBLhvv13IDx45GsEtfRvkj0ajAceJIHrC7ANT/+wtRsSJKA+nQXTpISJgOAJMIKz+8COEHj+NALGkVsecvT08v/kS1h2briQwe69h1ReTkpIQHByMPn37wtvb2+y2Qxou4tQTEfjfBLizKdf4zh1aQyKu7/QBj7yb6ThzNhWu3n4IDe0KRzvrB73Jqipw4dxZFFcq0SU0FP4+niQSaDQSASMmwATC1o8+Qefjp+AtEte21EoKjy8+hW2P7k3qAfvSkZWVhUOJiaiRyYRdDh06dNCbSGA5GOr8u9CUl0Ps4gJJMx9wlCzZpGOAOjccAe7DDz/lR4yfiM7tWtRrF4O8ogjffr8Y7bt1R8ntHDRr3RmDonr8uVWSx/kTh3D8XDrcnaxRI3LCpPEjYGdtOSe3GS6E1BMR0A0BJhB+++gjhJ1IRhuu9hcGkZcnvL75ElKWh9DEF9sqWFpaipMnTuDo0aPo168fBkRH67xMs1ahRPWOnajeuRt8eQU4R0fYDY+F48jh4OiY5iYeBdS9IQhwZ47s4a/kyjB54qh6JSleP5eEVQcu462XZ+HahVM4k3IDE6cmwNFaAl6rxtrfFsE1OBLhbVzw/eJ1mDt/LrzcLOPUNkMEjvogAromwATCN19+iQi1FiHJ5wG5QuiCs7aGw5SJcJ72jPDfxnKxJYfMzEx89+23aNGiBZ597jm4urrqzDzZxRQUv/5P8FWVENZKGQsHe7j+623Y9Y2g/AedkaaGjJUAl7jzD75a4oFhg/rUo1ASj6O7NuJcnhgvzBqDrKspSDxyCqMnTIGPmz00ymp8/+U3iIx7Bp1bOOGjj79Fwrzn0cbP01g5kF1EwOIJPNjmGB2NULEEikNJ4BUKWPfsAbvo/hAb6bHMbDvkiuXLkX/nDsaOHy/kJ1jp4Bt+yVffoHr9ptrjguNgN3IY3F592ajEksUPXgKgFwLc639/ix82NgFRvTrVSyAc2LoaV0sc8fz0Eci6dgn7E49j5PgE+Hk5QSOvxFefL8CQSTPRsbkzPv73F4ibMx8hLbyf6ERFeTnu3r0rFEihiwgQgaYhUFZWhuXLlyMiIgKhoaGASgWenRlgJQVn5KWAZTKZkMCYmpoq5CV06tSp0XkJ4oU/wfrMuccEgqJrZ6hnzwJna9M0gaJezZKASCSCm7s73N3djcY/7tKlS7y7py98vN3qlYNwav8fOJ6pxEuzxyPzygUcOnoWYyZNgZeLHTQqGX5asABhwyaha0tnfPLpD5j6/HwENXvccSYKWMLR5s2bYWdnOudBFLNa6hIJnJ2bZttXQ0ZQYWEhpFIpXFxcGvK4wZ9ha83lZWXCh5OTk5PJTOkywcsS6Hx8fAzOrDEdKhQK4QOW1RswBdvLy8uhUauFN1V2qdRq3Ll9WxgnbJyD5+HViF0O4bfvIvxmDivt+AArz3E4H+CHk34+0DZANCmVShQWFAhlpNkHgilccpkMlVVVwvKNqVSzrKmpQWlJCXz9/EzmfYO934WEhGDCpEnCFl5juDheKA5e/yv36jn8sDoR/3jzBaSdScLlW6WIHz8KKrkczs6O2L5mGXiPdujRxh1L1+/FvLnPwt3F4bGOVCoVli5ZIswgxMbGQiT+S/Z0/U0zyBPLly2Dh6cnhg4bZpD+dNHJ4p9+Et4wR48Zo4vm9N6GSqnEjh07hOnimJgYSNibvglce/fsQcqFC/j7m2+agLUPTWTCZs2aNejZsye6dOli8KJI9YW1a8cOIVkxYcqUWrayt7T0a9ewYeNG9AgLQ1S/frBuwBuui1wBh7UboEg+d08kcBysQjpCPi0BJXa299MS6mV2Xm4uFn7/Pd557z2TKfiUdvmycDbGqLg4eHmZxqmTF86dw7p16/DBv/9tMu8buTk5OHH8uFAMLCAgoF7jSl83cx+8/yEfMWAYBkR2Q330rFopw8rFP+LSzULY29ljZPxkuHGl2Hb0GubPTkB22gUsX7UeFTUq9IqOxZjYfrCS1t5bLah+lQrsg4u9gKfPmAGxiQiETz/5BL6+vpg6fbq+YqPzdv/17rto7u+P2XPn6rxtfTTIvtEy8cjU9OSEBJ2sK+vDzr+2uXrlSiG7/ocffzREdzrrg82KLfj6a6GkcWRkpM7a1VdDvy9bhoK7d/Ha668/9i2Rva+kp6dj7erVwtHR8RMm1D+BUauF6vYdyA4dgerGDUiDAmE/MBpiL88Gn77IkirfeuMNLFm2DA4Oj39h0herxrR75vRpbN+2TXjfYAdnmcJ15PBhfLNgAVavXWsy7xvp169j8eLFmDN3Ltq0aWMUmLnEA4m8X4s2aB3kX48chHu2azVq3M7Ng62TK1yd7XF87zbcktkjYcxg8LwGlWyqVamGu5vbE8XBowKBfQhMnznTZATCfz7+WJi+mmZCAuHdd95B8+bNhQFoCpdcLn8gENi3RF0knhnC71VMICQlYeGiRYboTmd9GMthTU/r0O9Ll6KgoOCJAoG1wWYSmE8sgbHq/7d3HlBVHVsf/99C772jgKAIKipix4YVG9ZYEhONSYxppn9pz5fkJS89JqZoYiyJLXbFil2wgqjYAAHpRXq7/Z5vzUGNPE30wuUW2GetrGW458zs+e055/zPzJ49NTV4/Ikn4OPrq/Ez5t5B1uZmbmQC4a033sCqNWuMRiCcPXOGFwjsueHt4/Oo7tHreceOHsWSJUuwfsMGo9m/I40JhOXLDUsgrFn5G9cuqAcG9O2msUC4twdwahUuXzgPM0dPBLX3euTOcWcEgQTCIyNr8okkEJqMTqMLSSBohKvJJz9MINwpuK6uDvv37cP58+cxZMgQhPfqpbeYFhIITXa3RheSQNAI19+eLIjdG8d1794DHhoGKWqnekCpVGLn9u0wMTXFmOhojdW9tuzQtJzVq1bB3cMDI0eO1PRSvZ2/fNkyuLm6YkJMjN5s0KRiJh5jY2NhamLCD3vzgWdGcMTFxSE5KQlvvv22EVj7l4nGNoLA4lNYECubfnrYlz3LmZCSkgIWt+Di6orBQ4bAz89P588btn3190uW4IPFi40mBuHq1at8DAKLXTKaGIQLF7B+3Tp8/J//GM1zIzcnBzt27MDEmBiDmcoRqNVq7mE3V0s+5djwXXlZGR8A5Ojo+NAbvSVt0aTsoqIi/gY3plUMzGb2kjWkZTT/xJzvG+XlfJ9gEdT67Kea9A320qquqeGnc4zpMDaBwPoGe/G7uDx6fhU2JXH0yBF+06e+ffuiV0SETiPGmehlwWjt2rc3mlUMbEUA2yyLPTeMRaSzUSMWn9Lez89onhss5orFATk7OxvMdGqTVzEY04OPbCUCRODhBIxNIDy8RQ8+g73wLl26xE87sGCwiRMnwtLKqqnF0XVEoNUSECReuMx17BAAKytzjfIgtFoi1DAi0EYJtBWBwNzLRqcKCwvx6/LlkEilePGll+Dh4WE0X5tttItSs3VMQPDFZ59x3XpHYVhkj2YFKerYbqqOCBABLRNoSwLhDjo2msAi9JPPn8eo0aP5DJLWNjbNFwpqDixwm89AaSQJkbTcnai4VkBAIJXUc0oVYGllQSMIrcCh1AQi0FQCbVEgMFYsm+v5pCSwyHc3d3c+sRJb79+kTIccB1VZGWTX06AqLYXIyQmmnYIgdnY2+MRTTe03dF3rJUAxCK3Xt9QyIqARgbYqEHiRoFIhNy8Px48fR1FBAb99dI+ePTUWCcqiElRv/BPSYyegrqqG0M4WFpEDYD19Ckw8PDTyB51MBPRNgASCvj1A9RMBAyHQlgUCcwGLS6ipqcHFCxewc8cOdAsLw+QpUx55OSKnVKI2di+qf/kN6vLyu14V2trCduFzsB49AgIjWaprIF2SzNAzAcFbb77FicVmCO0RgRHDB8PRlqJ59ewTqp4I6IVAWxcId6CzpZNsj4cff/gBcoUCL7zwwiNtXqWuq0PlD8tQt30nv1HUvYfVlBjYP/s0hEaSXlkvHZAqNTgCgq8++4zz8gvCrYKb8A8JR9TgvjAVG8eGSQZHkwwiAkZMgARCY+exdelbNm/GxYsXMWXKFHTp2vUfcybwAuHHZajb9gCBMDkG9s+RQDDi26NNmi64dOYodyWnDoGeNsgtl2H4sEhYWZi2SRjUaCLQlgmQQLjf+2x7ZrYXAUuu1DE4GJGRkXxipgcFMP41xbAC6vKKu4UJbG1h9/yzsB4zkqYY2vINZoRtFyxdsoQL7tkfdiIpyiXAwP69YW56/66LRtg2MpkIEAENCJBAeDAstsohMzMTBw8eRG11NYYOG4bQLl0emO1OWVSMmo2bIDl8DOqaarD4A/PBkbChIEUNeiKdaigEBGcSL3LBwUGQ11VDLRDDyckBQoHAUOwjO4gAEdARARII/wy6srKSH01ITExE586d+ZUO96Va5zgoy8qhSEvnlzkK2TLHoECInRwpH4KO+jFVoz0Cgi8+/5rrPTAK/XuHkjDQHlcqiQgYHQESCA93Gdtcjo0m7Ni2DWbm5pg2ffqDAxjVanBqNSVKejhSOsOACQgO7I/j2gV0Qgd/b8qkaMCOItOIQEsTIIHw6IQrysuxZcsWpKamYv4zzyAgIEDnO0M+urV0JhFoGgFBdXU1Z2pqDjMz49hKt2nNpKuIABF4GAESCA8j1Ph3tsoh/sQJ7I6NxaDBg9F/wAB+x0Nj2XVUs9bS2W2RgGDNmj+4kG4RCOsSSCMIbbEHUJuJwG0CJBA07wosgJFtHb1r505+K2SWprljx45Gsy2y5i2mK9oSAUH8iQTOy9cf7XzcQbGJbcn11FYi0JgACYSm94jy8nIkxMfjypUr/IZPTCiYm5s3vUC6kggYAAHBgQNxXDv/jgj09yGBYAAOIROIgL4IkEBoOnmWpplNOaSlpmL79u1wsLfHk3PnwsbGpumF0pVEQM8EBE8+/iQ3fd6LGEHbPevZFVQ9EdAvARIIzefPhEJdXR1+WbYMKZcu4e1330WHDh003vSp+ZZQCUSg+QQEScf3cxllAkyaEAURzTE0nyiVQASMlAAJBO05ju3ncPToURzYt48PYOzbrx/s7e0pgFF7iKkkHRAQ/PrDd5ydTwhioodAJKQESTpgTlUQAYMkQAJBu25hAYzXr13Dgf37YWNrywsFthySVjlolzOV1nIEBNt27OYi+vSFp6tDy9VCJRMBImDwBEggaN9FTCSUFBfj+PHjyMzIQETv3ujXvz8FMGofNZXYAgQEcoWCE4vFoLGDFqBLRRIBIyLQpgUCx4Ft0Mw/B1tgqrW+vh5Xr17Fju3b4e3tjUmTJ8PZ2ZlGE4zo/miLpgouXrjIubh7w93VsSXui7bIlNpMBIySQJsUCBwHVW0tJEdPQJGVBbG3NywG9oPY2VnrQoEFMLL9HDauX4/8ggLMnj0bgUFBFMBolHdL2zBa8P57/+IGDBuHqEE9KVFS2/A5tZIIPJBAWxQIqrIylH/xDaQnEgC1GhCJYNYnAo5vvgqxq2uL9BSJRIKDcXE4c/o0okaMQEREBCwtLVukLiqUCDSHgKC8tIRTCUzh5GhH0wzNIUnXEgEjJ9DWBALbTKlmyzZUffcjoFT+5T2BAHYvL4TNtCktNgWgUChw6eJFPoDR08sLg4cM4aceRCKRkfciMr81ERBkXkvm0gsliBrcl0YQWpNnqS1EQEMCbU4gyOUo/+Jr1O/eB3AsAuGvwzxyAJw//ahhN8YWOtiUQ0F+PuLi4lBcXMwHL4aHh8PCwqKFaqRiiYBmBASZV89zpy7mYuq0cTChZY6a0aOziUArItDmBIJCgfKvv0P9jl33CQSLkVFw+uDdFhUId7oOC2A8f/48Ek6cgJe3N6LHjoWDA60qa0W3ltE2RfD5h//iQiPHYlRkzxYbTjNaOmQ4EWhDBNqcQOA41B+PR/m/PgJksr88bWICp/8shsWA/jp7JrLESvn5+di2dSuqq6vxzLPPwtXVVWf1t6FuTk3VgIBg96EELiqyD0zFmg+lKWRSVNfUQmxqDhtry0bRuHU11aiTSHlTzC2sYG1tRVMYGjiGTiUCuibQ1gQC48spFKjeuBm16zeCk0ghsDCH1aQJsJ01A0I9bLbE9nPYvm0b9uzejUWvvYaQkBDaGVLXNwLVd5eAIOl8Mufu4QMPN7aP+aOTUcrqsXXDWqSk58LazhEjo8ejW7A/XwabW9v02/fYd/IaX27YgOGYOHIgTESai5BHt4jOJAJEoDkE2qJA4EUCx0GRkwNlYRG/vFHs6wOhqWlzUDbrWmZPUlIS1v7+O3pFRPABjG5ubhTA2CyqdHFTCAjefvMtbtDoqRih4TLHvNRk/LguDq+/thDXEk8gLb8Gjz02CRYmIv6Gi924Giq7IIwf1Y9GDpriGbqGCOiYQFsVCDrG/EjVsWdoUVERdu3cCZlUygcwhnbpAjMzs0e6nk4iAtogIIg/tJcrk1kgetQgiDQYQThzcAcSMmR4ef4U3Lh6AUfjkxDz2Gy42lvwAmH7H8uRVqzGgP490Sk4GI72NrSMUhseozKIQAsRIIHQQmCbWCx7jrJ4hLNnzuDChQv8rpDDR4yAtbV1E0uky4iAZgQEG1cv51TW7TEt5m92c+S3L62FXK7gU5Gyg202curgDmTVOWHBnLHITL2Mg4cTMG7KTHi52vIRwclnTiA1qxAFOZmw8w7G7KljYWYq1sw6OpsIEIEWI5CYmIhjR4+CzXuzQyqR4MqVK3jplVcQGRlJAXItRl6zguVyOTIzM7EnNhZ19fV48qmn+JwJtOmTZhzpbM0JCL78bjk3a9Z0uDvaPvBqlVyC2M1/IvFKOtS31wqLTS1ha6qE2KUrXnx6IjKuX8KhY6cxYeoseDjdVre3c5tnX0/GsvX78fqrL8LJnpSv5i6iK4hAyxBISkzkM/rdEQgsw19qaipeXrSIBELLIG9Wqcw/27dvx5FDhzD36afRq1cviktoFlG6+GEEBIVFxZytrS0sLcz/5lwOMqkMSpWKnzq4M4KQfeUcNh29jjdfegqpF88i6fJNTHlsKkyF4HcqU6uUfC7z7NQLWLnpMBa9sgCOdiQQHuYQ+p0I6IsATTHoi/yj18t2h0w8dw47d+5Et27dMGTIEDjRpk+PDpDO1IiA4KeflnFhvQYiokewRsGEkqoS/PTzagR0DkVVaSE8/EPRxd8JiVdyMWp4JDKvX0J2wS1kp6dC5OCDGZPGwNzMRCPj6GQiQAR0R4AEgu5YP7QmNgKrUPD7SwpMxI02jmIiISsrC/v27gVLFz0sKgpBHTvSaMJDodIJmhIQpKSkcM6unnBjuzlqcjXHITcrFRdTUmHr7I6wbl1w/exRXCxQYO6s8chOu4KrqZkws7RFl25d4ebsQHNmmvClc4mAjgmQQNAx8L+pTl0vgSThJOTXrkMgNoFplxCY9+gOodVfGzqx0dyKigqcOH4cly5dQteuXXmhQAGMhuHD1mKFoKysjDOzsOSnGDQSCDwBDmqVGhAKIeBUSD5zCgJbD3QP6cBPR9ydkmC/txZi1A4i0EoJkEDQv2M5uRw1m7aidtNWqEpL+VTPQnc32DwxC1bDh0H4P8scWQBjeno69u7ZwyeqmzZ9Ory8vOhjTP+ubBUWCOY+NZ8bHTMbMWMjNVrm+KDWK5VKvkOLWnCDk1ZBnRpBBAyQAAkE/TtFdu06Kj77CorUtL+MEQhg2r0bHN99GyaeHvcZyT7EaqqrsWvXLn6HyBmzZqFLly405aB/dxq9BYKM9DTOxMIO3p4s77fRt4caQASIQBMJtFqBoObAqVX8PD6/O6MBP+jqDh9F5bffQ32rtJEXhS4ucP70Q5iFdP5b77LRhIT4eD5N8+ChQzFo0CBYWVnRaEIT7we6DBB89ulnXK+BIzCofxgoETJ1CSLQdgm0RoGgrq2FLDUdypwcQCyGaWAHmAb4Q2BimAHTklOnUfHVEqjyCxp1RHE7Hzh9tJi3/58OFsCYlpbGb/pkZ2eHYcOGwc/fH6Z6TB3ddu8o42+5IDM7l/Nwd4O5qWHeMMaPmFpABIyDQGsTCJxMhto9+1G7aTOUBYX8igCTAD/YznsKln17G+RIAtsPomLJUkjjTwIqFd9xBKamsBg1AvbPzYfIwf6hnelOAOOBAweQm52N7j16IKJ3b7Dl7HQQAU0ICLg7kYSaXEXnEgEi0OoItDaBIM/OQdn7i6G8kclnd2142wpg1rcPnN57+5Fetjp3sloNacpl1Kz7E4pr1/hRD7OwbrCeOgmmQYEQiESPbBJLgJVy6RLiT5yAja0txo4bx2/6RAcReFQCApVKxbHoVzqIABFo2wRam0CQnD6L0nfeB25vO3/Hu2Ifbzgufg9mnYMN0+FqNVQVlVCyVQwCAUQuzhDa2mokDu40TKVSobi4mI9LyMrMxFNz5yKgQweKSzBMzxucVYIvv/2RGxM9Dp0CWG5vg7OPDCICREBHBFqdQDibiLK33wMnkTQiyLZzdvr3+zDt1FFHZPVfjUKhwJEjR7B65Uo8/sQT/BbSLOMtHUTgnwgIjsTt4ywdfRHeXbNMioSVCBCB1kWgtQkEZUERyv79EeSXrwDq21MMQiEshgyG49uvQ2ht1boc+JDWsNnkjBs3sG7tWrh7eGDEyJH8pk9iMW2i16Y6ggaNFajVbA0QIBDS8IEG3OhUItDqCLQ2gcBSFdefSOCTDilzcsFyyZt24Q+pkgAAIABJREFUDILNU0/AnE0vtMEhUyYSbt26xW/SVVRUhIiICPSKiIDZ/yRg0lbn5pRKfrqEBVyK7O0hMDfTVtFUjg4IUJCiDiBTFUTAGAi0NoHAmKtlMiiyc6DMy4dAJIRJQADEnh4N+RDa6MFEQl1dHZLPn8fJkyfh6uqKSZMmwc7+4SskNEGmlkhQu30nZBcvAUoVxP5+sJkcA5GrC8VAaAJSj+eSQNAjfKqaCBgSgdYoEHi+d1YwsH+3wVGDv+tjLPNtYWEhH8CYmZGBufPmITAggOfFCyiRqMkvciZCqtasRe0f68HV1fEmsOWaZpED4PTOmxBS/IMh3fp/awsJBKNwExlJBFqeQKsVCC2P7m9r4FQqqOvrwfZYEFpa8UPsbGWCIR1spcPxI0dw7LeVmGFpC+uiYojbt4PtM3NhHhrSpNEWZWkZiuc9C3XJrcZNNTWF85KvYBHW1ZAQkC1/Q4AEAnUNIkAEeAIkELTbEVQ1tajbGYvaLdv4jZdMOgTA9pl5sAjvCYGBBQbKc3JR+t5iqNJv3IUgsLeD08eLYdGju8YjL/LMLJQ88zy4uvr7oDp+9AGsooZpFzaV1iIESCC0CFYqlAgYHwESCFr0Gcehds8+fl8FrrZhiJ0dQmdnOH/xCcwMbIll1YY/Ub3057vZG3ljBQJYjBkFpzdf5acHNDlYDoeSBS9BlZff6DKBhQWcv/4M5mHdNCmOztUTARIIegJP1RIBQyNAAkF7HmFTCrfe+QCyhFONCxUIYPv0U7CbO0d7lWmhpPKvv0Pdpi33laQKCYbNB+/A0cdHo6kRNrVSvW4jan5fC66mtqFcUxNYRA2D46svQWjVtpaYasFFeimCBIJesFOlRMDwCJBA0J5P1FIpSl5+DYpLl+8r1GraZDguekl7lWmhpOr1f6Lqh/tHELJ9vXC+ZxhGjhuHwMBACDVI9ayurkZd3CFIT53hYzBMu3aB1ZiRMPH01ILFVIQuCJBA0AVlqoMIGAEBEgjacxKnVqP8s69QvzP2vhEE+/97EzbjxmivMi2UJM/NQ/k7H0BxI+NuaQIbG5i//ToSqiv55ZDjx49H3379oElqfpYHgS13ZCsj2MoFgYkp2zOLDiMhQALBSBxFZhKBliZAAkG7hGXpN1D+4X+gys4FEwwCsQgmYd3g8vFiCK2ttVtZc0vjN4m6gup1G6C8kQGRhztsZs2ARUQ4lGo1LiQnY926degVHo6x48fDxsZGoymH5ppH1+uHAAkE/XCnWomAwREggaBdl7B5eOmFi6jdvQdcnYQPTLSaOB5iezuNVwVo17K/KY3joJbKwMllEJiYgAUU3lmSyfIaFBQU8Gma1SoVxkRHI6hjxxbLwKiT9lIlDyVAAuGhiOgEItA2CJBA0KKfOQ5sqV/9ocNQZOdCZGsDi4EDYN63t1F/edfX1+PIwYO4fOUKgkNCMGjQINjZ2WkRHBVlSARIIBiSN8gWIqBHAiQQtAdfWVyCsk8+g/zCJUCh4PeBEHt7w+G9t/nkQ0Z3cBwUefmoP3YCsuJiZNXX45Ssnl+2OXX6dLi7uxu18DE6f+jIYBIIOgJN1RABQydAAkE7HmLD8TWbt6FqyfeASt2oUPPBA+H8yUdG9zKVZ2Sg8vufIE+5DCiU4ExNIesWijPtvHHy2jU8NXcuevTsqVEAo3ZoUyktSYAEQkvSpbKJgBERIIGgHWex2AOWV6B+6/b7ChR5ecJ9/RoITUy0U5kOSuGkMlStWoPajZvBSaV3axSYmYKtyEhztMf3S5di2PDhmDBhAqytrY1OAOkAo1FWQQLBKN1GRhMB7RMggaAdpmzFQvUfG1D98/LGG0WxXEHhPeD63ddG9QJVlZejYslSSA4eAdSNR0RsnpgF26fmoKisFBs2bIDYxAQjR4yAf0AATIxIBGnH862vFBIIrc+n1CIi0CQCJBCahO2BF8kyMlG++CMoM7L+EgkiERw+eBfWI4xrHwJVVRUqv/8R9fvi7kvFzLJC2s6ewadirigvx5EjR5CZmYmwsDD06duXH02gw3gJkEAwXt+R5URAqwRIIGgPJ59qeNMWVP+4vCFIkR0iEZ9mmX+hGthmTf/Uck6hQO3OWFT/ugrqysq7p4rc3ODw9muwiOgFsO2hAUgkElxOSUF8fDw/gsCmHLw1TNOsPS/cUxLHgeO3l6AsTZrwJYGgCS06lwi0YgIkELTnXPZS5TMp7t0HqNmrqeEQ2tnB+ev/wqxzZ+1VpoOS2PbNNZu2on73XnB1dRC6usA6ZgKso0dDaNN4lIBtH11SUsKPJly9fBnjJkxAz549IdaHKOI4sBEQaVIylPkFEPt4waJXLwitLA0zF4UOfKlJFSQQNKFF5xKBVkyABIL2nKusqEDJMwvv282Q7ZBo9/JC2E6fqr3KdFQS209BUVQEdUUVRC7OELs48wmV/u5QKpVISkrChnXrMDAyEqPHjIGFhYWOrG2oRlVZicqlP0Fy6Ag4uQIQi2ExdBAcXn4RIpawio5/JEACgToIESACPAESCNrrCKrKKhQ/uxCqnNzGhTKB8OpLsJ0ySXuVaVgSm/7g2P4ILP2zmVnDVs4tNPSuVqv5mIQN69fD0dERE2Ni+JwJmuznoGHzGp1eu3c/Kj75HFAq7/6dZYi0W/gMrGMmQnB7aqQ5dbTma0kgtGbvUtuIgAYESCBoAOshp7Iphopvv0fdjthGgX1CR0c4f/VfPu2yPg42CiBJOAXpuUSo6+phEhgAy8GDYOLt1WLmsLwQ5eXl2LVrF3JzcjBo8GB+ysFKB1s+s2RV9bv2NG6bSATLMSPh8OrL/AZSdPw9gWYJBE6txPUrl+Hg6Q93J9tGtSgVcuTnZqOqXgG/9u1hbW1Jm3hRTyQCBkyABIJ2nSPPuomqX1dClpgETiKF2MsL1tMnw3rsGP0EKXIcag8eRvXSn6C6VcqvrhCYm8F8UCQcXnsZIhsb7QL4n9JkMhkSExOREB8PNzc3RA0fDg8PjxYdTSj775eo37HrfoEQPQoOi14igfAQjzdZIDBxcOrgbqzdshsx815FVESne6ricOPKBew7dIKPGnX3D8XYkZEwE4tatANS4USACDSdAAmEprN74JVqNVjKZUV2DjiZjJ+3Nw3s8I/z9lq2oFFxapmMn/ZQpqY3+jtLeOT4349h2ad3S1bPl81GE/Ly8nDk8GEU5Ofzmz6FhIZCJGqZd0PdocMo/+i/gEx2t20CKyvYvbgA1uOiaYqhpQSCvLYUq9fGojz3IkJGzsXYgV3uVsWpVdi5YRXUjh0R3sEBv285iOeemwdHO1oT2+J3IFVABJpIgARCE8E97DLu9iqGFprnf1j1d35X19aiIDoGbJrhfw/7NxbBZtLERy2qWecxkcCWQ55MSMDu2FiMGj0aw6KieJGg7WWIqqpqVK1cjfpdu8EyQrJ4C6sJY2E376n7Vl80q1Gt9OImjyAAHFgAyoov3odHvxmNBIJaIcFPX3+DiLEzEdbeFv/57Ac88fwC+Ls7t1KM1CwiYPwESCAYvw//qQVqiQRFT8yFKq+g8WlCIRw/XgyrIYN0CoAJhfT0dPywdCkCg4IwdepUODs7a300QS2VQpaaDlV+PsQ+3jDrHAxBC41Y6BSgDip7qEDgODWqKipQJ7knB7dACDt7e1hamuPXz969TyCopDX4+stvMXL6XIT42uKTD79CzDMLENrOTQdNoiqIABF4FAJsTlgqkfDDvuxggWTLfv4Z0ePGYeDAgVr/mnsUm+icliPAUkDXbNqCmhWrwUYTWAwCTExg2q0LnBa/B7GTU8tV/g8lV1ZW8kshyysqEBUVhdDQUFjqIIBRL401skofKhDUSjmSz5xGRn7R3QeJSGyGsJ7h8G/niRWfv3e/QJDXY+lX32JAzCx09bXDp59+h8eeW4AgLxcjw0PmEoHWSYCJgqTERBw/dgxMKLCDDfteuXIFL7/yCr9uXdvDva2TpHG1Sl1bh5rtOyFLOs9vvCT29YX1+GiYheg3cZNcLkdCQgLOJybCt107DB48GC6ursYFtxVa+1CBwEYQqisrUS/5K8iDpdW0tbODpYVZoxEEplAVShVYLOKfK5fDsVM/9OrgiKUrNuGZBc/AzbHxSodWyJOaRASMhkDGjRt8WlzF7VTAtbW1OHr0KObOm0cCwWi8qLmhbMhdVVoKthRTZGcPob2dQQTrscRKLGcCE62VFRV8BsbAwMAWXeWgOb22dcVDBcI/4+Dwyz1TDEXZqTh8Jg1TJ0cj5cxR7D96DlbmJjBzaocnHhsPCzPj2eK0bXUDam1bJMBGEVha3DtHWVkZvluyBCNHjaIphrbYIQygzaxPVlVV4dTJk9i1YwfGTpjATzuYsmROdOicQLMFQvKpY7D27oxAbxecPbIHyQUKzJ81EUq5BNcup6CkUoruPcLg7ECjBzr3LlVIBDQgQEGKGsCiU1uUAAuAz8nJwdLvvkN7Pz/Mmj0b9vb2NO3VotTvL7yZAuGvAllehISjhyB2bIc+YffmRNBxi6g6IkAEmkSABEKTsNFFLUSAjSawPrl1yxZ+VGH06NHoFBzM7xJJh24IaE0gsGWPKqWKn8vSVZ5t3SCiWohA2yBAAqFt+NnYWsliY1hcwsULF9A5NJQPYLSzo42WdOFHLQoEXZhLdRABItBSBEggtBRZKre5BFgA4/Xr13H40CHIZTKMnzgRHTp0oI/R5oJ9yPUkEFoYMBVPBIyFAAkEY/FU27STD2CsrMSJEydw5vRpDB02DP0HDICZmVnbBKKDVpNA0AFkqoIIGAMBEgjG4CWyka28uXrlCn7//Xc+qdLkKVN0sjNkWyRPAqEtep3aTAQeQIAEAnULYyHARhMKCgqwbu1afqnutOnT4e3tTcshtexAEghaBkrFEQFjJUACwVg913btrqmpwYH9+5Fy6RL69OuHiIgIODg40HJILXUJEghaAknFEAFjJ0ACwdg92DbtZwGMly9fxonjx2FpacmvcmC5E1pqC+m2RJkEQlvyNrWVCPwDARII1D2MlQBLrFRUVIT4EyeQkZGBIUOGoFdEBImEZjqUBEIzAdLlRKC1ECCB0Fo82TbbweISpFIpkpOTsfnPP9EjPBxTpkzhVznQxmNN6xMkEJrGja4iAq2OAAmEVufSNtkgJhSKi4vx3bffwszUFHPnz4enpyeNJjShN5BAaAI0uoQItEYCJBBao1fbbpvYNuY7d+zg4xNYzoSePXvC2tq67QJpQstJIDQBGl1CBFojARIIrdGrbbtNcrmcn3I4mZCAXr16oW+/fjSSoEGXIIGgASw6lQi0ZgIkEFqzd9tu21gAI8uZoFIq4ePrS+mZNegKJBA0gEWnEoHWTIAEQmv2LrWNCGhOgASC5szoCiLQKgmQQGiVbqVGEYEmEyCB0GR0dCERaF0ESCC0Ln9Sa4hAcwmQQGguQbqeCLQSAiQQWokjqRlEQEsESCBoCSQVQwSMnQAJBGP3INlPBLRLgASCdnlSaUTAaAmQQDBa15HhRKBFCJBAaBGsVCgRMD4CJBCMz2dkMRFoSQIkEFqSLpVNBIyIAAkEI3IWmUoEdECABIIOIFMVRMAYCJBAMAYvkY1EQHcESCDojjXVRAQMmgAJBIN2DxlHBHROgASCzpFThUTAMAmQQDBMv5BVREBfBEgg6Is81UsEDIwACQQDcwiZQwT0TIAEgp4dQNUTAUMhQALBUDxBdhABwyBAAsEw/EBWEAG9EyCBoHcXkAFEwKAIkEAwKHeQMURAfwRIIOiPPdVMBAyRAAkEQ/QK2UQE9ECABIIeoFOVRMCACZBAMGDnkGlEQJcESCDokjbVRQQMn4AWBAIHQPDAlnIc+w0QCB78u+HjIQuJQNshQAKh7fiaWkoEHoVAkwUCx6lRcDMdK1esxMBJ8zCoR+Dd+pgw2Lfld+w7cQHWVhbo1n84YkZFwkQkfBSb6BwiQAT0QIAEgh6gU5VEwIAJNFkgKKU1WLdmLc4nncWw2YswbmCXRgJh5/qVqBF7YuSQcJhbWsLa0hI0kGDAPYFMa/MESCC0+S5AAIhAIwJNFghqpQzZecU4sP4neA2YibH3CYTfUKpywshhfeDi7AQzUxNCTwSIgAETIIFgwM4h04iAHgg8kkBQqVRg0wZ3YgpYzIFIJIRQKMAvn70Lj34z7hMIh3ZtwpmULKiVcoT1G4pRQ/vARCTSQxOpSiJABB6FAAmER6FE5xCBtkPgoQJBJZfi8N7dSEm/CfXtoEORqQWGRI1A1+AArPjivfsEAsMnl8ugVKmQmnwKm+OS8fqiBXCwtWo7ZKmlRMDACchkMigUirtWlpWV4acff8SY6GgMHDiQgosN3H9kHhFoaQIPFQicWoVbxcWorq1Dw5oEQCAUwcXFFbY2Vvj1879GENgIg1qthkgkujvaUJB5BT+uicWri16Ak711S7eHyicCROARCLB7dcf27di5YwfkMhl/Bfubnb09nn/hBYSEhJBAeASOdAoRaM0EHioQ/rnxXKMphuryYqTdLEFYtxAU599EWWUtbly+gJwqYP6T02FlYdaaWVLbiIBRESgsLERWZiY/0scOsUgEP39/uLu7kzgwKk+SsUSgZQg0WyAc2bUJ9kF90b2jNy6dOoL462V4ds5kXLt4Dhev3gAHMXpE9EangHZ8zAIdRIAIEAEiQASIgOETaKZAACR1tRCamsNUJEDC4f2QWbhjWP8eUMhlqJdIIRabwMLCHEIh5UAw/O5AFhIBIkAEiAARaCDQbIFwBySbv6yrrYXQxBSW5jSVQB2MCBABIkAEiIAxE9CaQDBmCGQ7ESACRIAIEAEi0JgACQTqEUSACBABIkAEiMB9BEggUKcgAkSACBABIkAE9CsQWODitcsXcauiBgKhGB1DusLL1eGuUWqVErk3M5FdUIrOoaFwdrA1KJdV3ipCZk4hgkJCYG1u2mAbx6G6shwZmVmwcXRDOx9PmIj1nzGSsczOvIGC4jK4eHjBr51PI7vk0nrcSEtDrUKAkJBgWN1pjx6Jsw3AqsrLkJmZBZXQDJ2CO8LG0vweiziUFObhZm4RvHz94OHqZDArYyR1NcjOzYeLmyecGvVbDjVVFUhPz4CZjROCOrQzoIyiHGqrKnD16jXYOHkiwN8Xpvf0XZm0DjfS0qEWW6BDgB8szG73eT32EVY169uF+XmQqkXwZffbPRlaVUoF8rKzkF9SiaBOwXB2sNGztQ3VS+qqkZWZhbLKOnQMCYGLo909e+ByqKksR/qNTNg6sWeIl0E8Q1gOnJuZ6SgsLoezmyfa+XrDzFR8lyd7hmSkp6NOIUTnkE6wNDOkdPocbqZdRblMiO6hne4u22WxcrfYMySPPUPaw8PV2SCeIWp5HY7Hn4GK42BqYYMuXUJgb3MnsWDDfco/Q2yd0KmDn85s1ukIAnuRrvnlJwhtPeHq7IDuvfshwNv1dofjcCMlCTvjTsLN2RbF5TLMnf8k7K0MI+CRUyuxfd2vOH0pDwtefwPtXe14u1UKGbasXY3CKjkgEGH46GgEd/DV+8ZUUkk99sduR2WtFBmZORg//QmEh/rzNqtVCiQcPoCLabkQKWph6RWKWZNHQKznlSYqpQyH9+9F3q1KFOdkwSMoHI9NHgMzkwbBJa8rw5Kvf4C1sxtEZtYYO3Y0PF0d9f4CUMplOLxnKw6cvooZs55Aj9DAu/6X1lZh3+49KK6sRXlxIQZET8OAHh0NIs+AQlqL31esgNzMDsr6GvToPwx9egRDyHZV4zgkHNyJU5duQgQO3fsNwoDe3fTeR5hd+VlpWLlyNVwCe2DW1HGwvp1fhQnMG5eTse/IaVhZiFEhEWLu3MfhYH2vyNRHd+Fw8Ww8ki5nQF5ThnKZGZ57/mk43rZLpZBg/coV/MsMAiGGDB+J0KD2eu8jClkddu3YgepaKXLzizFiXAwiujX0XfY8TDgSh4vXb7IbE9beXW4/QwxjKbusthxffvIx6qz98fHbC+++UGtK8/HzspWwdnKB2NQKo8aMho+7kz46RaM6ldW5WPj6Fxg0bCCsre3Rt18EXBwa3jHSumrE7duL/FuVKC0sQNS0uegT0k4nNutUIFRVlOLPP/5A31HTENLBo9ENwDZ/2rBmDdw69sSQPt2waumX6DAwBpE9gnQC4mGVlOalY/nv2yCol2DawpcR4G7PX1JZlIklP6/HgpdfROKhPZBZuWPciEiIDWBra7aHBqDGrnUrUW7ui7lTR/E215QVYePmXYgYNAxBHlZY/O9v8Mrif8Hd1uJhGFr0d6bu5XI5TExMkJeWjF/X7sPzi16Bu2ODkr5weAv2XpXilSejsWnDFgR274PePTo3vND0eNRXl+PPtX+gqFaJIVFjEBHGvlgaDMpOu4y4E+cxYvRo1OVdxOajN/D6ovmwuC169Gg28q4n4efN8XjvrYW4lpiA86kFmP7YFFibm0CtkODzj/+D6DkLIbiVhhNXCvD4YzGwbjSio3vr1WoVLp2Nx96D8XDz64gpMeNga9nwEcHE+vZNG2HtGYTBfULxy7ffoPuox9AvLPCer3Xd28yLW7kcQpEI7Evxv//+EGPnvIIewd68MSXZV/Hdim145dWXcO7wPsjMnTF6eORdYawfixsya6rVHAScArs2rEONlRdmTIiCSChEXUUJNm6JRVjv/ghwt8R/PvkOiz5YDA8H/afTZ3afPRSLxKs3cbNUhv8ufg0iloOH43By7wYk5Ajx7GPDsXf3HngGhKBfRFjD73o8FJU38fq/VuKTrxbDUoRG78bcG9dw8NgZDBoxBvL8C1i+Lw1f/WuhTgSkjgVCGf747Vd4dwpHpyA/+Pp4w+L20La0phy/rVyPfsNGIqxzAPZuXo0Ks/aYMX6w3m9upVyKHRvWwsq3E1Ljj2Ds0y/cFQg3ko9g3f7rePuNZ3EpYT8Ss+rw5IyJML9nKE5f/Y5N6VSWl2Hfjm1wCe6DUZE9eVMKbqZi174EjIiOhp+3E77+8B1EPrYI4R099GXqffWmX0jA5v1JeG7hs3CwbngBrPv+Qwj8ozB9ZDh2bt4AkVMARg/tq38xxnEoK87Drt37EdxzACK63RYInBoXz51E8vU8jBs/FqbSQnz47Vq89c5bcNazGGM8zxzciTPZcrw4bzKyrl3C/mPnEDNtOtwdbSCpzMMHH/6EN//1HriKLPy66QieeWYOnO30ny5dpZAj4Wgc//CfOCH6rkCQ1VVg3R+b0LnXQER074ida39CvX1XTI8eCD0//+/2b0n1LXzx2deYseB1BHo3fLmmJOzF9oQcvPnq00g5eRCXcusxNWYMbG4LH33elOwZUlF2C3F798OlQ1dEDQjnv8YLs9Ox+8AJDBo+Cv4etvj034sR/eSr6B7kqU9z+bqrywuxYdNe9AsLwJrdifh08au8AGCjHmuWfAHL0GGYNLgrdu/YCYGtO0YO7d9oak0fDVBUZePFN7/HU88+DjdnZ3h6uMHURMyLmivnz+D0hTRMmDoFFtICzHttCVat/g7mOujULSYQ2JxaaVnl3f0bGHSxqSlSzp1EYVkVCguK0G/4eAzt140XAHWVxVixajOGjBqDLp3a49CO9ciROGDOY6OhqxRL0vo63LpVCoWyIfUsO8wtLVFXlo+4hKuYHBOFDctX3CMQOKTE78KOM2V4e9GTuHL2CI4mF+KZedNgobPtrTncKipETZ20Ub92cfdA9a087Nm1B/mVUjz+5FMI8GmYzslOT8GeQ+cQPX48fD0d8f2nH6D7yLkY0KNhCqLlDzbnWonyikqo1Ld3+BAIYGNrB0dHe6hk9Vj768+w9gvHpDGDbqt7Dj998iY8ImZh/JAQ7Nm2CTJzD4wfNQgmYt30EI5TIe9mDhR3bAYgFJvAy8sT9ZW3sG1HbCOBwM5PPHkcVzJuYcLEsTBXluG9j3/Ga+/9Hzwd9f+iPRz7J9LLLfDsE2ORnXYFsXEJmDB1Orxd7VFTlIb3P/8D//roXaAqF9//tgvPPD8P7o76jwtiXNkUWWaJpJFAkFSVYM3abegxcAjCuwTiwKbfUKDywRPTh0Ok51Emdk+xKZD43RtxOkOCFxbMgYUpmzrjcObAJhy6LMMbr8zmnyGnr5Rg5vQJsLXW74ges63g5g3sjt2LklolJk+bio7+PvzzOufGVew9dBrDx4xFew8bfPHhYkROfhZ9u+nqGfLgpxSLTzl97BBKFZbo5WOKbzbE/yUQlDIs/fwT+A+YjDH9O2HP9h2Qmjli7MhBMGMvYz0eqvpS/LJqC4RCFcqrZRgXMwmdO7SDAGokn45H4tUcTH1sCqwUpZg9fzF+WbcctiYt/9xrMYGQdT0FySmpUN8DvV1gKLp19ueDjI7u3owLhQK88cJs/uaVVJfht1UbMDBqFLoG+2P/1t9xS+iFWTHDdDaCUFaYh3PnL6C2/q+Xrb2DI7JTr8LCPQBdA12xde0mRD/5HMI6tuNfXGnn4rDxcCbeen0+Lp+Kw+m0asydHaOzEQT20DkffxxZRaX3kBag14DBcLIS4WZmJk4cOQLf7pGIHtyLPyc/8xpiD5zCyLFj0d7LCd9+/C76TXoBESENQ54tf6iRlXoNKVfTIL8jxgRCtAsIRGhwIFJOHcKehFQ889zT8HT+64W05psPYN4pGlOGd0fslo3g7P0QHdVPZyMIapUUB3btQa3ir15tYmGDoUMHQ11fcZ9AAKdG8pkEXEzLx7gJ42AmK8LiL1fjzXffhqudZctjfkgNJ/dvw/l8Di/MjQG7X/cdOYOJ06bDw8kWkrJsvP+f5Xj73+8DFTexbH0cnnn2SbjY6z/o7+8EgrS2HGv/2IzQPgP5ufLd65ehyjIYMyYMNogRhPyMK/hm6Uo8/vzL6BrY8KJlx4XjuxB7phhvvjqX7/vJWdWYPikaNlb6jp0AaqsrkZWRgZMJJ+EbGoERkRFRsQJWAAAW90lEQVT8c68gKw274+IxZORo+HnY4bMPF2PErBcRHuyj135ddasAm7fGwjcoBPbqMqzeex6L31kEZ0c7cGoFVnzzGRzDRmNiZAg/gsBZu2JU1EC9jyCwZ4VMroC8vgZ/rl8Plw49ED2sL9hMdUriaZy9lIGJU6fAUlaIp17+Er/9/gMsRS0/LdJiAoF9jdfWSxp1FjNzS1hbWYDBOLRjA5LygdcXzgSnUoFTyrD+9z/QrltfRIaHYu2yb+EWNgLD+4bqrMOxYLOa2jqo1H+9ANQKKQ7u3Yeiylp+Li4lOQWjZzyJ0UP7w8LMBOV5afhx5Q689OoLSDqyF2Wwx6TooTDRWQwCi3CthvSebXsZMBsbO5iaivlhtc2rl6PS0g/zp4+CUqVGbVkRNm/fh/5DhyPQywYf/uszzH/rffg66+6rlgVR1tVL7u76yWw2MzNHWUEm/tgYi9FTZiAsuD0/esRiKViq7tN71uJ0kSUWzhyBLRs3wSekJ/r36qqzGAQmxirLK/hI4zsH29nU3t4OteUljQQCi/1QKpXISb+KI6dTMDp6DORF17A69jzeeH0BrAwg4jvj0in8sfci3nn9GVxPPoUzl7IwZeokPuhPoKrHpx/+F1OfWwRBaRr2n8vEnFmTYcvuXz0f9wsEUygVSj74dvumP+HkF4rIiBCsWvotAgZMwJCIzjr7yPg7NDUVxVix/Df4hw/D6MG9wEJQ+BghgRBFNy7i53VxeO31F5B4ZB8qORtEjxoCCz1PU7K5fHaw+LCta39HvbU3Zk4cwT+/2YjZ5h37Ed4/Eh3crfDxx1/hubfeRztX/Y4wlRZkY+euPaiql0FZXYqkGyV46eUXEREWzE+NHN22BldqnDBv8iDs3hUL53ZBiOzbk4+r0OdxhzUTCBv++B2O/t0xanAEWMfNy7iGI/FJGDZmPLiSy/hi/Rl8/+nrOnnutZhAeBDs+roaHNq/B1XVdUi+cBVjZ8xB3y6+2LllJ3oNG43q7EvYFncOnTt44OLVXLz8+iK42uv3S4u9FGQyOX8z19eUY/XPKxD95HyknTmBdmF9EdreBSt+WIIaWEEmlWLkuInoyUext7y6+6cOzaJ1/9wRBxOBHInJVzFz/kJ0cBIiNu4MJk4ah4T9u3A9vwIWqmpILNvhxfmPwVRHQ/V/Z7e0tgI/f7cERRIT9OgSBAdnVwQHtseZs8no1acvXKzU+Nfiz9G+Y0fUS9WYPGUy/Hzc9Hlf3627qrSokUCoL8/Bmo2HMHlqNPZu24I6lQiFWWmIGDMT0YO66+TmfhgYaV0FvvvyG9h4B6LuVh5Cew+Fk4kEpXIzjBgUgQNb1iAxowwmajlCekVi1NB+OpvO+Sfb/1cg2JgBq5avwLDJM1GReRG7j5yDl4sNUrPL8PJrL8PNXr+BcxwTLutWIS4xDQP7hsPaxhahXbrgxuWLcPBmI5Ne+Ombr6GydIJMIsXQUdHoFdZJ732kqjQfW3buh5BT4fK1DEyYPhsd3Uywef85zJk5CcfYMyS7BGJlNRQ2/nhp/nQdfhg9uIewIFY5e16r1biVdh7fbUrAOy8/joRTSQjt3hN2Igm++OZntAsIgFTOYVxMDDq089C7gJRW5GLN1sMQymuQVVCJWXPmoC73IrLrbTCyfyh2bNmKSqkKBRmpGDhlPkb36/yw21srv+tUICgUclxPSUZmbjH8gzqjU6AfqoqysGpDLOY8PR9ONmZIu3wBKel56DdoEDyd7fX+or2XskImwcWkZHj5+WLjhu0YOykGHXw9UV5ahOTkS3DybI/OHQMagkv0fMgktUg8cxa3KmsRFNIFQX6+uHbmAA6nlOP5p2fw0dTJiYmokAnRv39v2LCvRj2LGrmklh/KzC+8xdOzd3aDj5sdzl1MxagxY/icGXk303HpWgafQ6O9j6feo4/vuJnxTkvPgJO7FzxcnJB6ci+2J5fjzYUzUV1+C4mJybBy8kR4WIhBrHFndrOvlpryEsQnnIKTdwC6dPLHvu1bYePTCcMGhENWX4vziYngTG3QvVsorPS8guHuLcWpkZd9E5USBYI6BEBZU4iPPvsV//fv92ElUiPtagrSsovQq08/eLjo/xnCqZS4cP4crqdl8asCzK2s0alTIBJPnUa3vpHoFhyAyrJiJCVdgJOXH/8M0fecOGMtl9Th3NnTuFVRj8DOIQj080XK8Z04kSHHC/Om8bFCyUmJqJIJMaB/H1hZGEaejDv9pL6sEGev5iLAwxqH4pMwZPgo+Ho6IS8rHZevZyKwcxf4+XoZxDNEJZcg/kQ8qiQKdOkaBh9PZ6z65r/w6j8Jo/qGoKq8hO8fVs5e6BUWojObdSoQHvTOLMxOReKVPIwcMUTvX7CP+k6vLitEfOI19OndC44GMCf7aHZzSDq2D/VW7TEwPPjRLjGAs7LTr+JmcQ169uwOawN7AP0dHvbiTTwaC4ltICJ7djIAio9mAsuLEB9/Gu2CQuDnq/+vqkezGijLuYIDSQWYPjFK71/dj2pzVVkhL3zZy8DNuWHJtOEfHE7u3w64dUG/sA6Gby5vIYfczHRk5t9Cj57hBrEy5FHAqeT12LhhCwaNmQCve+KwHuVabZ6jd4GgUimhUnEw1VnUf/PxsQxjbC5fJBYbzQOJtZotWRIITSDW81SCJh5QKZVgiwbEYrHek09pYjfPWmSiswBKTWz7J2GjVCga+rWe52Q1aQ/LnqhSw6ieIWwoXGWMzxCZjF+5I9JZjJUmPeHB57LpYbVaDbHYxGieIXxOGJkcJmamen3H6F0gNN/9VAIRIAJEgAgQASKgbQIkELRNlMojAkSACBABItAKCJBAaAVOpCYQASJABIgAEdA2ARII2iZK5REBIkAEiAARaAUESCC0AidSE4gAESACRIAIaJsACQRtE6XyiAARIAJEgAi0AgIkEFqBE6kJRIAIEAEiQAS0TYAEgraJUnlE4G8JcGz3VrAE63pOWtmiPrqTV17XmTlZvQ+rk7dNINB7at0WdQAVTgS0RIAEgpZAUjGtm0BtRRGOnLqG0aMGQ1ZXieTzF+DsHYAgPx9Ulxcg9eYt9Oje9R9z0Usq8rD40xV49Z034PY3e4zc2fvD1NSM31ymJQ+lQg41hNpNDc6pEbv2N1TZBmHW+MhHNp9tH3zu/BWYW9mgnX8AOgb6ob6qDCnXb6J79xAkn2Epf2tgZeeAzp1D4Onm3IhPytnjyChVY0B4JxQUFsPG0RXtvNxRlJ+NgpIqdOkaChPI8M0XSzBzwUvwcNDv/gyPDIZOJAJ6JEACQY/wqWrjIVBXmotnX/4QS5YvRU1+OpYv/xUdeg3HrJiRuHJyH87elGLu7EkQCxq+UP/KRMjx+ffZwIG8Kh8ffPIrXvu/N/hNyNjXLvuPiQJ2jkAo5HeFTDh7EQMGD4GVmYgHxP7OqdW3z71nJ0l2Ldt59J76WMY49pUsFIkA9m++gIYvZvZ3/jdWHqfG5cRTUNl4oFtHPz5bm/r27n3/m0WRlclfD/DXsv+/Y9edctnf2G8CcNj1xwpeIMyeMOhunX+1lfFoaMu99ZzYvxV7j19C50BfXLh6E8+/8hLEtblY9edhLFgwGyu+/wHO7YMgkFSguIbD0/PnwtWhYfdRtuPqquW/oN/oiUhNPgOZQo707FIseH4e0i+cBWfliojunfktn0/v34RshTumRkcaxBbQxnMHkKVtkQAJhLbodWqzxgQ4pQRvL1yI6W98AnFlFg4cOAgLj46YM20c9v/5K0Re4ejd2QtXr16DghOhR0QfONtZoLSoAJevXINSaI7unbzw8WfLMCp6BP9y7Na9O5xtLZB87gxKq6Vo7+eH/Bsp2LTjMKLGTUSPkPaorlOhS+cOuHDuLLw6dMatnGuolgL1tTVw9/Tgy5dxpujXrw+ESglSUlJQWSND74EDUVuciYz8CjjY28PV0RZpqamol6sQFBwKS5ECvy//CQobL4wbPx4+jmZIuXwVQnMbdO0aCnubhi9s9vK9fD0NtdVVEFs5o7O/Oy6cT4YMJugcEgJXByucP3sWxeVV8PD2Q0hwB8T9uYYXCI+N6YsbqVeRnVcCb78O6Bjgi5tpV5CamQfv9gHoHNwRJrf3tE84tAtX8yR4LCYKS7/+HsNnPAVXQdldgbD6l1UYPXUWfB3E+P67nzFu9nx06eDF21iRexXL/jyBZ+eMR9zRk+jSJRQ7Nm3E+JlP4caFRIQPHApPFzv+3Kpb2Vi+agcWvPQ8rM30v6maxh2RLiACOiRAAkGHsKkqYybAYc3X/4ZJp+HwtahHdl4RymuUmDZ9HH7/7lsMfuxpOJrIkVdUgvL8TGRWWWDulCHYv2c3lCY2aNfOF0G+Dnjv/c8xePQYVBbchE9wT3R0EWLNrlOIHjkIri4uKM1NxbotBzF55kyYystwOasas6ePwW/ff4eI6Gm4emwzyjhHuFpwyMi7he49u+PGxdMI6jMadupKpOWW8DscBnfrhktHtyP21A1MnDAO7namyC8uh0pai/TMAgwZMQQHNq6B2jkAY4ZH4urZ45Cb2EFaVQrvTt0R2bsbP6qgklZj1erfUVKjQlRUFGpzLyOnWggbUzVMbFwwpE9XJJy7AHOxAFlZOejeZwByko7wAmFoNw/sOXAMPj5euJlXitHD+2LFL39gQFQU2vl4w8+v/V2BEB+3HSeSsxHeLRDnU25g9pNPQFWedVcgrFr2GwaOmQBbrhobtx3AnOcWwt/Tie9Q5/ZtROItGzwV0xe7dh+ArZ0tTp+9gDGjBqOgpA79+3SHmbkFrKwswDbB+WnJEoydsxD+bg2igQ4iQAQeTIAEAvUMIvCIBBIPbsLui9XoE+gAka0bclMvo3tEBNZv2IpX3n4LdmI1bt7MxI1rF7H5aCo+eGkm9h84hvHTZvBfsPKqArz70U945e03kHn+OApqxejoBvy86STeeesl+Hg4ozQnFb/+sRsvvv4KMs4fx9nrZXhy9gQs++pL9JswC9ePbYFt4EB0clRi3+lrmDljCi4c3YqsGkf42Mlxo7AGkydP5Lc5Prb7T1wqFGD+nMkQqRW8bZkZGUhOTEbMU8/iStw2mPr3wKAwP/y45AcMHjcFVTmXkVlrhqdnTuTjKVTSKqxY8Qd8QsIxqFcwlnzyMcJHTYe18haSbpRg+uQJUNVX4kZ6Gs4kXUTXXv0hzbnMC4RA22qcvFSM6FH9sH17LAYN6otflv2OeS8tQo+QDjC7Z4O243s34/dN++Hq5gxze08seO4p1Ben3xUIrP2F1XI4Ojqi/5CRGDYwAia3Nx3bvvIrVDn3xuPRfZGVehWnz12Ab8cQlGdehsjeA1nXLkJo44ZpkyfAwcYMvy79BhFjnkCPjp6P6Hk6jQi0TQIkENqm36nVTSBQmXsZr3+8CkP6d0VY38HISDqGcokCmQV1eHnBTBw/sBdFlTK42Ymw5dhVvPv8Yzh09AxmPvkknGwtwIIUP/jkF7z+7ltIP3cEOZUCjB3RHycOxOLspXT0GzoSnX1tsWb9Xrz4+iLcSDp6WyCMx89ffon+E2fj+oltcA4ejCB7BeLOpeKxaTFIProN6VWOmDKqBw7s2Y0L13Mwa95zqEhLQEaVDWZNGYK4nVtwLbcSge3dcfVSCibOeRbXDjGBEI7+IZ547//ehUdACCxMAJ+gHogZOwQmwgaBsHr1FnQM742enbzwf6+8BBufYNhbmcLB0w89ApywbmscwnuGISc7G13C+0KWe4UXCO7qbGzYm4iQYH/IlMDEqVMgKUhD7P5jaNcpDDETxtzdfvfOFMOMKaOxbtlSePYaiy6uSqze1BCD0DCCMBFdO/rBwtys0WqFAxt/Qp64E56aNPju3yuLs7Fh60F06OAFBcxQlJuN3oOGIsjXFb98/w0GxsxDqJ9rE3oBXUIE2g4BEghtx9fU0mYSUMqqsWj+8/Dp3g9znnwCeReP49c/tqHroImIGRKK3bv3o0vvgbBVleCj5bvxyZvzEBu7D32GjoaflwtMVNX48PPfGgmEUcP6gm39eyX5DNJyyxHZpys2/rkH8xYuQMmNZBxNzMDk8VFY+eNPGP34c0iN3/5ggVDpgJmTBkMqqcPBbetRZReKYJsKXiBMjY7AL8t+Q9/hY+FtJ8SmjZswasY8XD+yHXLnjojq3RlrV/6GXlETEOjrCjNzS1hbW/KBifcKhN5d/LHs6y8Q0Hc0wkP8YGJqioQ9G3Gt2gmPj4/Avj174e4fclcgsBf8saSbmDR5LMxMxLCxskBNnQRFOTcQf/o8RoyfggBvF94rCQd3IjmjAjHjorBr/Sp49IxGmAd3VyDciUEICfC+z4sZSYex/WwxFj33GD8twrZjTziwC3WWPrBUlqKOM0dRdhZ6DhyCQE9b/PjdMsx6/mW42Vk0s0fQ5USgdRMggdC6/Uut0yIB9uJZ9tV/AOdOePLxyajITcV/P1+KSfNfQXgHFxw5eBBVUg7WpiqcuJyPxa/Nx5n4Y8jKL4WDkyv6hQfj93V7MHfB08hOOYOCaiDE3xnnU1JRX1cHd98AdO/cHps3boZTu07o3skHcfvjYOvkipzraYh+fC5uJh2CQ0AE2tsqkZCShejRw3HtTByyqqzQI9gdV66loriwCD0GjYagLA25tVYYGxWOg3ticatWBQcbc+Tl52PkxOmouJGIhMs5iBwyFJKiG0jPLYODkyM6d+2GAB9PPleDWlaDrdv2w79LGLp39seVcwk4fSkDrm4uaN8hCKK6Yuw9fhEdA32QX1CE0O7hUBTeQLV1ewzs4o0DB+IgMreBg7Mrf338ybOoramBmbUDhkUNg4NNw0v63In92Hv4HHx9vVAvVWP85EkQ1hVi297TmDFjPLZt2obIUeMQ6Ot+n0elNSX4/oc/8PSLC+FgZQZJdRnW/7kT46ZMRVluGs6dT4GMM8HoMSOhKsvEjhNpeG7ejH9ckqrFbkNFEQGjJUACwWhdR4brmgBbIliUlw2VyBJenq5QyiTIyMyGh2972Fqaoqq8DLfKKmBja4eq2noE+reHtL4WRUVFUEIMH09XFBaVwtvXG5KaKn7Y3cpchPyCQkBoAg9PD1iZm6KoMB/V9Uq08/VCWUkRpAoOYnBwcPeAtLoMJhZ2sBBzqKiVwNXFGbUVpahXimBtLkRRUQmEphZo5+uN+upySJQiuLk4oK66EvmFxTC3tIaJWAA7RxcIVVLk5hXCzskddpYiFBYWQcEJ4O7uDlvrhlUMnFqJ4uJSWNjYws7aEkq5FAUFBZDIVHB2dYWtlRnycnKgEohhYWEBS0tLqGX1UIos4OJog4qyUpSWV8LCygbuLg4oyGfXKuDi5g4nB7u/pgTKSnhbhGJTOLm4wtXZEXJpHYpLK+Hh4YqSomJeZFhZmN3ndo5TYc+m9bANCMeAnp0gqalAenYJuoQEQS6pQ25OLoTm1jz/TSt+hF//8ejXNUDX3YfqIwJGR4AEgtG5jAwmAsZN4HYywwe86FmmhaZlmSwrzkdxpRTBQezFr4aaA0RCYYPIuZ3fgVPJEZ9wDhH9+sLcpCHHBB1EgAj8PQESCNQ7iAARaAUEGtJY/2OqZZYo6nZLH5aSuRUAoSYQgWYTIIHQbIRUABEgAkSACBCB1keABELr8ym1iAgQASJABIhAswmQQGg2QiqACBABIkAEiEDrI0ACofX5lFpEBIgAESACRKDZBEggNBshFUAEiAARIAJEoPURIIHQ+nxKLSICRIAIEAEi0GwCJBCajZAKIAJEgAgQASLQ+giQQGh9PqUWEQEiQASIABFoNgESCM1GSAUQASJABIgAEWh9BEggtD6fUouIABEgAkSACDSbwP8DCvAv8MeHC2UAAAAASUVORK5CYII=;" parent="1" vertex="1">
          <mxGeometry x="-560" y="113.25" width="155.61" height="118.5" as="geometry" />
        </mxCell>
        <mxCell id="tDVTQqPS8ryEu18_ABAF-176" value="" style="shape=image;verticalLabelPosition=bottom;labelBackgroundColor=default;verticalAlign=top;aspect=fixed;imageAspect=0;image=data:image/png,iVBORw0KGgoAAAANSUhEUgAAAggAAAFdCAYAAABmV5W6AAAAAXNSR0IArs4c6QAAIABJREFUeF7snQd0VUW3x3+35aZXCCUhoffeqyAdBAVUFMRPUREQUUEQrKhPsRcQpYhgAZEighTpTekgvYUWAqSQkN5uPW+di9RAkguBXMg+a7G+98ycmb1/M8n935k9e2sURVGQRwgIASEgBISAEBACVxDQiECQ9SAEhIAQEAJCQAhcS0AEgqwJISAEhIAQEAJCIAcBEQiyKISAEBACQkAICAERCLIGhIAQEAJCQAgIgbwJyA5C3oykhRAQAkJACAiBIkdABEKRm3JxWAgIASEgBIRA3gREIOTNSFoIASEgBISAEChyBEQgFLkpF4eFgBAQAkJACORNQARC3oykhRAQAkJACAiBIkdABEKRm3JxWAgIASEgBIRA3gRcRiBYzGYyMrPw8PTE6Ga4ruVmUzbZJoujjUGvy9s7aSEEhIAQEAJCQAjcFAGXEAiKYmfX5nUsXb2NLg/1ol6tSmg1mssOKQoxpyKYN/9PzqdkUb1uQzq0a02Ar9dNOS0vCQEhIASEgBAQArkTcAmBYMpM4aux77MjIp7nBr9Ih9aN0GkvCwRTRgpffvguWd7hNKlZln/+2ULrrj3p0LoxuiuFhMy2EBACQkAICAEhUCAECl0gqMUk929azrR5a/H0MNCqw4NXCwRFIXL/Fka+P5EPvx5HhWAP/vj1JyIS9Qwf8hTubvoCASGdCAEhIASEgBAQApcJFLpASE8+x+cffkT1Vp04sXsLdVt1vUogqMcPaxf+yi/LD/DNuA/xNsDmVYuZs2oXb735GkG+HjKfQkAICAEhIASEQAETKFSBYLdZ+Wf5HyzafIoXnu3F7J9/zikQ7Dbm//gtqw9nM+6T1zBoFPZtXcvEGct46503KV3cr4CRSHdCQAgIASEgBIRAoQqE5LjTjPv6O+575Glqh3rx/eSp1xEIVmZP+pqN0Tq+/mAY6t2Fgzs3MP6HBbw55m3KlAhAPabIysrCarXmmFGDwYCHh+wyyFIXAkJACAgBIeAMgUITCIrdxtolv/P3gXhGvTqIzKQYpky6nkCw8fv0Caw9amHcRyPQaxT2b1vHdz8v5c133iIk2I+zZ88yedIkDh08mMN3fz8/7m/Xjkd790YVC/IIASEgBISAEBACeRMoNIFgMWUw7bvxbD8URWipEpiyMzl29BhBJSsw5JWh1Koc5rBejUFYOX8Gs1cf5Zvx7+Gpg21rljLzr+289fYoivt5kpKSwvx58zh06FAOj3ft2kWpUqWYMnUq7u7ueRORFkJACAgBISAEhACFJhBsVjO7dmzlcMRJbOoRQXoK27fuoHT5WvR/7inCSwWQnpaJh5cXUfu38NZn03nv00+pEOzJwtkzOHxOYfiLz+BhvHCLwW63X3c6333nHSIjI0UgyGIXAkJACAgBIeAEgUITCBd2BxTHP/VJPHeWqVN+oE6LLnRs04iEMxEsXLaRrj0fIcjdyhdjP8DmX47aFUuyfccumnfoTtf7m6G9Il/C9fwe8/bbnDx5UgSCE4tCmgoBISAEhIAQKFSBcCX+1KR4Fi1cTMXaTWhUtxpbl89h1qr9vD3mDYr5uBN98giLlywjISWLKrXq0bZNSwL9vPOcQREIeSKSBkJACAgBISAEchBwGYGgxhqYzRZ0Oj16nYafv/mQaE04r77QD4NOq243YDabsdrsGNzc8l2LQQSCrHohIASEgBAQAs4TcBmBcKXpit3Cr1O+o3S9drRpUpMrqjI47aEIBKeRyQtCQAgIASEgBAovSDFX9oqCxWpBq9Oj02pvaZpEINwSPnlZCAgBISAEiigBl9xBKMi5EIFQkDSlLyEgBISAECgqBEQgFJWZFj+FgBAQAkJACDhBQASCE7CkqRAQAkJACAiBokJABEJRmWnxUwgIASEgBISAEwREIDgBS5oKASEgBISAECgqBEQgFJWZFj+FgBAQAkJACDhBQASCE7CkqRAQAkJACAiBokJABEJRmWnxUwgIASEgBISAEwREIDgBS5oKASEgBISAECgqBEQgFJWZFj+FgBAQAkJACDhBQASCE7CkqRAQAkJACAiBokJABEJRmWnxUwgIASEgBISAEwREIDgBS5oKASEgBISAECgqBEQgFJWZFj+FgBAQAkJACDhBQASCE7CkqRAQAkJACAiBokJABEJRmWnxUwgIASEgBISAEwREIDgBS5oKASEgBISAECgqBEQgFJWZFj+FgBAQAkJACDhBQASCE7CkqRAQAkJACAiBokKgUAWC3W4jIz2d9LR0tHo3/Px9MRqNaK6hb7WYiDuXgN1ud/xEo9UREBCIl6d7nvM05u23OXnyJFOmTsXdPe/2eXYoDYSAEBACQkAIFAEChSoQ4qIimPHrPKJj41G0OqrXaUT3bp0oEeR/FfqE0xG8//F4bGjQa7UYPHx4tM8TNK5bFY3mWjlx9ayJQCgCq1hcFAJCQAgIgQInUKgCIT46kn8PniSkVAnOHD/I/IXL6fJIP7p3bIVep73kbOyx3Qx69UMGDR9JuZJ+aLR6SpQoiZ+vV55ARCDkiUgaCAEhIASEgBDIQaBQBYKiKKDROI4UMtOS+HHSRAiqQP8neuFhNFwlEAaP/ISx4yZQLSzIqWkUgeAULmksBISAEBACQsBBoFAFwqU5UBQS42P48YdpFK9Yj949OmE06K8WCCM+YvT/jaVi6QC8fXwwul0WELnNpQgEWelCQAgIASEgBJwnUOgCIe7MSbb/u48zUZEkZdjo3rMn1SuFo70itsBxxDDsParWqoWHm4EqterRoV1rgvx98vRYBEKeiKSBEBACQkAICAHXO2I4snsTM+ctJfrMGYLDqzFw4DOEhwRfdZMhPekcW/49iK+3B5ERB1m1fgtdez/Jg+1boNVqUI8qrFYrNpsth4MfvP8+UVFRcotBFr8QEAJCQAgIAScIFO4OgqJgVxTHB3v82UgmfTeZKk3a8+hDHXDT6644gVBQwLGrkJWezC/fT+SsOZA3hj/rOIo4fvw4740Zw65du3K4bjaZaNK0qQgEJxaFNBUCQkAICAEhULgC4Qr+psw0Zv34PfFKAIOe6YuPh/G6s2M1ZzF/xg/sO2vn9dcG42k0kJmZycoVKzh67FiOdzasW4e/v78IBFnrQkAICAEhIAScIFCoAsGUna1mPcJg0JMQc5ppkyfjXbYOzzzRCzeNjfOJyfgFBGHQgcWmYDDoSD4X7WhnKF2TIf17Y9Bfvg55Pb8lBsGJ1SBNhYAQEAJCQAj8R6DQBIJit7Fz83r+PXACXx9vTp+I4FRsCn2e6k/T+jWIObaH3/5cR+8nn8bdfI7fl67Hz9uLmNMniYxOcrRrVr+6JEqSpSwEhIAQEAJC4DYQKDyBoNiJPHKAvzdtJTr2HH7FStKgUWNqVa+Mh9GNfxbNYN6G47wzZhQGSwrLl68mMuoMHj6BNGzchNo1qzja5fXIDkJehOTnQkAICAEhIARyEig0gZDrZCh2pn/1PomeVXh5wGNXZVV0dhJFIDhLTNoLARckYLdjN5mxm7LRGtzQuBvR6C4HMrugxWKSELjrCbikQFDsVpbO+43gqk1pWLtijuJNzlAXgeAMLWkrBFyLgGK3Y42OIXPterL+3og9KRmtpwfGRvXx7NAet4oVRCi41pSJNfcQAZcUCCpfi8WMVqdHp809CDGvuRCBkBch+bkQcF0ClugYUr6fRvaGv1Eysy4bajDgVqsm/kMHY6xaxXUdEMuEwF1MwGUFQkExFYFQUCSlHyFwZwmouwcpP84g/ZcZKNmmnINrtXjc35qg999Bc4tfJO6sZzKaELg7CIhAuDvmSawUAkWOgC0tjbhnB2M7ffqGvms83AmeOhG38uWLHB9xWAjcbgIiEG43YelfCAiBmyJgOnacc/0HgDVnCvVLHWo0+L/xGj7dut7UGPKSEBACNyYgAkFWhxAQAi5JwHToMOeeHQRqWfhcHv/XhuPT8yGX9EGMEgJ3MwERCHfz7IntQuAeJqAGKMb1H4CSmnZjL7Vagj7/CM9mTe9hEuKaECgcAiIQCoe7jCoEhEAeBNS8Bwlvv4vp7403bKkLDaHED5PQ+foKTyEgBAqYgAiEAgYq3QkBIVBwBLK27SDx/z7CnpCQo1ONmxt+w1/C56HuBTeg9CQEhMAlAiIQZDEIASHgsgTsJhMZK1eTPnMWtti4CwGLWi1aPz88u3fFp89j6Ly9XNZ+MUwI3M0ERCDczbMntguBIkDAbjZjOXqc7J07sScmofHywli7FsaaNdB6eRYBAuKiECgcAiIQCoe7jCoEhIAzBBQFNXEStgs7CI46DBqNMz1IWyEgBJwkIALBSWDSXAgIASEgBIRAUSAgAqEozLL4KASEgBAQAkLASQIiEJwEJs2FgBAQAkJACBQFAiIQisIsi49CQAgIASEgBJwkIALBSWDSXAgIASEgBIRAUSAgAqEozLL4KASEgBAQAkLASQIiEJwEJs2FgBAQAkJACBQFAiIQisIsi49CQAgIASEgBJwkIALBSWDSXAgIASEgBIRAUSBQqALBbrOSnJxE4vkkdG7uFA8ujpeHx3UTpCmKncSEeFLTswgqXhwfL698JVIb8/bbnDx5kilTp+Lu7l4U5lR8FAJCQAgIASFwywQKVSCcPb6Pbyf9SHRsAopGS/V6Tejb51FCSwZxZRJVVRwc2vk3E6fOJC3LStU6jXiy32OEBAfmCUAEQp6IpIEQEAJCQAgIgRwEClUgJJ07y9HTCZQLD+HUkX1Mnf4rbbr35uEH2mLQ6y4Zm5EcxxsjRlCxZU86Na7ErJm/UqVJex7t1hadNvd87CIQZNULASEgBISAEHCeQKEKBNVcRVHQaDRkpiXz8/eTsPuXo/8TvfAwGi54oygc3LaGd8f/xhfjvyLEz42/fv+V7SfTGTlsIF4X293AdxEIzi8KeUMICAEhIASEgEsIBFUknI89w/QfplOmZlMe7t4et/92ENTjheVzf2Te35F889W7eOhhx7pl/LJoM2++PZpg/9xrwYtAkEUuBISAEBACQsB5AoUrEBSF08cPsmrDFs6ePo2bT3EefqQX5cuUdOwqODYQ7FbmTf2G9SftfP3Rq+iBA9vXMeHHxbw55i1Cg/1z9VoEgvOLQt4QAkJACAgBIVCoAkHdOTi6dyuzF6wg+nQUXsXDGTjoOSqGl7oUpKgKhN8mfs2mGB1ffzAMNTLh4M4NjPvhD94c8w5hJQKw2Wykp6djNptzzOhnn3xCbGys3GKQtS4EhIAQEAJCwAkChSoQLtqpCoWEmFNM+nYSZWq3oE+vLhgN6l6BuoNgY8HPE1m5P51xn43CoIG9W9Yw+dcVvPXOm5Qq5supyEg+/PBD/t25M4frmRkZNGzUSASCE4tCmgoBISAEhIAQcAmBoE5DdmYav06bzHlNMQY90wcfD+OF2VHs/P3XPKYu2Mb48R/jZ9Twz7KFLPj7EG++PpwAHw+ysrLYsuXCMcW1z+LFi3FzcxOBIGtdCAgBISAEhIATBApRICikp6eBRo+XpztnI4/y/aTvKV2jGf97/EF0NjNnouMILhVCyplDjHr3K14Y/Q51ywUx55cfSdYWY/CzfTAaLl+HvJ7fEoPgxGqQpkJACAgBISAE/iNQaAJBPTrYuOYvNmzdi6eXJ7GnT5FpN/LUs89Sr0ZFog5u58c5K3h68IuE+BuYOWUCW4/EUqZUEAnJ6fTq04/m9Wug/S+Y8UYzKgJB1roQEAJCQAgIAecJFJpAUPMbxJ45xY4dOzl56gzBoWVp2LAB4aGl0Ot1rJ3/I4u2n2XMOyPx8zCQmZrCpo0biIpJpHb9xtSsXgl3t/9yJeTitwgE5xeFvCEEhIAQEAJCoPAEQq7s7Uz/4n3Sg2rzwv965pktMbeuRCDIIhcCQkAICAEh4DwBlxQI6tXG9cv/oljFOtSoFHZVXQZnXRSB4CwxaS8EhIAQEAJCAFxSIKgTY7fbHcmSLiZMutnJEoFws+TkPSEgBISAECjKBFxWIBTUpIhAKCiS0o8QEAJCQAgUJQIiEIrSbIuvQkAICAEhIATySUAEQj5BSTMhIASEgBAQAkWJgAiEojTb4qsQEAJCQAgIgXwSEIGQT1DSTAgIASEgBIRAUSIgAqEozbb4KgSEgBC4SEBRUOx21KR16HS3fGNMwN57BEQg3HtzKh4JASEgBHIlYEtMImP1WrJ37ASzGbfKlfHq3gV9SIgIBVk7lwiIQJDFIASEgBAoKgQUBdORCJLHfYt5/wGwWi94rtGgLxuO73P98WzZHI2bW1EhIn7mQkAEgiwPISAEhEARIWCJieX8ex9g2bsPlGuc1mgwVK2C/7ChuNes4RAN8hRtAs4LBPXc6gpmt5rp8Hbjl0RJt5uw9C8EhMBdQUBRSJ03n5RvJoLFcn2T3dzwebIPfv36onF3vyvcEiNvH4F8CwQ19XFmeipnoqI4GxOL2apQrHgJwsLDCArwQ6fTuuTZlQiE27d4pGchIATuHgL2zEwSP/mCrJWrLwQm3uAxNm9K0NtvoPP3u3ucE0tvC4E8BIKCxWImPuYsq5f/xYaN24hPTHFsPWk1Gmx2Ox5e3tSs04BOnTtRo0oF3N3dHD9zlUcEgqvMhNghBIRAYRKwJSdz/v2xmLZsy1UgGGrXpPjY/0MXFFiY5srYLkAgV4GQlZ7MiqVL2LR9N8VKh1O/Xl3KlQ3D19sLrVZDdmYGsdFn2bd3D4cjTlIyrAI9HnmY8JKus7BEILjAKhMThIAQKHQCF3YQPidr5ZrcdxCaNSHoHXUHwb/QbRYDCpdArgIhNTGOzdv3UqZ8BcqHlcHdaLiutTarhYS4WPbu2UNo1XpUKx9SuF5dMboIBJeZCjFECAiBQiSg5jxImz2XlO+mXL69cK09BgPefXrj9/T/0HpIDEIhTpdLDJ2rQFDjDux2Bb1ed5WxdruNxIR4EpNS0Lu5ExwcjJenB4rdhl0hR/vC9FQEQmHSl7GFgBBwJQKWM2c4//Z7WA5H5DRLvepYvhz+w17Co14d0GpdyXSxpRAI5DtI8aJtqjjYtm4ZP81aSEZWFlqdgcq1GjHg2X4UD/ApBBdyH1IEgstNiRgkBIRAYRGw28nef5Ckjz/FGhl11VGDNrg4vs8+jVenDmiNxsKyUMZ1IQJ5BilarTZ0V6ThzEyJ57OPPqPlg32oUb40pswU5s6cTaMuD9O6YXUXcu2CKSIQXG5KxCAhIAQKkYCiKFhPRZG+aAnmfftRzBb05cLxfqg7xpo10Oj1hWidDO1KBHIVCIrNxOZN29B5eFO+XDkCA3wxpScx4avxVGvWlvCSAVhMmaxdsYZmDzxCi7qVXck3EQguNxtikBAQAq5CQLHaULIyHfUYtJ6eaAzXjzFzFXvFjjtPIPcdBLuFHVu3sGf/ISw2KFO2InXq1CDuxAHWb9x54YhBb6B0eEW6d+tMMX85YrjzUygjCgEhIASEgBAoeAJ5xiCoMQdpKcmcPhXJ/n37OHryDGUrVaNxw7q4G3ToDG74+/s7ghSdzqqo5gXPzuR0VBQWDJQND8PDPWcOcFNmGgcOHcFitTkIqHEPZctVoHhQ3ok85Iih4BeN9CgEhIAQEAL3PoE8BcJFBOqNBqvVSlJCLKuWLmbF+m20aN+Fbl06UKKYP7qbiHiNOvwvn3w2nuOnY9FodTRv25WBzz1JcKDvVeRjj+9l4EtvkG22OvIvGL0CeHHYcNq1bJCnKBGBcO8vYvFQCAiBe4OAGh+BzXYheFL9TNG6Zobee4N23l7kKRDUHAcnIw6xc9ceUjNNlChVhvoNG+BrsPHXksXsOxxJ5Vp1admyOeVCS+b5gX2lSXFRR9l9NJZGDepwfN8Wpv40n15PPkP7Vo3QaS9nY4w9tpvBIz9h7LgJVAsLyturK1qIQHAKlzQWAkJACNx5AuoX0HPxZK7fQNbfm7AnJaErUQLPjm1xb9wYXYC/U58td96Be3PEPAXC2WN7+OaH36lfvw5Gg464M6dIVXwZ+sJTGFCIjz3Ltq1byXAL4NGu7a76YM8LmUMtOiqNakg8d5YJ30ygcqO2PPxAOwy6y3dwRSDkRVJ+LgSEgBC4SwkoCuajx0ieNBXTtu0XdhAuPno9nl064dv/SQylSt2lDt69ZucpEHauXcDcTWcZ2v9hh0A4dWQ3Mxf8w7tjx+DrduFD3G6zkWky4eXhedMVQs+dOcnEid/TqF13OrVpmmMHYdCrY3nh1RGElQigZKlS+Pp45avmg+wg3L2LUywXAkLg3idgS04h+btJZC5dfrU4+M91jacn3v364Nv3McnPcIeXQ54CIeHMUca8+xHZdi16nZZsk4k6zTvx0vN90RdUoi3Fzr+b1vLbwjU8+dxAalYO48pyT7HH9/Dy6x9RPDgYc3Y2YZVr8WS/xwgvHZwnLhEIeSKSBkJACAiBwiGgKGTt+Jekz77EdvrMDW1wq1uHwFHDMZQtWzh2FtFR8xQIarBIUkIM27bvJDE1izJlK1CnVnV8vDwKDJnFlMG3n32Exa8iA5/tg6/n1Vm8zFkZxJ5PwcvDncgje/lh2i80aN+Lp3p3Qa/VOoIn4+LiSEtLy2HTdxMmkJyczJSpU3GX+uYFNmfSkRAQAkLgVgmoORjS5y8gZfJUlPSMG3anLRFMwKgReDZrcqtDyvtOEMhVIJizs0hOzcDXzxd3Y87rh1eOY7VaSFUDS9y98fPxzLcJNpuFLasW8vP89QwYOowGNcrnekxhzkrj12lTOJ7izpsjBuLupuf06dN89cUXjmJR1z4JCQnUrlNHBEK+Z0QaCoEiREBRsKWlY4uNxRp3Do27G/qSpdAXL4ZGvlDc9oWg2GyOAlKpU39Eycq6sUAIDLggEFq1UIPWbrtdMsAFArkKhOT4s8xfsBStuze1atYkrEwIvr4+uBn0jjmyWa1kZmQQFxPN4cMHORF5hlade1Kvani++CqKnWP7d/L55xNo0b0PvR/q4MitkNtjyc5gzo9TiUgyMPrV5/Fw02MymThw4ADx587lePW3WbOw2WwiEPI1I9JICBQtAuYTJ0lfuIjsLduwnz8POh36kBA8O3XAq0NbdIGuU7r+npwZdQdhyV+kfDsZe0rKDV3UhYYQOHoE7g3q35MYXNWpXAWCzWrmeMRhdmzfTsSxSGzoCAgIwNvLE40WRzxAclISmSYLwaVCadCgAXXr1sLbI3+FPuLPnmDStxPRFq/KwKd7E+CrBjlqHbkOsjNSiDh2irDyFfE0QIbJhq+3J9GRR5g8aSrhdVvT//HujriI3B6JQXDVpSd2CYHCJWBLSiLx0y8xbd6KYjJdNkajQav+nevTG59HeqKVnYTbN1GKQvbhIySN/QTrsRPXH0ejwdisCYEjhqEvVfL22SI95yCQZwyCehVRPWqIjz/HyePHOHDgIKfPRGOy2ikeXJIq1apRtUolSpUsiY+3l+PDPT+PWhp61cJZfPP9LILLlCXQxws0eu7r2JWO9zcjav8mJs9c5ri5YEg5yScTfsLD3UjS+Xg8AkMZPPh5qlYoc1Uw4/XGFYGQn9mQNkKgaBFQ/66l/jaX1ImTwWK9rvO6MqEU+/A93CpVLFpw7rC39uxsUn6aQfqMWWDNORdaX198hwzE+4EuaHS57zDfYdPv+eHyFAjXEriYu+DK/+50imXURFl2IvbvZseu/Zgu/YLqqFm/IfVrV2XtvB9YsS+Zd98ehhsWDh04wKHDR/EPDqF+/boUC/DL11GUCIR7fg2Lg0LAaQK2tDTOvTgMa8TRG7+r1eL78hD8ej/idP/ygnMEbOnpJI//jqwVq1AslguZFDUaNEYj3v0ex7dfX7RuucfBOTeitM4PAacFQn46veU2io1pX32ArWRDnnm8q1PJl64dWwTCLc+GdCAE7jkClphY4p4diJKUnKtvnj0fJOi1V+85/13RIcVsJnPTZrK3bseemoYuKBDP1i0x1qkjJagLacJcViD8u2UT/qGVKVemRJ7HCLmxE4FQSCtLhhUCLkzA+p9AsOcpEB4i6LXhLuzJvWeaerNB/afR69HcRI2fe49I4XnkmgKhAHmIQChAmNKVELhHCNjT0zk37DUs+w/c2COdDr9hQ/F9uOc94rW4IQScI+CUQFAUG4nx8Rw6eIDT0fG0aNuR0OK+ZGaZ8PDwQJfHjQLnTCuY1iIQCoaj9CIE7iUCaoKetPkLSfn6m+um91V9dQQpjn0ft4oV7iXXxRchkG8C+RYIalDh8YN7+OGHaURGJ5CRksGrH35Ow/L+zPh1Pq27dKdquZB8D3ynGopAuFOkZRwhcHcRsGVkkPjeWLI3b7k6el695ujjg8/T/fDp1cMRKHfV81+RuXxFSd9dSMRaIXAVgXwLBHNWOn/+PpfzZiNdO7Rk1oRxNHlsIK1qh/HT5O8Jb9iWtk1quBxeEQguNyVikBBwDQKKgiXqDGlz5mHatftCoh6tDn2J4ri3ux/vLp3Q+ftfstWemYk1OsaRcRHFjq5YMQwhpdF6e0t2P9eYUbGigAnkWyBkpSXzx+/zKVGxNvc3rcX4d9+hXq9naV69NFO/nUjF5p3o0Kx2AZt3692JQLh1htKDELhnCaipllPTsERGYouJBb0eQ3gY+rAyV1UOtCWcJ33pMrI2/IPtzFnHNTy1PoBH08Z49eiOoXTpexaROFZ0CeRbIFjN2axcvJCdh0/TpnUzVs6eScX7HsDXnsSazfsY+OJQqlcIdTmSIhBcbkrEICHgegTUY4P/7t5fe3SgZllM+XkmGb//4bh+52j336Px9MCjfTsCXh6C1jP/NWhcD4BYJARyEsi3QACFpPgYZs/4mb9WbiAlLQ2dwZ1iJUJ47Mmn6dq+Be5uBpdjLALB5aZEDBICdxUB04GDxI94HSX5BjkTjEYC33kdr7b331V+ibFCIC8C+RYIagZFi9mMI0VpciJno2PQu3tRunRpPIwax4yhAAAgAElEQVQGDAY39HrXS4MpAiGvJSA/FwKuTUAt556amorRaMTTU63Xkr907vn2Sj1mSE8n+9/dZC5dhiU6Bp2/Hx73tcSjVUvSf//jQhrgXB5jqxYUH/u+JPTJN3RpeDcQyLdAsJgy2b51Oz7BIdSsUuHSL6ndamLtqtWUqlRbjhjuhhkXG4XAXUYgPj6eX376Cbui0LlzZypVruwQCwX1WBPOk/bbHDIWLkJJz7jcrV6HW/362NPSsB46nOtw+vAwgqd867gyaYtPcBR/0vj6oi9eHK2HO/asLKzxCdhTUtG4Gx3lpLV+fo4kcOqVS/Vx1BkoaPFTUJCknyJJIF8CIf18NH9v2sG2rVvxCQ6lZtUKaP7Lb2g1Z7F65Vo6Pf4MHZrVcjmIsoPgclMiBgmBfBFQdyuVjEyyzpxhz9atLF23jmiTidYdO9CxY0dKlCyJ9hYz7anpfdXgw9Qp07AnJeW0S/3AVsew2XIXCGVC8R08gOzNW7EcO4GSlYU2MBBjnVqOf6b9BzDv2oPtfCIaD3cMFSvg3riRQ0hYY+PQuLk58i0Ya1Z3XLGURwi4AoF8CYS0uOO8+fbHnD2XgMHdE3+/KxawAt5BpRk8ZBAVQoNdwaerbBCB4HJTIgYJgTwJqN+qzUeOkjZ7LpZjx3FU/DOZ2GfKYqUOvCpU4PE+fWjQqBFut1DEx5qQQOLYzzBt2XpV8GGeBl7TQBsYgMbTE1ts3FU5FTQeHmj9/Rw7B0pm5hW7E3rHf1erFypZ2Q4RovX3x71lM/yefRqdn5+zJkh7IVDgBPIlENTSzOeiT7N48RICylThvqb1LtVHUM8Dje4eeHq4F/zZYAG4KwKhACBKF0LgDhJQdw7UwMDEMf934erhFbcGFA0kly7N4lLF+Ccigh49etD3ySfxVnMR3MRjPnachJFvYIuNvYm3b8MrOp3j2mTAsJektPFtwCtdOkcgXwJB7dJutXD2zBnQG/Hz8Ubh8lUf0ODh6YmbQe/c6HegtQiE60O22+2OgFN1i/ZGQV9qG/Wf2ibnVq6CTS2oornez27PxKrjqZ8VOr0uRwGvi7ZeHFn1SavVyZHu7ZmK29qrLSWF8x98jGnj5ut+q9cY3dA90IUDVSvx8+zZjjTvfZ94gnr16+Pj4+PUFxXT4SMkvPYG9viEG/uklh1Wv+1brCgZGVdfc3R3B0+PC1UhrxAytwJIPYIo9sUnuNereyvdyLtC4JYJ5FsgqIv//Llo1q9dx/FTZzFlm9AbDNjtNrR6Tx7q/RjVyrteshARCNeuEYX0lGQOHthPfFI6YeUqUa1KefTX1NFISohj/74DJKWm4+XjT9UaNSgdHOj442u3WTl57AiHI07g5RdEjZo1KBbgd1s/jO1WM5s2rCPD4kbL1i3xcr8sRtUdrpPHI9h/4AhW64WALx//QBo1bYq/t/st/5JIB3eWQNbmLSR9+uWF7fobPIYa1fF/bTjxHu4s+OMP9u7dS7Vq1RyxCVWqVsVgyN+Va3PkKc6PehNr1OkbjqUxGPB8uIcjY2L2xs3YzsU7MimqxwrGBvWxJSWRvXot2C6svYJ4vPv1IeCFgRK0WBAwpY+bJpBvgWCzmFi7fDFbdkcQWrIYq1du4P6unchOiiMyLp0BgwdSKazkTRtyu14UgXA1WTXh1eqlC/l7+358vD2Ijk3kyeeH0KB6uas+4A/t2szCZesxuhk4cyoSt4AwXnnlBUoEeBF5aBeTps4ksGRpstJSCKtSh14PdcHP2+N2TSNnInbz7vufkK0N4rNxn1Eq4PJY6tpc+scc/lq3jYoVKjh2sgKKlaBj164U9/e6bTZJx7eHQNrc30mZNPXqM/trhtIFBxMw6lXcmzXBZDKxZ/duli9fTkxMDK1ataLrAw/gf0Wa5BtZaktKJunLcWStWQf/3Sa4tq0qBII+fB+3ShWwRJ12BBWqbXXBxTGEhJD662+k/zY3z0BGZ2h5tG1D0PvvyDGDM9CkbYETyLdAyE5P4fe58wgMq0bTGmX4aOx4XnzzDQKMVmbP+p0G93emXtWyBW7grXYoAuFqgknnzjL+62+o2/oBWjaoypyp44jRhPLG8AG4Gy7nscjMSCUtw+RIfnX6yC7e+eBLBr3+Me0bV+CXyd8QmenP0OceJfLQbv5Yup5Hn3yKWlXK5tj6v9X5U9+3W7L4adJ3xGdksX13FOMmjqP0NQJh0bxZHIrO5Ol+vfHxdEer0+Lu7oFWW8B35gvCIekjVwKpM38j9ftpjgj/Gz3qDYHA14Y7chWoylY9Yjp//jybNm5kzuzZ+Pn58dzzz1O7dm30+hsffSo2G5nr1pMyfiK2c+dyDqfROHYPAoYMQqseJzgW5H87BVqt44qiGkiZ8t2Uqws+3eIcu3doS7F330Zzi7c0btEMeb2IE3BKIKi1GILL16RVg0q89+Y7dH/2FRpVLsUvkydTom4burRyvTMzVxUIdpuZnVs34xNcnioVQtFgZ9+O7Sh+JalVKdypc1Rn1vCxvZuYMO0PXnh1JJXLFGf/P3/xydTFfPzFp4QEXT/Qy5way4ABL/DgM6Po0CCUTz78hFaPD6Jzk+okxp3h+8lTqdGiA+WCjKTZjTSsUwPFksXO7f8SXK4a5UOL5TRRUUg8H48FPcWDAtDmcv/75IGdTJu3hh73V+bTiUv46rvrC4Sj8VYGPvsEvl63byfDGdbS9uYIZCxdRvL47y4UT7rBow8vQ8CoEbjXrXPVNrwaV5OQkMCE8eP55++/eaJfPx7p3RtfX98b9qXekEibN5/0n3/Fnp5+OZZAr8O9TWsCR72K7kZBkGpAZUQE8S+9iqKmYS6gx3fIIPz69Smg3qQbIXBzBPItENQz4I3rVpNkNtKxfUvWzf+ZRX8fIDw0mOORMTz/8jDHNrWrPa4qEBS7hZ/HjeWEpQSjXn4OnSmJUSNG0f6pETzQvNolgaD+wVO/HV3vuRCIp3UCucK2lfOZtWIvI0eNpHQxb+KO72T4W+MY/cGn1Kpw+YhIHTc7K5O0tDQO/buJqb8uYdT7YwniPGM/nsizI0dRt2IoGSkJTJs8Bb9y9akbouXr7+cz7M03McccZPq8Nbw+5i1CAq9zr9tuYfmfC0jGjx7d2mG8QRZOtYro77/9ijawPPVDbLz1xe83EAi/sjMijk7t2+Af4E9IaCj+vt63ZUfDCeDS9CYImI+fIPGDj7Acjrj+21ot7ve1JOCVoehL5Lxa7cj6arGwbu1aZs2a5Thq6NO3LzVq1LhhJka71Ypp914yV67CFh3juILo3ryZY4dCrbGQW/ZGxWIhZfrPpM+ei5KZdRMeX/2KLjSE4l9+iqGM69W2uWXnpIO7ikC+BYJaiyEjPR2T2Yafvy+m9GSWLlpEZHQCFWvUpcP9LfHyKLjsZgVF0VUFgurfgc3LmTx7HSPfGI1y/hhjPp3GB+o3+cCL5+YK56NPsmLd1pw4NBrCylaicZP6GK7cRlcFRS7R1H8v/IU/t0UxavQIgv08SD57iCEjPuCVt8fSqHr4pXEs5mw2b1jDqjUbOHbyDO169OXJhzsRe2wfH301jZffeJ2q4aXISk9i+vdTcCtehSd6tuPHb78kVV8MvSWVEpXq0adHR3TXEzF2C8scAsGXnt3aX18gKAonDu/ljyXr6NKjJx5pRxj96dycAsFq5p+1K1m9fgtWsxk1816Nxq3p1/dRivlJAZ2C+l26U/2o2/5qHELqDz+hqN/or3l0IaXxe+F5PFvfl+sZvSqsT0dFsXDBArZs2UKjRo3o3LUrFStWvHEQo5qcyW6/sLXvRFZDe0YG6tFI1pq12GLPoVitzsckaDXoSpXC97n+eHfueKdwyzhC4IYE8i0QrGYTEYcPY/QtRrnw0o4tYTWa3Wy1OX7Zrvsh4ALgXVkgpJ8/y4cffk73Jwdhi93Hoq2n+eDNl3C7FAugCoRIVq6/vkAoU7YijRvVx6C7fM6ennyerZu3EJOQMyucp39xfM2x/LU9itdGj6CEvwdJZw4ydMRYXhkzlobVwi7NmDq3kSeOcvTYCQ7u2cWpeBPDXhuONukUY7+axktvjKZauBqkeEEgGEtU5X+PdePUoZ188unX+JapxuBBA6h4VeDqhToe8eeTUXdQNq5dSxpetGvdFDe9znHzQD1uuOiNxZTtCD6MN3vw2CMPcj7ib0Z9MieHQFAUO2mpqWRkZqPVKBw/uIsp0+fQb/Aw2jWvI7sILvB76KwJtrQ0Mpb8Rfr8BRduM9jsjjoHurLh+DzeG8/WrdB65u8oKSsri7179vDnwoUO8dihY0fad+jg2FkoyLoOqkgwRRzFeirKEciYPmsOmM03dt1gQF8mBHtaOhqjEbdqVfBs3w6PZk1Qb07IIwQKm0C+BYIlO4NF8+Zi9S7Ngw+0uyqg7WadUD+Eks4ncOLESawaA5WrVCbQ7/r3mNU8DCePHyU2IZVyFStSongQunwEoLmyQLBZzUwd/zneYbUxxUagKVWLp3t1uOqLi/rhZ7VeP82rerygU/O3X/GkJcWzeeNmYuITr8pUoTbx9A8mxMfEvGW7GDFqJCHFfYg5so0R737LGx99Ro2yObdr1W9hyTEneOnlkfR8fjQtKvsx9uNveXr4a9SvXIb05Hh+mDyFYpUa8dhD7Uk4e5TRI0YTVLkJI14ZTKlilzPCqb5sXrOEGXP/Qv2/E8+fx4aOYkEB6HR6mrfvTt+eqv8XJEJKQgxfffYpPiFVqVG5LAmn9jFr0TaGDB9Gy8b18L3BFUZTVhofjB5F5ZYP0veRzlyhn252qcp7hUDArqYhPhuN+fARbMkp6IOL41atquN/nf0AVY8dkpKSWLt2LX/Mm0fJ0qV5fuBAx26Cc8d0eYBQdyBsdhRTNueGvYZl3/4bvmCoVgX/kcMvHGHodGh9vB1XKR01GeQRAi5AIN8CwW6zsGfr38z7czUNW9xH5XKhaC59QOsIKVMGPx/ntnMjD+7ki/GTSUrLwpSVReW6TRn0fH/KlAy6Co0qJDYsmcPEn//AYDRSrHR5Bg5+nqrl1eC+3B9XFgjqH601i+eydV8kWZlZdOvdhya1K1/hkEJCzElWrduW00mNhjLhFWnc+OodhLzW1MmDO/hmymyee2kY1cuXYufqP/hm1gY+/vxDSvh5OnK9qJH/qm0XP6izU2IZ+PwL3Nd7MI/dX5vPPvqY+g/8j4fa1CMh+hTfT5lG/XbdaN+8PktmTeWvjQdwczPQs+//uK9x7csBiOrZsNXqOB9WbBZWLV1MisaH7p3vdxwx6PUGx3sXn9TzsUwY9yXHT593/KfszBTOxCRxX/uuDHiuP6ElL3wDvPZbYFZGCu+NGkXd9r3p/VBb8qEj88ImP79HCKiC98Tx40yZMoXd//7LU/3706VrV8duQoEKBXW97t3H+dFvYU9OyZFESS3k5DfwOby7d3Va7NwjUyFu3AUE8i0Q1B2EFX/O548lqzHb7VdfHdJ4MGj4cBrXrOCUy+djozh6+jwVy5cl6ugepv00l66PPkmnNo2vOrJIjD7BqNFj6NJvMM2qhzB7xgy8y9Tkqce7Y7gmwc+1BriyQFBtjdi7ncmTp2HzKsWwV14gvPSVEf8KcaeOOM7gczwaDeUrV6dNm5a4OfEVOeV8LN+N/4awWs1pUb8Ks3/4Dko34JXne3PmeATJJi31a1fh7KkTmOx63PQadm1czbTfljLy/Y9pVjOM33/+nu2nshnyTG/HNcfVG/fQ5+mnKabP5IOPvqTLY0+TfGIXB2MtvDZsEN4ebjntz0cMgrrLoN5xt9svZO2M2ruWt7/6g0/HfU4pXx27du6mdMXqhJXw53xCPOlZJsd6OLB9A7MX/82g4a/RqEZ5p9akNC4aBNR4qlWrVrFw4UKCg4Pp1r07devWvemUzdejpsYyZKxYRfqcedjORqOYzKDTOfIneHRqj0+PB9HlI1dD0ZgR8dIVCeRbIKjf4s/FxnA+OfXSNzaL2US2yYKHhxfh5cvh5+3cDoL6LVV91G+Aieei+XbCBCo3bEuvB9pe/uBXFHauW8yXP63gq/GfUdxLx+pF81izJ5rRI1/E1zP3wEhXFwgJMVGM++wTNMHVGT6kP/7X7MKoH5K2G2RoU9Mc6/IQSNcuOpvFwpYNq1i1frNjt8CCkf899ywVSnoxfdJETL6VGPLUgyz7fQZb9keixU5Kajo1G91H715d8HZ3Iy7qKNN/nEG2XecI6KrdqAUd72/G+oW/svlEJq++8jxp0Uf5dvIMej7zAs1qXud2i93CmuV/kYoPXTu0xk2f922MqP0b+GDCn7z/8f+hSTrJ+598x1Mvj6ZBxeJs27Se9Rt3YDabSUpKodF9HXioW0e8jK6X/tsV/xAURZscuwknTvDX0qUcPHjQkYlR3U2oUKFCge0mqDcc1FsZ5v0HsSUmOeImDFWrYKxaBa2Xp1OBkEVxjsTnwiXghECwEBV5Cq3Ri9CQkpgzUpg3+zeOnoqjZoNmdO3Y+pZuMcRGHWPipB9o3qkn7Vs1uhRfoCg2Fs+ayuJt8Yz/8k2MWtj1zwqmzVvPm++8QcnA3Iu0uLpAUGMG1GuCARXq8ViPThivSFZ0u5ZGdlYGp0+dIjktkxKlyxBaKhi1pPe4cRNp3OVhOjavS0JcNGeiYzGZrfgFFCMsvAxe7hd2AtQ5iY+N4VTUWdy9/ShbNhwvo4FjRw6h8QqkQnhpFKuJI4eP4BFYinIh16nyqdg5FxeLRdFTqmTxXPMgXOSQmRLPoeMxVK9ZjYjt6/h+3jre+793CPQykJJ0ntNRZ0jPMuMfWIywsNBbWo+3i73061oE1C8p6lVeNYhx0aJFnD17lp49e9KxUydHXYcCeRxxCTbHP/V2hBps6cwNiQKxQToRAjdBIN8CwZSRysI/FlCsbHXatGjAluVz+X72apo0rsfBg8d45sWh1K1y+ZqcM7aov6TbNyxjzpJ/eG7wC1QtF3LpdcVuZfbkcWw8o+GrD4ejfh88uGMD46cv4K133ia0RECuQ7m6QDh3NpJp036mWceHaHXleb0zAG+i7ZW7N+rrZ44f4qdZf/LoE0844ksuCIH/CnKp5/zXGePaPvL6/6/t4tr2+XFDfUetvbBq4Vx2R5sYMeSpS+LiZvrLz5jS5t4noO4mpKSksG7dOn6ePp3KVaow4PnnHbsJks3w3p9/8fD6BPItELLSkpk3dy4lK9SmWZ3yfPLOm4Q368GTD93HtIkTKdukA11a3lwmRfUu/bhPPsYrvC7P9HsEL/fLgWqXBYKWrz8chhrfe1EgvPnO25QpEeA4pz5+/DjJSTmv9v04fTrZ2dlMmToV94upUl1kNZw9cZCZM+eQYnFjwMABlA0pXmiWqcdFaemZjoxz+hskLSo0464ZWBUC6emp2BSdIxmSPEKgoAioa+vY0aNMmjiRU6dO8eT//kfbdu0csQkFeSWyoOyVfoTA7SSQb4FgNWexYtECdhyMxM8dtu2NZMzYDyhf3IPvv5tMtZZdaNO4utO2qvkVVi6YyaINB3jhlVeoUbHMVd9W1W+Li2d9z5IdCYz/4k3ctLD7n5VMnbuOt8a8TslAH86cOcP4cePYt3dvjvHj4uKoWbOmSwqEM8f2snT1Vuo1aUHdWlUwyPUmp9ePvCAECpqAKhLU3YTly5axdMkSSoeE8FCPHo6/I15eXiIUChq49OeyBPItENSItrjoKFYuX86p6ETqt2hD+/saY81MYeWqDdRp0uKaCPy8fVZLRe/bup4vJ0ynx/8G0q1985y3EhSFHesW89VPK/j6m88p5qVjzaJ5rNp1htdfG+oIUlSvzZ2KjCQpOTnHoNOmTiUjI8MlBULehKSFEBAChUXAZrNx7NgxlixaxKFDhxy3HNQgxrJly6IVMV9Y0yLj3kEC+RcIjjNpO1mZmWRmm/Dy8sag1zmyKWZmZePl5YPBqQA7heiTh/n6qwkEV2/O/x7tireHEb3B4MjMmJWSwK59R6hSsw6ajDhee20MDz77Ms2qlWL2Lz9jLF2d/n0evOuvOd7BuZahhIAQuAkC6pXIf//915GJMTk5mYcffZQ2bdq43JHlTbgmrwiBXAk4IRAUUhMTWLdmFfsOHcNqvaKAkMaNXv2epFbF/BcXUY8Ols79ie+mzSEguCTuBjX8UE/HHo/wUJc2nNi1lm9/XsaIt98hvJgXqxbM5Ptfl+Dp5YlvsRAGvjCQ6hXD7upESbI2hYAQuDsIXMzEuGD+fGb88gtNmjXjhSFDCA0NlSOHu2MKxcqbIJBvgaDGICydP5t5i9ZQvGRJjI4P9P8ejZHH+/enduXLufzzskXdjTh17AiHIo5juSQ2tFSoUp2qlcqybNYk/jlh4u3RQ/F006NmcjxycD8x8SlUrFLNcTVPzfiX1+Pqtxjysl9+LgSEgOsQUIXCgf37mTRpkiMouvdjj9GiZUsCAgIKLHeC63grlhR1AvkWCOothpk//4R7iUo88mBH3N1uYwIaxcqP4z9FV6YxfXu2Q+dEVbVrJ1QEQlFf4uK/ECh4AmoQ45LFi9mwfr0jiLFz587UrFXLUU5aHiFwrxDIt0BQUy0vWbgQm1cwD3Rsc3sFgt3GkUMH8CkeSqngwDyPEXKbjKIoENTgKruamEXNUvlfQSe1+qZasluxK9jsdrRaXb52YPJa6Or9cbvNjlanveE3KPVbl9pO/V+1uNRV18UUBavNCmhd/nplXizk50WLgJq18/Dhw6xYvtyxq9CwUSO6PvAAYWFhOYqoFS0y4u29QiDfAsFmMbFl/Sr+XL6BsPIVHFUXLz8Gmrdp4/QthtwgXlks6FZgFzmBoNjZtmElf636h2yLFaOHN/UaNeX+1s3x1NtZPH8+J6LPU71uI+5r0QjP/7Ij3gxjU1YGa5YtZteB45SvXpdundvhfU3qa7vdytYNa9m2cw8ZFoUmLe53JNpSK3GqOS4O7fmXZStWY9Z60Lnbg9SuWl6KK93MZMg7hUJA/TuVmprqyMSo5olRS0urxw4tW7WSIMZCmREZtCAJ5FsgmDPTmD/zJ35fuhZFo70mU6gHr7z1Fi3qXVmJsCDNvPm+ip5AsPHnzKn8vmoPXTq3Ie70cf7ZvIt+g16mU6vaHNgfgWLNcFSIfKj341SrkP/A0itnQY0h2fjXbEc2zQYN6rB/125a9XiSfg+2uWptWM0ZjB76IsUr1iYrKYY9h0/z+oef0rhaGU4f28+48ZMILlcNd0sih06lMuL1UVQIvbJg1c3PvbwpBO4UAUfuhORk5syZ4xAK999/P0NfflnyJtypCZBxbguBfAsEFLujEI7ZbCErK5Nsk9mxfe3h4Ym70YjR3YjeBe8GF0mBMGMq6w6k8tGHr0J2Gj9NmUi0NYARQ57Gy8ON+LORLFi8ilYduty0QLCY0nlj6GDqPvAMjz3Qko3LfuenJbv47NP3CfK5XEBLzXWRmJiEf0AAGYmx/N+YMQTV6cJrz3Zn5cK5bD+WyOCBTzt2N8Z/8hHlGnXk0e5Sovm2/LZLp7edgJqT5d+dO5n2ww8kp6TQv39/mjZtip//hdLk8giBu4lA/gUCkJWRyu6d29mydSex8QnoDe6EhpejRav7qF65HHonKwveCVBFXSC4YWHOjz+wP9rGqFcH4GnU8++Wv9l/4hzdH+xGkJ/XTU1DamwETz03irc+/4YGVUM5e3Q3w0d/ypuffk7tCqUv9XnlUZE5M4WP3xuDtmxzXu3XiRnTpqALrkzfhx9Ar7Ex/+cpnM72ZeCzT+DtfhuDYG/KY3npXiGgViBVMrOwZ2SgMRrR+nijKcAvN44rkYmJjuJPahBjWHg4D3TrRu3atXFzu07p83sFrPhxzxHIt0BQEyLt3LSOeX+uICS8AiWDA7FZzUSdOE6K1Y0XBj9PaIlAlwNUVAXCmn1J/N+7L5MSe4ppP/xEmdot6durExmJMcyfv4iaTe+nUZ2ql6pmqhNntVodAYfXe/QG/RVBiApRu9cx+J0pjJs8iYql/EiKPclLL46k/+gPaduwynX7OBcVwf998Bkd+71I65qlmfLdRMLrtKBn1/vRohZgmsWmw8kMHTKAID8Pl1tLYtBdTkBRsKWkkLVpC9k7/kVJTETj5YWhRjU8W9+HvlTJAi3MpAbmqmWkly5ezJGICBo3aUKvnj0pVry47Cbc5UupqJifb4GgVnOcP3cuOv8QunRo7QhuU8+hUxPjmDplOk07P8J9Dau5HLeiKhCmzVlGydIlHB/6Ves2pe/jD1Pcx43Z06eiDa5Ex/tbOAodXSzMZLdksWjBfNb9sx27/b8qjpdmU8cTg1+hcfX/8lwoChH//MXwr35lwpTJlC3mRUr8aV5+8RUeHTqGB1rWzrEO7FYzqxbNZf6afbz/wRiMllQmfvMtlZu25aFOrR0CYe3Suaz59ywvDR1EcIAUYXK5X6a73CB7WhopP80gc+ky7CmpYLc7yi5rPDwwNm6I/4uDMIRcriRbEO5eLCe9Y/t2R4Il9Zj2+YEDadK0KUbj5aO4ghhL+hACBU0g3wLhYjXHUhXr0rZVw0sldm3mTKZ+O5GyjTvQqUXOD4aCNtjZ/oqqQFiw/iA9H2zPtr9XowkI58XBAyDtNO+9/xlaDx98AoJ5rG9falcp5wgqVDNbxkSfJf58zoqYoKFMuYoE+v53x1tROLF9JS+N/ZHxU6ZQPtib5HNRvDxkOH2Hv0+nZtcU7VIUYqOOMWHCRCo37cSTvTqSlniOSRMmUqFhax7q0hoddtYsmsO6vXG89OLzFA+4uaMPZ9eHtC8aBNQP6owVq0n68GOwWHI6rdHg1bsXAS+9WKC7CBcHulgASq0uu+yvv+jUqROP9+1LiRIlJMFS0ViCd6WX+RYIVnM2Kxf/we6jcbRt14bigX6O7IZRx4+wfO1WnhwwkJoVy7gchKIqEC4EKQ4n6uAuvorM6B4AACAASURBVJ0ykz7PDqRhzYpkZmU55kij0WJ0d3fU03A8ikJWdhYmk/m6c+jp5YPbFbU2zp/8l6eGjuXj8d9Rs3wwcacO8cqwMbzywWc0qR5+VR/Z6aksmPsre04mMXjwAMJKFSMjNZHpkyfjX64OvXt0QoeNJb9N48A5LS8MfBo/LzmrdblfprvYIMViJW7AYCxHIm7ohcbPjxLTJ2MoVeq2earu6G3ZsoW5s2c7coN0796dRk2a4C9BjLeNuXR88wTyLRDUD5CY0ydY+McCjpw4fWEbWgN6g5H6zVrz0APtHcWWXO0p2gLhVbKT4pj4zQRK12rF4z064HZREFwzUYrVxOZN/7B3fwR25dojBi3tuveiSljwpbdM6QkMGfACvQa9Tuf76rBv40o+/X4hH3/+MSFBXo7bLmrhLTXfwc6/VzHnz1V06vkY9zWt5yiwZTVlseC3X4hKd+O5px7HqLPxw/gvcA+rS7/e3XHTScS3q/0u3c32WM/FE9PrMbDZcnUj4P/G4N2+7W11VU1kFhMd7UiwtHnLFsLDwhwJlqrXqCG5E24reencWQL5Fwjql0y7jeSkRE6fPk1SUgpavRvFgoMpExqKl5fHLWU8dNbw/LYv6gLBoFiYP/NHdkamM/rVF/Dzvn7wn5q0KPLECc7GnFPzLV6DV0PlGnUoEXg5OZYatPrblC/Ze9ZC5/bN2bJ2FQRXZdjAviTHnWHNus00a30/xTzMvPXGGDxLVaZTu/sciZS8vAOpVCmcgzs2MmPuElq264CnPY3Fy//m8WcH0bh2JZdcS/ldc9LO9QiYj58grl//PA3ze3kIvo/3zrNdQTRQkypFREQ4ghiPHz9O8xYt6NatG8ElShRE99KHELhlAnkKhMijh4hJsdKoXjUSz8WRkJjs+ABRdxDUe70X7vbqCAkLw9/H9fKQF0WBsHz+r2w+nMYbowc5vonv2/Y3M35fwaBXhlGuVNANF416Tqr+u96jHklce437fNxpZv74IweOnSG0QnX+99QThJUMYu/2f5i9cDXPPD8QH1MUL4wci87ogdHN4Oi6QvWWvD7qeTCrmRiX8NeKdVg0Bjp260WX9i1vbxrvW/6VkQ7uRgLWhARiHnr0QmBiLk/Ae2/j3bH9HXPxYhCjeuwwa+ZMxw7C84MGUadOHYlNuGOzIAPdiEAeAsHO9HFjWbQnlV8mvM2fM6Yze+FKcmzSaTwY+d773NegqsuRLnICATBlZ2K2Knh7eToEnM1qISMzCw9Pr8sxBwU0UxaLmexskyOewc1gQLFZWLdsIVsOnWPAc/8jwNuN1LSMq0bT6Qz4+Hg5bFNvwmRmZKBodHh5esj1rwKaF+nmagKKzUbsc4OxHj5yQzQaP19K/DgVQ8k7/w1eFQrR0dGOBEvr166l16OP8vDDD1OsWDGp6yCLudAI5LmDcC76DImZNiqVCyEhLpaExBRH7MGVj6JoCA0Px9/H9SLPi6JAKLTVBKg1OzauWUmy4kXHdvfhfkVgY2HaJWMXbQKOWwwrV5Hy5fgLVxyvedSESV4P98B/yKDbcoshv/Szs7PZvGkTv82ahYe7O127d6dJ48aOTIzyCIE7TSBPgXDRIPUP/9GICDz8ihEWWuqSRlBsVkehksDSZSlT8sbb13fasYvjiUC4s+TVP8SZGemg1eOp7gjc2eFlNCFwQwK2tDTS5s4n48/F2M/FO27uqI/G1weP1q3wfapfgedBuJnpcOwmnD3LsmXL2L5tG+Hh4TzUowdVqlYtsN0Ex1HixeMWrXp8KL+pNzNX9/o7+RIIdquFlOREli5aTGBYFVo1rXfpD78lK42ffviR6vd1o0Ozmi7HSwSCy02JGCQECoeAmkkxPR3TgYOYd+3BGp+A1tsLY60aGOvWRRcUWKi7B1fvyiqouwlqOemFCxawf+9euj34oEMo3MqVSEecUVYWmf9swrzvAIrZjD60NJ7t2qIvWcJl/C+cBSKj5thZU24UlXZFy9jDW3julffJMmWj1ekdZ80XH8frBh/e/WgsjWtWcDnCIhBcbkrEICFQuATUD0mLFew2UINvDXrQagvXphuMrv59VW87bNq4kQnffEPJkiV5cehQqlWv7vRugtqXLe4ciZ9+4RBIyn8JozQ6LZqAAAJGDMOjeVMRCS65EgrHqHztINjMGSxfvJTN23fiU6w0VSuVu7SDoNVqKVmmHLWqV8ZN/UVzsUcEgotNiJgjBITATRFQcydMmTyZvXv30qtXLzp27kxgYGC+hYI1KZnkr78ha+XqS8crVxqiK1eWwNdH4l6zhiMFtTxCIF8CQcWkJrZRy5h6BZWmSoX/cvJfwU+r011Kv+xKWEUguNJsiC1CQAjcCoGMjAzWrV3LnwsX4unpSbfu3anfoEGexw5qBcvMdRtI+fobbPEJ1zVB4+bmCNT0e7Y/Wi/Xu7J+K9zk3ZsjkG+BoAb0pKcls3/vHk5GRWO7ouqfouhp2a4t5UIuZ9q7OXMK/i0RCAXPVHoUAkLAeQKO41g1k6MaFHgLRxpqJsaoU6dYsWIFu3btonz58o5MjFWrVkWvv/4urj3bROpPP5M+ay6KyXR94zUajA3rEzByOIYyoc47KG/ccwTyLRDUzHk7Nq7lj8UrMRgMHDlynCrVq5KWlIBN78cLLw+hatnSLgdIBILLTYkYJASKFAG7yYTp4CGyt23Hfj4RXUAAxiaNMFavjtb95tPTq7EJBw4cYNGffxIVGUmXrl0dgYzqzsK1jz0jg+SJU8hYsCjXdNNuVasQ8PpI3CpXKlJzJM7eQDPmJ0hRfdVR7nnOHNxLlKdV3fJ8+vF3vPTWGxitycyZv4xOD/agYlhJ5zkrColxp9n67yHqN2lKiSC/HH1kJJ9j+aoNmMwXqrDpDO40bNKUcmVK5XlUJgLB+SmRN4SAECgYAvasLNL+WEj6r7OxJyeDo4aNBq2/P959HsXnkV5o3d1verCLmRhXrVzJ1ClTCAsP55Xhw6lSpcpVVxftmZkkT55KxvyFYLXecDy3mtUJGD0Stwrlb9omefHeIZDvHQS13PP83+dTulIdmtYK54MxY+k7dCRVy/jzy5QfKNOwDe2aOHfNUa3tcPZkBOO//JyT8XZef/dd6l9TCVBFHXtsN88NfZOylavi62nEYPTmoYcfoV7NSnne3xWBcO8sVvFECNxtBDLWrCXpky9RUq+TnMnbC/9XX8GrY/tbOnJQmaiVIU+ePMkPU6dy4tgxHnjwQTp06EBwcLAjZbNitZL2x5+kfT8Ne1ra9THqtHi0a0vAS0McVz7lEQL5FghWcxYrly7FbAyk8/1N+e37cZzN9qZOlVA2rNtIt37P0qq+c6mWTRkpTP3uW2LTLZw5EcXQ19+5oUAYPPJj3v3sS6qWCXIocPWsTZePczwRCLLIhYAQKAwCdrOZcy+/imX33hsOr69ckeDxX6Lzy7lz6qzNjmyRahDjunUsW7oUL29vR2xCw4YN8fL0RC1YlfT5V5j37r/uLQZtUBB+gwfg1bkjGt1/ZeCdNULa31ME8i0Q1Jz552KiScu2ER4WSvyZo8yaNZezcUmEVa7FE30epniAr1NwVNGxa9devL10jP9iMgNGvpWLQPiEseMmUC3MuWyNIhCcmhJpLASEQAERMJ86zbn+AxyJiW746HQUm/AVHnXrFNCo6gmClciTJx3lpDdt2kStWrXo+fDDlA8Px7R5KykTp2CLOn3VeBp3I96PPYrP44+ik7TOBTYXd3tH/9/eeUBHWWxx/Jfd9F4JoYXekaJ0kSoCYqOLCAqC9KKIIF16L0oLoYuAIFXpIEUpCtJ7aGmkENLLJtndd77liSCBJBDYTfZ+53jOezrfzL2/mez+d+bOvVkWCIqj/+RU+qfITnxsLEkpGuwdnHByvF8YKLuPsjV2N/gyo0fPeqpA+PyL8bTv0gVvN2fKlCuPj7cnalXm44lAyO6MSHshIARygkDymbPc7TPwqUGByjhuI4bi+HbznBjykT6SkpIM6fFXr15NSHAwbdu1o3GDhlhHRJD46w40J/9Gn6LBsqgvji1bYPtaNVRO/5Z0z3GDpMNcR+CpAiFdk0JISCjJmtRMHFPhU7gQLo7Pdnc2IvASo0fPfLJAuHmeoaOnodPrUUSJa/5ifPHlICqW8X0k139GSSHHjBplOJvz8/c3lFKVRwgIASHwMgikXLxE5Od9nxoUqNjhPmkcDg3eeGEmKSmbN2/ezIply6hStSr9+vc3ZGS0+H89BsNxQhaOa1+YgdKxyRJ4qkCIuXObWbO/JyAwNBMHbOk7dCi1Kz/b1ZjMBEJ6moZkjRYHOxuCbl5h4byF+FR8nV6ftMFKrTKkIlWSON0JC3vMzs0bNxqCdEQgmOwaFMOEQJ4koI2LI7zLZ2jDwp/on4WTE/mW+WFd8MVeEVdyJyhXIletWEFQUBCtWrfmjTfewCtfvixnYsyTkyROPZXAUwVCQsxdTp27gpeXJxbcLx6i1GKwsbb+T6cq8hcqiLOD3TPhzkwgPNxpuiaJdcsXczlSxTdDemJnbcXdu3dZvGgRp0+demz824GBlC5dWgTCM82MvCQEhMCzElB2NJWrhQlrfoLUDHZhrSxxeP9dXPv2RmX9b32bZx0vK+9FR0ezf98+wz+ubm40bdr0fhCjo2NWXpc2ZkbgqQIh6OoZNv12hp5dO2Kh1fDH73/gnN+XqhWUO7Y5Ryo7AkGTFMfqJYsI0bgwZEBXbKwsUdRxRHg4CYmJjxmlFDiJvndPBELOTZf0JASEQBYJpAUFE7vIn5TfjzySwVBJa2xTuwauvT7Hyvfx1PVZ7P6ZmilxXwEBAezZvdvwo0op/NSufXsKFiz4THFkz2SEvJQrCDxVIIRcO8vEmYso/0oVbNU6Lpy/gL1bPkoULfTI2T8WVtRv0pRihbyeyemMBEJc1B1+P3qKarXq4mSdzp2oJLw8nLlx8TTLVqylTvM2tG3ZKNNARQlSfKYpkZeEgBDICQI6HWlhYSTt2U/yocPo4hNQuzhjW6c29k0aYaUcLRjh/N9QJTIpiXPnzrFq1SpCQ0L4rHt3GjRsmGEmxpxAIX3kPgJPFQjatBS2b1zPtt0H0GhSiY6JwdLaFmdHh0c9tbCl5+CvqFXp2co9RwZdZty4uXw6aChVy91X0+f+2M681XsZNmY0quhrjJ70Palp6aSmplPxtbp89mknCuRzy5S4CIRMEUkDISAEXjABpViSPjUVvSYVCxtrlB2E56nHkFPm/pM7YcP69axbu5batWvzcefOhoyMasmFkFOYc20/mV5z1Om0JCclk5KUwIH9+3EpUJwaVco/thVla2ePleWzJdfQJMdx+dINfEuVxtVJuQmhZ8uyuZy4o+abwT2xVum4ExJC6J1w7Jxc8fUtgpODcq0yc+4iEDJnJC2EgBAwXwKKSFCOHZQy0mvXrEGJU2jRvDl169XD09Mz9x476PUogaJK9Up9SgpYW2Pp6Yna1cUouza5cYVlKhD+cUop1nQ38i4WllbYWlsZrhz++1hg52CP9RMqiWUbjC6dHxbMxrZ4LVo1q/tcZaRFIGSbvrwgBISAGRIw5KS5e9dQTnrfvn24ubryzrvvGspJ29k9WwC60TDq9WguXb6f7+H8BXRx8ajs7LCuUN6QKdLmlYpYWL2cwFCjMciBgbMsEJRyz6GB19m2ZRvXA0PRKUVH/nksbPioew+qlvXNAZOUhEw6QoNuY+fihZuL46PxDtkcQQRCNoFJcyEgBMyaQGpqqiF3zJ5duzh27BjVq1enbfv2+PgoxfGysG1rAvQ0SlrpSVNJu3Lt0TwUlpZYlSmNa5/PsVWyV+YSf4yFNMsCIS0lkc1rV7HryHlq1nwNR7uHypRaWFGnQQN8fTyN5ccTxxWBYHJTIgYJASGQCwikJCdz9tw5Q5XIuLg4BgwaRM2aNQ15ZUz5Ucpr3x05Fs3vRzKsOaEEhdo3fwu3vr1QKccN8jyRQJYFQlJcNKtXrSJfqaq0bPJ6prcHTIW5CARTmQmxQwgIgdxIQLkmrqRr3vDTT4biTx0/+siQidHSRLfoNZcvc7f/l4YbI096VF6eeM2YjHWpZ0vulxvn8VlszrJASEtJYtev20hSO9O0cT3sbR5NlqRUVzRFZSkC4VmWhbwjBISAEPiXgJJr5tTffxuuRGpSUnirWTPq1K1rKCdtascOCXv2EjNx2v3AxCc9VpZ4Tp6AXZ1aMs1PIZBlgZCelsLhXb+yedchihQrjpPjw0Er1jRu3pwShb1NDrYIBJObEjFICAiBXEogMjKSvXv2cPTIEdzc3Xn77bepXKUKNjYPHTkb2beEnbuJmTLj6QJBrcZj0jjs69U1srWmPXyWBUKaJomjB/Zx6NgpUKlRPVJJ0Zr3OnSgQolCJuetCASTmxIxSAgIgVxMQKPRcD0ggO2//sqJv/4yXIdUajsUKFDAJHYTkk+dIeqrYegzyKz7D3aVqyue0ydhU6F8Lp6JF296lgWCkptAm641pDXOKPLT0tLqP6LhxRuflRFEIGSFkrQRAkJACGSdgJI7QREKJ0+cwG/hQkNSpW7du1OjRg2sHqvVk/V+c6KlEnsQMXAwaRcvPbE7m9q18PjmK9SephdYnxMMcqqPTAVCYlw0127cJqNSyv8aoaZoiRK4Of8nw2JOWfkc/YhAeA548qoQEAJCIBMCYWFhrPnxR44dPWqoEPlBq1bk8/ZGiUszxmNII33sONHjJ6OLjnn0JoOFBWrvfLj06Yl9w/oYSl3L80QCmQqE6+eOM2PecrRa3ZMxWtjyWf8BVK9Y3ORQi0AwuSkRg4TAsxFQkrPJvfVnY/eC30pKSuLP48fZumULCQkJhgRLtevUwcPDwyjHDvr0dBL37Sdx8y+k3w5En5JsSG9tWbgw9m83x+HNxqgclKy98jyNQKYCQdlBuH4zUMmT9JRHRZHixWUHQdaaEBACOUpAqWGQHhZG6qUr6KKjsXBxwaZsGSyV8261ad/Hz1EQuaAzJRNjeFgY+/fv5/ChQ4ZdhPfee49XKlfGyghXIvVpaaQFBpF2/YYhk6KFvR1WJUtgVdQXlZGPQXLBdBpMzFQg5BZHnmSn7CDk9hkU+82VgGGr+I8jxK9eR3pQ0P1CR9ZWWBYuhGPbVtjXe93wq1AepXyN/sExsOHaoRF3WtLS0gi4do0tW7Zw9swZGjVuTIcPP8TR0dE4U6UUytLr7+9kmHiSJ+MAevKoIhBMbUbEHiEgBAwf6JoLF7n75dfo4+IfI6Iu4IPrlwOxr1XDrD/07++whJO4YxeaU2cMX4K2dWrh0LQJKnc3o2zv/zNZShDj4cOHmTltGg6OjowaPZryFSpIlchc9PctAiEXTZaYKgTMhYA2IYHIL74m7dz5J7ps16gBboMHonbLvOx7XuSm12pJPv4XsfMXkX7j5r/BeCoVVhXL49qnJzYVKxi1rLQi9CIjIvD39zfceHizaVOat2hBwYIFjRbEmBfXwovySQTCiyIr/QoBIfBMBJQvlZSz54ga9BX65Cdnw1O5ueL13SysS5hecPQzOZ7Nl5Tz9ajR40i7fCXDN21q1cB9xDAsPdyz2XPON1eOHZS4hG3bthmK7zVp2pQ6derg4uJi1F2OnPc0b/UoAiFvzad4IwRyPQFFICRu30nM1BnoU9OeckCKQSDYvlot1/ucXQeUo4XYpSuIX7YSdBnfMFPKGbt+MwTHZk2z2/0Laa8EMYaGhBhKSR86eBCfAgVo07YtFSpUMEoQ4wtxMo91KgIhj02ouCMEcjsBRSAk7NhFrJIuNzX1qe54zZuDbbUqud3lbNuvVCyM6DOAtAtPTgakdGrXrCmeo4dnu/8X+UJKSoqhnPS6tWu5dPEiLVu2NFyLdDXTo6IXyfp5+xaB8LwE5X0hIARylIAhQPH8Be4OGIw+OfmJfVu4uZLv+9lYFy+Wo+Pnhs50iYncadvxfiKgpzxWFcqT33+BSbqUmprKvr178V+8mAIFC9K3Xz9KliwpQYwmNFsiEExoMsQUISAE7hPQJSUR+c0oUv888WgmvH8AqdXYNW2MW/++qF1dzA6bsoMQ/nlf0q9cfarvtk0a4TVutMnyUVL337hxw5CJ8cL58zR96y1DIKNS18FYmRhNFpYRDBOBYAToMqQQEAKZEFACFc+fJ2b6bNICbjx6zq5WYVW6NC69umNbrapZpstVbjDELPQnYfWajAWUgtdSjetXX+D0bkuTXm6GI6WEBI4cOcKunTsNtjZp0oS6r79uCGKUx3gERCAYj72MLASEwFMIKF+CKafPkLhtO5rTZ9EnxGNhZ49NtSo4vN0Mm1deQWVrOmWGX/Zkpl6/wd0Ro9HeCsxwaOvKlfD4dhSW+fK9bNOeaTxlNyEkJIT9+/Zx5I8/KFy4sCHBUomSJVFJgqNnYvq8L4lAeF6C8r4QEAIvjIASra+Lj0cbFWU4dlDZ2aP28EDl5GiWOwcPg1bqDSQdPEzsvIVo74T9+58swLJYMVwH9jXc8LDIRV+u/1SJDAgIYOWKFZw5fZpPPv2U995/H3t7qZ3wwv7QntCx0QWCTqcl9OYVDh8/T73Gb1LIO6OkJ3pSkhI5cfwIt+/co1LV1yhbshjWVplX4pJUyy97Scl4QkAIvCwCikjQXLpCwqYtpF27jpJkwKZSBRw/eA+rYkVzrYhShIISxLhjxw4Wzp9PpUqV+Kx7d8NugsQmvKzVZeRaDDptOlfPnWTevPmEx6kYOnoM1cr7PuZ9miaJtf7zOHgmkEL53YhJSKV9p87Uqlou0yQbIhBe3mKSkYSAEDASAaXeQNr/c0ZYW2f6uWgkK7M9rCIUlCDGVStXcuvmTUMAY4OGDcmfP7/cdsg2zey/YNQdBE1iDIvnLyDF0o5Lp87TZ+jIDASCnpCAswwdNYOeQ0ZRpYQHP61aQZzai55dO2CTyS6CCITsLwp5QwgIASFgSgRiY2MNmRh37dqFWqWixdtvU7NWLZydnfOMGDIl3v/YYlSBoE3XEBBwEytVCtMmzaP7VyMeFwh6Hb/v2IDfpj+ZO3cyrrYWHN65ha2/X+abYYNwc7R7KlcRCKa47MQmISAEhED2CKSnpxMcHGzInfD74cOULl2a1m3bUqJECdlNyB7KLLc2qkBQrDQU8wi6xOjRszIUCHqdls0rF7DnXAJzpn+NlQWcObYPv9V7GDF6OD6eziIQsjzd0lAICAEhkLsJKHUdLl26xIplywyCofMnnxiuRVrnoaMVU5khowsEBUREoCIQZj5BIKSzbuFs/ghVM3v8IJSwxIsnDzNn6SaGjxpJEW83g8hQ1KWS6/u/z7ixYwkMDMTP3x9bW1tT4S52CAEhIASEwHMQiImJYcvmzWxYv55XqlTh406dKFa8ODY25nv19TlwZvhqrhAIG/y/4+BNLbMnDcYSuPDXAb5b/gsjRo+gUD5X4uPjDXdnb9+69ZiT+/fvN5xTiUDI6aUj/QkBISAEjEtA+WF4+dIl1qxZYygrXa9+fRo2bGjIxCi5E55/bkxfIOh17Fy/nI2HbzN39mjs1BacOLiTlVuOMGLkUPK5ORAdHc2Pq1dz4cKFx4hcvHCBIkWKiEB4/rUiPQgBISAETJJAbEwMhw4dQvlBaKlWG4IYa9epI7vGzzlbJi8Q0Ou5cGwv336/gZnfzcTH2YqdG9dyLCCWr7/4HAdba8PRQlxcHBqN5jEc06dNIzwsTATCcy4UeV0ICAEhYMoElNiEoMBAdu/axd49e6j22mt89NFHFPH1lZsOzzhxJisQYsID2b7rd15/sxnutqkMGfgFVZp/zDt1y7LEz59i1erT/r0mWGaSJUxuMTzjypDXhIAQEAK5jIASj6YIhevXrzNl0iSU65F9+vWjfv36WFlZ5TJvjG+uSQiEqJBrTJ+xmI49+1OpdCEDlb8PbMF/wx8MHzuKAu72XDz+GzPnLydRo6VclZp0/bQThfN7ZEpQBEKmiKSBEBACQiBPEfinANT6n35i+y+/8H7r1nTs2FHiErI5yyYhEJRMiYGBoXgXLIyjvRKBqmO930wuxjozdGA3QzIkvV5HTNRdomIT8M7vg6ODnZJVNNNHBEKmiKSBEBACQiBPElB2E5TYtIT4eOrUrSsCIZuzbBIC4b8263XprF0yH5eStWnW4DVUFlmRAhl7LgIhmytCmgsBISAEhIAQwMi1GJ44A3o9MdH3sLZzxN7u+e60ikCQdS4EhIAQEAJCIPsETHIHIftuPPkNEQg5SVP6EgJCQAgIAXMhIALBXGZa/BQCQkAICAEhkA0CIhCyAUuaCgEhIASEgBAwFwIiEMxlpsVPISAEhIAQEALZICACIRuwpKkQEAJCQAgIAXMhIALBXGZa/BQCQkAICAEhkA0CIhCyAUuaCgEhIASEgBAwFwIiEMxlpsVPISAEhIAQEALZICACIRuwpKkQEAJCQAgIAXMhIALBXGZa/BQCQkAICAEhkA0CIhCyAUuaCgEhIASEgBAwFwIiEMxlpsVPISAEhIAQEALZICACIRuwpKkQEAJCQAgIAXMhIALBXGZa/BQCQkAICAEhkA0CIhCyAUuaCgEhIASEgBAwFwIiEMxlpsVPISAEhIAQEALZICACIRuwpKkQEAJCQAgIAXMhIALBXGZa/BQCQkAICAEhkA0CIhCyAUuaCgEhIASEgBAwFwIiEMxlpsVPISAEhIAQEALZIGBcgaDXcS/iDgcPHiAkPJZyr1Sl+qtVcHa0e8SF6PDb+C9bS7pej8rCAksbB95q3oIKZYphYWHxVHdHjxzJzZs38fP3x9bWNhtopKkQEAJCQAgIAfMlYFSBkJIYw0q/BVwOT6GMrze3bgXTsMX7NHz9NazUqgezEhZwmh4DRtOg2dt4uzmgtrKlRu3aFCtcgEz0ASIQzHdxi+dCQAgIASHw7ASMKBD03LpwkklzltFrwNJcfwAAIABJREFUyDeUK+jCLxvWcjPags+6dsT1oV0ERSD0+moKE+d8T7kiHtnyVgRCtnBJYyEgBISAEBACBgLGEwh6HYd2/MxPey4wdcoo7K3gr4O7+XnPCfr2700hb/dHdhBEIMiKFQJCQAgIASHw8ggYTSDodelsW7OUw5cTmPTtF1hawMW//2DJ6u30GtCPkkXyPyQQztBj4GjqNmyEs6M9Neu8TsVypbC2VGdKSnYQMkUkDYSAEBACuYeAXn/f1szOl3OPRyZrqdEEgk6bxsbli/kzJJ1Jo/qjfNVfPn2MRSs30bNvf8oUL/gAWlTIdfx/2IidrQ1hIYGERSXRpcfn1KvxiiFoUa/Xk5SURFpa2mOgJ0+cSGhoqAQpmuwSFMOEgBAQAk8noNfp0EZHkx4YRPqdMCysLFH7+GBVpAhqJ0cRCy9oARlNICg7CJt/WMKR68lMHjvQIBAunTqC/w/b+Lxff0oX9Xngsk6nI12rRa1SER0ZytKFC9F7lGFQr48MuwixMTFs2rSJq1euPIbpxIkT5M+fXwTCC1pA0q0QEAJC4EUSUMRB6tVrxP/0M5pjx9HHJ4BKhcrDHbsG9XFq1xrL/N4v0gSz7dt4AkGvY//WtWz5/QbTJg3HxlLP37/vZ+2vf9C3fx+K+HhmOCnpmiR+XrWEcyF6hg/rhZ21FXGxsWzbto1rV68+9s7xY8fwypdPBILZLnFxXAgIgdxMID08guiZs0k5chzS0x9xxcLGBrvmTXEb2A+VjU1udtMkbTeaQAA9l08cZtqiDXw7dTI+Tpbs3rqBEwHR9Or5Ce5O9ihHTffzHNw/c1L+d3J8NMsXzifGuiBf9vnYsIOgHDFoNBq0Wu1jkCeMG0dwcLAIBJNcfmKUEBACQuDpBOK3bCN2xhz0GRwhG74XrK1xnzoRuxqvZZoXR1hnj4ARBQIkxUYy+dvxOJWqyVs1S7N142ZKvVafD95uRNydG2z45TeavdcaV8tkzl6/QyFvDy6f+YuN2/bRqnM3mtWvYYhBeNojQYrZWxDSWggIASFgKgSUH38RXw0j9Y+jTzXJ/t2WuA/5Agt15oHrpuJbbrDDqAJBr9cRcO4kK1evJy45lZLlq9Dqg3cp4O3OX3s2sOrXvxk+Zjjq+GAW+q/m7r0YQ5KkV2vXo0WzRrg5OWTKWARCpoikgRAQAkLAJAno09MJ+6Q76ddvPNU+6+qvkm/6ZMNugjw5R8CoAkFxQxEJcTHRxCem4OrmjoO9LRYWetbMm8LNtPwM7tsZKxXExcURFxePlY0dbu6u2FhZZYmCCIQsYZJGQkAICAGTI6DXagn7rBfplx8PQH/YWJs6tfCaPB6LLH4vmJyjJmqQ0QVCRlyUGw6bVi/HrVRNGtSs+FznSiIQTHTliVlCQAg8GwG9HiWyX4nkz6wWzbMNYFpvRU2cStK2X59qlFPXLrh0+wQL1b8p+k3Li9xpjUkKBAWlJiUFtaUVlllIhvQ09CIQcufCFKuFgBB4lIDyazr1+g2SDx4m7XYgKlcX7OrVxbbyK6jycCG65GPHiRo9Dn1cfIZLQuXqSr4Fc7Eq6itLJocJmKxAyCk/RSDkFEnpRwgIAWMRUMRB4s7dxPkvQxseoZzNGkyxcHbE4Z2WOLVvi6WnJzw9ZttY5j/XuNr4BOJWrCJx81b0SckPfFcyKVo4O+P82Sc4tXpfdg+ei3LGL4tAeAFQpUshIASEQI4RUDLFHj1O9IQp6O7de6xbC0cHnD7+COd2rbHIozsJ6ZF3Sdy+k5QjR9FF3QO1GnV+b+waN8ShcSNUDvY5hls6+peACARZDUJACAgBEyagS0gg8uvhpP59+olWWpYsgef4MVj5FjFhT57PNJ1GY0izrI2IwMLS0iAQLL28JDDx+bA+9W0RCC8QrnQtBISAEHheAporV4nsPQB9UtKTu7KxxuPbUdi/Ue95h5P3hcADAiIQZDEIASEgBEyYQPLR49wdPBSUmwtPeiwscPlyAM6tPzBhT8S03EZABEJumzGxVwgIAbMikHL6DJH9v4QnpBo2wLC0xG3EUBzfevMRNrq0NENQY3poKLr4eJSIf6uCBVF7ehi26eURAk8jIAJB1ocQEAJCwIQJpN+NIqLvILS3bz/RSlU+Lzwnj8emXNkHbbSJSSTt+43ELVtJu3b9vsCwtcGmfDkc2rTCrnbNPH090oSnNNeYJgIh10yVGCoEhIA5ElCuOMat20Cc3xLQaB5HYGmJ/dvNcO39OWpnZ8N/V95J+GUHcX7+6O5FP/aOZVFfXHr3wK5ObalfYI6LKos+i0DIIihpJgSEgBAwFgFtfDwx8/1I2rHrUZGgVmPzalVcenbHpkxpQ3ZF5UkLCuLehCmknj3/b96Ah41Xq7FrUA/XAf2w9PLMGbf0enQpKWijogyiQ+Xmdr8EcyYF9XJmcOnlRRAQgfAiqEqfQkAICIEcJqBLSCRx7z4Sf91BemgYKicH7Oq9juMH72Hlk/+RL+LEvfuJmfVdhnkT/jHL0rcIbkO+xLZq5ef+EtenppJ05CgJP/1MWsANsFRjXa6sIYGTbbUqEu+Qw2vhZXUnAuFlkZZxhIAQEALPSUCpwaBLSkafkmy4/69ycMjwyzd+w0Zi5/uhT05+4ogqdzfcBg/CvsEbzyUQlF2DhC2/EL9q9f0kRg89SmyES68eODRtIpkOn3PujfG6CARjUJcxhYAQEAIvkED8pi3EzluIPvHJuRNUnp64fTUI+3p1n0sgpJw+y70Jk9EGh2TokbpIYUMApXWxoi/QY+n6RRAQgfAiqEqfQkAICAEjElC2+2OmzUIbFv5EK6xKl8Tt68GGWw3P/Oj1RH+/gIS165+cp0GlwrFLJ9y6d30uIfLMNsqLz0xABMIzo5MXhYAQEAKmSUB7L5qocRPRHP8r4yDFf24+9OmJ2snpmZ1Q8ixEDhhM6qknp4FWOlcCKb1mTZO0yM9M2jgvikAwDncZVQgIASHwQgmknDpjKJOsu3v3UZFgYYFh9+Cbr7EpXeq5bNClaIjoM4C0i5ee2o9V+bLk+342Kju75xpPXn65BEQgvFzeMpoQEAJC4KUQUAIaFZEQv2492tuB6DWpWNjZYlmqJM4d22FTpsxzb/kr+RbufjOKlEO/P9Un2wZv4DlhrAQqvpSZz7lBRCDkHEvpSQgIASFgcgS0MbGkBQaiT0hE5eKMla8vKkeHHLMzbtNm4uYuQJ+SknGfNja4DR2MY7OmOTamdPRyCIhAeDmcZRQhIASEQJ4kkBYaSvSMOffjHbTaR31Uq7GtXw/3r798kOUxT0LIo06JQMijEytuCQEhIAReBgHlKCP14iVilyxHc/LUg6JSFjY22NSphUuPrlgXlSuOL2MucnqMXCEQ9Ho9Wq0WCwsL1Gp1thiMHjmSmzdv4ufvj62tbbbelcZCQAgIASGQBQJ6PenR0aT8+ReaM+exsLLEpmoVbF+tKjsHWcBnqk1MXiCkp6Zw7fJFzl24gq2TG1WqVaOQjxeqLOb3FoFgqktP7BICQiDPEdDr0f/fKeUHnTy5m4CJCwQ9V8+eYNXaTXh4FyA59i7WLgX5+OMO5HPP2t1dEQi5e4GK9UJACAgBIWAcAiYtELSpyfz0wzKCEu34rHMb4sJvs3Tpapq0+oh6NSqSFX0qAsE4C0tGFQJCQAgIgdxNwKQFQlxUGAu/n0/pOm/xTuM6aJJiWT5/Hk4lXqX9e02xtrxf2vRpjwiEzAjJfxcCQkAICAEh8DgBkxYIEcE3+G6uH41bf0j9mpVJS0lk7TI/4ix9+PTj1jjYWmU6pyIQMkUkDYSAEBACQkAIPEbApAXCnVvXmPvdYt7u2Jm6r1YkXZPE+lVLiEhzoVuXDjjZWxsc0ul0xMTEkJJBoo6Z06cTFBTE5KlTsbGxkSUgBISAEBACQsCsCHh6emJtff/7MjuPSQuEsNsBBoHQvH0nXq9eySAQ1q1YzD29B107t8PR7r7D96KiWLlyJefPnXvM96tXrpCUlESlypVRqzI/ksgOPGkrBISAEBACQsDUCfTu25eqVasaUgVk5zFpgRAVFsi8uQup1aI1Teq+SlpyPD/4L0DrVpKP27+HnfX9nAiJCQkcOHCAW7duZSgQdu/axafduuHgkHPpRbMD2ZhtQ0NCOHzoEA0bNSKft7cxTTHK2Ldv3WLvnj180KoV7h4eRrHBmIPGREezc+dOatSsSfHixY1pilHGTklO5pdffjGsfw8znH/0erb/+qshB0zDxo2z/QVhlEnLwUE1Gg2HDh7E3s6OOnXrmmUtiN07d1KhYkXGTZiQ7TxCJi0QNPH38F+4AMfi1en4fhNS4qJYMHcupWu+yTtN66FW/auGlGRKyj//fXZu386woUPZtXcv+fLly8Gllzu6OnnyJNOmTGHkqFGGRWJuz++HDzNyxAgWL1lCyZIlzc19g2j+esgQevbqRcOGDc3O/+joaAb178/IMWMoUaKE2fmvHL9+OWgQrq6ujBg1KttfELkdWFxcHFMnT8bd3Z0BgwaZnf/K/H0zdCiRd++yyM8PS0vLbE2pSQsEvT6dfds2su+va3T6qB1RQVfYvvcYnbp/TsWShbPk6I7t2xk6ZAh79u83T4Fw4gRTFYEwejQVzVAgKLsnikDwX7rUbAXCkMGD6dW7t+FXtLk90ffuMaB/f0aPHWu2AuGLgQMNAkH5DMhuJtrcvl4UgTBl0iSDQBj4xRdm578yf8O+/pqIyMi8JxAU5+6FB7Nxw8/cDI4AlYrqdRvxVpN62FlnTQmJQBCBIAJBBIIIBBEIIhDy2A6CIhD0eh3xsTGEhNzB2s6RAgV9sLPJejSmCAQRCCIQRCCIQBCBIAIhDwqE593iEoEgAkEEgggEEQgiEEQgiEB4PEhxx477QYp79phnDIIEKTJy5EgW+/ubbQyCEoPzuRkHKQ7s359REqRo1kGKHu7u9DfnIMXISBYsWpS3ghSfd/dAeT8iIoLjx4/z1ltvPVOiiJywwZh9KDkiLl++TMVKlXB2djamKUYZW7nmd/jwYZq+9ZZZJspScoAcPXqU0qVLU7hw1gJ7jTJRL2hQJXnagd9+o1bt2oZAPXN7lJtdSqCu4nulV14xu2uOWq2Ws2fP4mBvT6nSpc3Of2W9nzt3zpAKoGatWtn236RvMZjbH7P4KwSEgBAQAkLAVAiIQDCVmRA7hIAQEAJCQAiYEIE8KxD0Oh13w0M5d+EyTu75qVihDHY2mRd3MqG5eWZTlG1FTVIit25eJyg0ggK+xSlZ3Bcbq6xdDX3mgU3wReUWzI1L57h8M4zqteuQz93JBK18MSbd/xu4w6Url0nTWVKuYkXye3nwUH6xFzOwifSanBDHlSuXibyXQMky5ShaOH+2t1hNxJUsm5GelsqFM6dR2blRvlzJB8nktOlphAbd5ur12/gUKU6p4r5YZaEabpYHNpGGep2WG1cvcjMkngaN6mBp8e9NuOsBAURGxVKibHl8C+XHUn0/E29eepTP/rCgmwTcDqdSlcq4Otk/4p4mMZajR//Eyik/tWtUyvSzIE8KBAVS0PWL+C30J+RuLJqkJOq1aMsnH75rFiJBl65h5YLZbD98GltrNSlp0LlHH5o1qIml2pzqUehJjIlk3PBh/B0QzfiZs6hRwTcvfR480Rflg/LCicPMmL2QNJUN1moVTVp3ou3bDbEygzWgSY5n9eL57D1yGmtrK2LiUhg4/FvqVy9L9rLR557lotWmcXz/dqbN8ueNlu3p1eNDbC3VKELx0uljLPZfQUyShvi4JD7u/QVvN6qBZR6qT6PTabl+4RSzZs0mNN6NH3/6DnsLSIgOZ/7cuZy5EoSKdLBxpmffftSuVh5VNmsTmPJqUOY5POg6UyeMJ1rnxrARwyhd9N/0+sqPpT9/+5UpsxZSsMJbzJzUH6tM/hjypEBI0ySxbcNaLocl8+nHHYgNvsSCpRvo0mcgVcsVzbMfEP8sXr0undOn/sbZqxBu9ip+WrWMgHtqRn3dF2fHRxWlKS/457VNp03njz3b+OXQKW5fvsQX46abjUCIDg9k/JhxeJarw6cd38fRWoUWNc5ODnn+V7SybkKunGLc9IW0+rg7tSqXYPWC6fwdqmb2jDE4WOVBkazXc+vSSabOXkxampYKNRrQs/t9gZCcGMeaZf4kWuejQ5uWnD2wlZ8PXOSbkcMo5OXyvH9mJvN+dEQoq1eu5NLlK4QlOLNqzRyDQFDE4vlL1yhYyBdS41m6YD42BSvy+acdHhT8MxknnsOQ5LgovpsxnZCYFNLSVAwcMuQRgRB3L5wfVq7m4sUzWLi/ar4CIS4qgmX+iylQvhbvt2iILjWRmRPGUbJWC1q1qP9IDYfnmA+TflXZRblfuUvPnm3r2XroHGNHfo27s6NJ252Txt0LD2T5inVUqFaFHxYupt/YaWYiEPScOLCd73/YxejxYymW3y0nseaKvm6c+p0Z/uvpOWgIlUoU4NfV81iz/xrfz5+Jq23e21pWJiU88Bp/Xwnl9tmjaOwL8fn/BUJUeDDfz/meui3a0bhuNRKjAhk6dBzteg3mjVfL5Ir5zIqRCTFRXLp6nZsX/mTj3hss/WGmQSAoBauUKj3K56E2NZlNa5ZzPlzPgF6f4uZkl5Wuc0UbTVIcBw4dxcEGft60l15fDH4gEJQdxZNHDnLs3A3So29yPc7bfAVCROgtFs1fTK2mH9C43qvo0jT4z52GhWd5Pu30AdZ58OztSStYr01l048rOB2UzFcDeuDkYJsrFvvzGmnYPdi3gzM3Y2jRqBqjh401G4Gg16ax8YfF/HlbS5/ObxMUcof8hXwpUqiAWRwvKGsnJjKYmdNnUrTyG9SrWpzvpk3Dt+Y7DOjeFss8GoShbDFrUlJYs3gecdY+DwRC6K3LzJrjR/uufXitUgnSUxMYNXgw1Zp9TKvmdTM9h37ev8WX9b7yo0g5Zji4dTV+P59h6ar/C4SHDEhJjOOHxQtIdvKlW6c22NvkpbgsPenpWgLOHmXR8q2PCITEuHv89OOPeJeoTOSVw5wIdjRfgXDn9jXmf7+Exm06Ur/GK2jTU1m5aDYJlgXo3vXDB2WiX9bCNeY40REhzJszlxI13qRNy0bm8wVxN4zVP6yhbPU3eKWoK18MGGY2AkH5lbRiwRxOBcdDXCRJaelg5UiP3r2p8UoZszhiUL4oTh89wOKlqwi/G03hCnUZM6wvbv8J2jLm3+aLGDstNYUfFnz3iEC4feU0s+eu4JP+g6hcpgi69BTGDvuKkrXeoWOrpqjzUlCGXs9vW1axaMPpDAVCePB1pk2by5utPuLNN6rnqRiEf9bTlb8Ps/A/AuHqmWOs23qQT7p/xsGNfhwPdDBzgTBvCU1ad+SN/wuEVYtmE29VgO6fmo9AULaVjuz7hXW/HqV3/76ULV7oRXwmmVyfyi+JM8cOsvPgKT7u1hXbtLsM7G8+AiFdk8jSOTPYfOgMg0d9S5Wibvy4zJ976vwM7vsJ9rZZr2VicpObRYOSEmJY5beAoDg9xfI7s++3o7Tr3o93GtdEnYcC0/6LI0OBcPW+QOjSbxBVyhRBn65hzLDBlKr1Dh+akUBQPg83rlzAsavRDBjUP0/FXzy8Dv4rEJQdRb9ZU7AvVoMP32vAWr8Z5i0QIkJv4zffj5oPHTEsnjsNldf/jxjMIIpbiT2ICLrOzBlzKFf7LTq0ao6NVd48e/3vh6SyY7T8+2kEJdrRuH4tkmPDWLhgGW279adpw1q4uzrl6UBVZQdh5cI5/H4tnjnTxxoCFA/u3MTPe88wZtQQ3F3yfhzKuSO78Vuzm16DvqCMbz6O7VjHnDUHmT57BkW88u5V14wEgnLEMHuOH2279qZ6pZKkaxIYOXgwr7XozAfN6uSZIwbD58ATdhD0ei3Xzhxj+nfLePej7jRvUB11HrrB8TSBEBV0gUFfT6JF248oks+JA9s3cDnCliFfdqdMqWJP3VXOk7cY4qIjWL7Yn/xla/BBi0aGIMUZE76ldN2WtGr+Rp7cVvrvl2RSXBRL5s3hjsaJ3r0/o1A+8wlUUwTChlWLOXvtDlaWloYo5pMnTlO9fjM6dfqQsiUL5WmBoNxi2bZmGb+eCGbG5JEGgXBo12aDQBg96iuzCFT9bfMKtvx+g2EjhuDt6kDMrVN0HjCJcdPnULmUTxb3IXJfs4wEwr2IEEOQYq1mbWjy+qskRt5i6DcT6NDnK+pVLZ37nHyaxRkJBL2e8KAAZkydRr7yr9Pjk/Y429vkLb8f8ua/OwiRt84ze9Fq1JbWWKDnVsBF7iZa0a5DB9q2eRt76yfHYeRJgZCmSWb7xnWcC4qjS6f2xAZfZPHKrXza7/4ZXF46cstolWvTUti2dgUb9v5N7wEDqFCyECqVGnt7uzyrmh/moBwxxMdGk6xJM/zrmPDbjBk9hW5fjaLeq+WxyfMJs/RcPnmYCTOX8km/L6jk68b61SuJVXszsFdnszhiuPTnfmYsWkeHT7vzWsUS7N+4gg0HrzJt1jQKujvk2S+HjASCJimetSuWEG3hSvsP3ubMga1sO3qD4SOHUsAjj+2mZCAQEmMjWbF4IRfC0unf5zN8PFxRW1piZ2uLKg8GrP5XIKSnabh3L8Zwk0OvTWfz6kWcCrVn/KjeeLg6PfUHc54UCMo2U8itK/gv8icgOJK0VA1N3u9IpzYtsH2KWsornxpx4bf4esgwroclkM/LDeXWt7N7YYaP/hofD/Mr2BQVeoOB/YeaTZCiso5TUxJY67+ALfuPY2dni4NLPrr36smrFUuZRZCiEq2+0m8e+4+eMSRKSkpK45P+X9Gi/qt5a0v9Px9aGQkEJUHO1bMnWbx4KeHR8aRodHTtP5imr1fNe1e+MxAIAWeOMnbidOJSLHD5f5BqyYq16P35x3i65TGBBGQUpPjPMtHr0li9cLp5xyDcP4rSER0ZzuWrAdi7eFGubEmzSTWcmhzPqVNniE1IevDxYW3jRPWa1XCwzbtba08SeMovqJN/n6FMxap4uObdX4+P+q8nTZPC1cuXiI5PoWjxkvjk98p7XwhPUfUpSQlcv3aNu7EJFC5akmJmkGpZub1x89oV0lV2lCxZ9EFApk6rJSw0mJu3g/As4EvJooXy6FrQExZ8k+uBMdSsXc2QajnuXgTnL1wmITnlwWpxcc/PKxXLYpcHA3YVf6/dCKZU2fI4O/7nWrtex81rl4hKtKRalTKZiuW8uYOQV7YCxA8hIASEgBAQAkYiIALBSOBlWCEgBISAEBACpkxABIIpz47YJgSEgBAQAkLASAREIBgJvAwrBISAEBACQsCUCYhAMOXZEduEgBAQAkJACBiJgAgEI4GXYYWAEBACQkAImDIBEQimPDtimxAQAkJACAgBIxEQgWAk8DKsEBACQkAICAFTJiACwZRnR2wTAkJACAgBIWAkAiIQjARehhUCQkAICAEhYMoERCCY8uyIbULgIQKalCSiY+JxdXPHNosFp5SU41qtDpVanaUqptq0VMLCwnH18sHB9slV3vLcxOj1BAfexNLBg/yeLhm6l56WSmpaOrZ2dgaW2jQNQcGhuHrkw9XZXFJ457mZF4eeQkAEgiwPIWBkArr0NC6dO01A8D0aN2mAo11G9TL0BF27xLZdh2j+/gcUK+SdJatjIkPZd+go1Wq/QbECXpm+ExcRzPfz/GjZdQCv+Hpk2j6vNEiJj2Le3PnUfb8Lr5XOz82Aq9wKCqNkuYoULZQfCws9186fJjAqhbq1X8PW2oq0lES2bdqEY4FSNKlXI09WBswr8yt+PBsBEQjPxk3eEgI5RiAx5i7L/eaz/69rjJ40mVdKFsygbz3Xzp5g+ZptfPRZd8qXKJyl8cNuX2Xh8jW81+ETqpQuQlR4MBq9HQV9PDN8PzrkOsOGjaHziOnUKZ01EZIlQ15So1RNEsHBYfgULoJdliu36jl//ACL1x9g9JhvSIq4xdo167G2tyciTsfgr/rhaKnj1y1bsPEoQuP6tbBSq9DrtPx1aDd7/77NwN7dsLe1ekleyjBC4OUQEIHwcjjLKELgiQSCb1xm5crVXL8VQuPWXej4Tn1DW71er1QuN/wy1et0BJw7yfK19wVCueKKiLB4rHTzw+8ofWi16SQnpWBjZ4eFTsO4If0oVKsT3drVR6VSCoGDTqcz9KWMk5FAuN+nHgsLFRYW/7rx779/1A7l3yuPxf8bP9zufj+Pt/+nfwxV6++/q9j1oK1ej06vf2DzAz7w4OhE6ePK3weZvmgbYyaOpaCHwwMbDD5aWGR4zKJNS+HHJYtIcChKz07vcOLgTg6dvUOXD1sya9JkWnYdRGlPC7b+uoca9RpTvrQv/2CIDrvN9JkLaf95f14p4SOrXAjkKQIiEPLUdIozuY2AEiNw8vd9/Hb8Ap72cCnSgrHf9MXOSkXknWBuhUWT39WOsMgYLEln/cZfafZOS1TaFFRWDpQqUxpPNxfDF3dMVDiXr1wjNR18i5ekUAFvUhPjOH/xCgULFybk5lW+nz0dnwqN+KBlA8qXL0t0eAg3bwWhsrSheOky2KXH8M2DHYR8JMTGcP36daJi4gxn7aVKlcTJ3ob4mGiuXrtGTGwiXj4FKVOmJNZqFVHhIVy9dgOthRXFSpTAx9uL6Du3uBQYgberI8EhYYb4hooVymBtqSY1JYkb1wO4Ex6Fp3cB1HoNVg6uFC2Yj+NH/sC3TFUK+7gTey+cC1cCqVy1CnbWKiLDQrlx4xapWijkWwzfwj7cCwtl7/aN/LT9OB9+/BFVq1WmROH8hAcHEnDjNljZUqp0GfJ7uT8idGIigpi3YCn1WrSh3mvlOPTLOs7egW6dWjJj/BhefbsLhW0SOHnxNu++/x7uzvYPllm6Jgm/OdOxLfE6n7Zu9EA45LZ1KPYKgYwIiECQdSEEjEggPU3Dph+XE2OzXEmWAAANzklEQVThQa1y+Zg270dGTZxIyQJunDi0k2U/78bbxRnPgkWoXL4M69f8iGchX7zcXQkJvEXBUpVp1+Y97C1S8Pv+O+JxxE6dToqFPZ27dEKdGMbsuf60bN+RmJBrrFy2DPei1WjerD7FC3mxeeMW7Fw9cHZwoHKNupT0tGL4N/ePGKoVtGPH1k2cvnwbL0837gQHU7FWI1o0qsHurT9z6moohXy88PIpxJtN30KfEM6iBX6onbxQaZNRO3jQvn0bws7/xiT/rdR59RUS4mK4cTucT/t/SZ1KRTl19BCbt+/H09sHS72OG7duUPX1JrRqWov+PbrzQc9vadmgElfPHGGW32ZGjB2JtSaKH1evIUlriZ013A65S6fPPsfdMoUtG9ay+/fzvNmsKXXq18fbXseGDVuxdXYjNSkWtb0nH3ZsRz43pwezfuPiKZav/YWPPu1KmaI+HP/tVw6fC+Ojds2ZO3UazTv1IvbGSVTuxWhavyaWamUn5f4egnLM8OuaJfwWoGHSiL5Yqx/aYjHiupKhhUBOEBCBkBMUpQ8h8IwEkuKimDt9BtXebEPt8j6M+HoY9dr3ofWbr/H34V1M/34F7br1pX71CkTcusp33y+m3rvteadJHQIunGDdxt206dwVVdQlJizYyvQZE7HVxrFwwWKqv9WGaoXtmTF7kWELvGJRD4b3707J+t3o2vYNDu3YxI4/Axj6VT8cbCxRqa1IiQr+fwzCNAqpo1m4aBmN3mlLrarluPDnAdZuO0ybtu+z5ad1vPFeRxrWqGA4frC1s+XgljWsOXCViWMGk3IvhOUrf6LBO21wTbnOhHkb6Dt4KGULuTJv6nisitVnQOemrF62FFwL0/b95sSG32LqtNnUfqs1bd6qSe9un9K6zwTeafAKV07/wcxFGxn17RiuHd/B7mNX+bR7V/I527Dy+ynE2JdmUJ/OXD+5j6mLfmH8lPEUcLXm15/Xcv0edOvcjsR7oSxbuooG73agXvWK/99F0HPm+CE2bP+D7j17UMTHg9vXLrJs+Sp0FpYk6ezo9dmH7NiyldffbEZUUAAhd+Op36Qpvj5KEKeeY7s28N3Gv5g/ewIudhKH8Ix/CvKaCRIQgWCCkyImmQsBPcEBZ5g+dxW9B39NyQIuLJk5gYA0b8YM+ZyLx/ay6Mc9TJzyLZ7O9oYgxUUrNtCpe0+qlC1m2M5ftGAR1Ru+TeT5/ey5ksb4YT3QpyaxdslibEvXpnXd0sycvYgOPQdQtZQ3X/fuSqlGPejevj5/7t/BvOUbeO/DT2hS7zWcHe2JCb3xQCA43LvIDz/vp9eAgRQv5ElsRCDjJ87g9SYtOHVwJwm23vTu0YXC+fOhIo2F0ycQYlGY/p+8S0p8ND+u/IESNZtQziWOOcsPMGnWRLwcrVg0fSy3UovwRdemLPVfTtUGb/Pm66+iSY5n7vQp+JSv8xSBMIrdq78n2qowvbp3xM5azd/7N7Bw4wm+HTeKe9eOMnHeFqbMmoKbOpnFCxdg51OWt5vUITUxnp9+WEXxGo34oHlDLFXKr309fx3ezea9J+nduycFvd3RpqcRePM6t4LDKVm2PFHXT3LwzB2Kedtx7mow+Rz1XAhNZ+K3Q7C3VnHywBYm+e1lwaIZeDlldAPFXNaz+JnXCIhAyGszKv7kGgJK/MGuHxeweNMRatWujp2VJYHXL3AtPJ05c6cReeUYyzb8wYRJw3GxtzEIhGVrttKpW3fKlyxCdGQYfgsWULFOY0KO72LdgdP4Klfy/k+gTsv2tKhWJEOB0KNDQ1KTE9j9yxY2btmBvWdBOnX5xHDEMGL4WDoPn4b1nZOs2/4n/b4cRBFvVxKjw/h2/BTqt+xA2fy2rFy+kquBEdRv9i5t323M0mkT+O3sTfJ7ud23QGXJOx0/obh1BHNWHGbK7PF42FviN+NbbmoKM6BzQ5YsWUmd5q1pUPMVUpMT8Zs7C7cS1Wj9zw5C7wm80/DhHYRRbPGbjjZ/JT7v0gZrSxWXj+9i6pLtjBk/loRbJx4IBGd9PAtnz+TohRu4OjsZjgWs7Jx4v10HmrxR84FAOH38ED9vP0KPnt0p/J/bHVpNEgtnTaNYjaaEXjlFkfKv8kbVogzo/zVfTJxFGR9Xju/awFxlB2GO7CDkmj8+MTRLBEQgZAmTNBICOU8gXZPIqIG9SXEqgm+B+9cOdeka/jp2gs4Dh+Ohu8OKnx8VCAuXrqNDt8+pXqkUkaG3WbjQnzpN3yP60kG2noph9qQhWBt+GYOllTUxd24Yjhge2UFo2IMeHzY0HA0ov6CjwkJYu2oFsRZufPhOA6ZOnEznEdNwjrvKirU76d6vP6V98xMVEsDEqd/xXqce1HutPOmpyfz5+0F+2rSTtl26cfHAZgI0XowY8DH370eAlY0NV45vz1AgDP6sGUv9l1GhTlOaNaiJJjGGmVMmUaRyfcMOQp9uXXnn8zG0alyVc3/+xtwl2xgzYSz71y/iTroHvXt8jKONJX9s/4HVe64wduw3RF45cl8gzJyCu3UKSxctxMq7LG3faWK4mqioJ2trG6yt/z0KUGIQVqzbTqeun1LKt8AjEx189TTzV/5Cjx5d2LltM+Wq1uH1aqUY2K8/nwydTLViXmxfs4T9ASlMGtFPYhBy/s9EejQiAREIRoQvQ5s3gYibZ+k1cCzDp86hSqn7X0z69BRmfjsSdaFq1Cztypotxx7ZQZg9x4/KDZrTqkUDLp78gx2//cVH3bpjFXud4ZP8+WL4cMoX8yE+Ng5Xz3wkRtx6SCD4MKL/ZziVa07vLi1JTkggXafHwd6Wfb9s4Gp4Gh0MAmGKQSAUs0kwCJDK9ZoazuyV63/7/gzgs8+7YafS4+DszL2wQJYvX02L9p+girrC/DX7+WroF/jmdyM+PhF3T0+un9iVoUAYOaAtP61aQbTOkXatWxIVdJXZ3/nR8N0OtHu7HsP798SjUlM+fOcNjv22k22/nWParCkEnj3Ipj1/0f6jjyjgaoP/3Gk4lnyd3t3acfPMYUZPX8XQ0SMpUcCNw7u3cfRCKF26dMTbzdFgk4u7B472tg8Wn3KLYaHfShq0bE2tKmUf/HudNpUtPywl1qkU7Zq+yk8/rsWtSFnqVizINyOnMnTyDIq4WuI3dwa2xevKLQbz/nPOk96LQMiT0ypO5QYCe9b5sWJvAPO/m4jzQ2mN9/68gp1/3qJBnQrsOnCW8RO+MRwxXDnzF8tXbcIznwcxMfeIi0+iZoOmvNeiCdaqNDb9uII/Tl3DwcEBB2cPOnXpjI0mkllzF9P+835ULVOYLSvns37P39Rr1IgSBTw5euQICUnJaPVq3nq3NVWKuTF65Hg+Hj6V6r7O/L5vF7sPHEGrV3IqQNP32vBq6QJs/vlnAoJC0aRoKFyiAp0+/hAHVQprVy3n7LUQHB0ccPMuTIf2bbgX8AffrTzMpJnjDEcMi2eO42ZqYcZ9/SkB50+ydt0mEtJ0uLt5GuIqKr/+Jh0/aMofO39m6drtuHh4UdDbg8sBd/h28nicVMlsWv8TFwICsdDrsXbyomv3rpQolI+o0BtMnjwdjdqJlq3bUrmYFz+vW8f1oAjsHezxLliU9z/4gEL5/38MouSKSE1mzTJ/dJ5l+LjVmw9uKMRGBjP3+6V81LMfRfM58dfv+/ll9yHDzolrkUoM6PkxyVFBzJi9mLaf9aFyyUd3H3LDGhQbhcDTCIhAkPUhBIxCQM/dsFASdZYUKeD9yP355PhYIqPjcHSwJyEphQIFfAxX65KTErgXE4+zowMxMdGG3AWenh6G7XLlUEGblkZkZARJKak4ubjg7uqCksY5PCISN698ONjakKZJISwsDEtbB1ydHYmLjSE+IQlnVzfc3VyVTggJDcUjfyEcba1IT08l9l40cQlJOLm64ebqjAo98XFx3IuOxkJtjaeXJ/a2NoZbAWmpGiIjIklJTcfFzQ0XZydSk+KJjIqnQOGChnP/uxF3SNVZUSC/F3q91mBDdEwcdnZ2rF++GNcS1ejYuoVy3kJkeDgp6TpDP/FxCXgX8MHGUo0mJZmoqCjSdODp5YW9na2BgRLXERt9j+jYeNw9vXF2tDW0jYiIIF1rgZu7O85OjqiV44YHj57zx35j5a8nGDvqS+ys1Ib/Enz9In9dDufd5g1QqyxQajGEBgcRl5RK0WLFcLC15sSh3ew+eYuBfboa/r88QiAvERCBkJdmU3wRArmYQEpSIou/m4Vr8aoGgaB8Kb+sR5MYzZzpc2jQoTs1ytxPda1kX9SjZG9UZ5gAKS0lgU0/bcC5SHmavlFdajG8rMmScV4aAREILw21DCQEhMDTCBhTICjBmkE3A0i3dqVYwcyLWil+pGmSCQy+g4eXt1RzlKWdJwmIQMiT0ypOCYHcRyA9LY1TJ45j65qfCmVLZKk8de7zUiwWArmHgAiE3DNXYqkQyPMEtFqtIUjwn0JSed5hcVAImDABEQgmPDlimhAQAkJACAgBYxEQgWAs8jKuEBACQkAICAETJiACwYQnR0wTAkJACAgBIWAsAiIQjEVexhUCQkAICAEhYMIERCCY8OSIaUJACAgBISAEjEVABIKxyMu4QkAICAEhIARMmIAIBBOeHDFNCAgBISAEhICxCIhAMBZ5GVcICAEhIASEgAkTEIFgwpMjpgkBISAEhIAQMBYBEQjGIi/jCgEhIASEgBAwYQL/A+9VB31MvVN9AAAAAElFTkSuQmCC;" parent="1" vertex="1">
          <mxGeometry x="-220" y="305.5" width="192.21" height="129" as="geometry" />
        </mxCell>
        <mxCell id="wRvOzXy0PFgcFrpnkYZn-1" value="" style="rounded=1;whiteSpace=wrap;html=1;" vertex="1" parent="1">
          <mxGeometry x="1835" y="1880" width="120" height="60" as="geometry" />
        </mxCell>
      </root>
    </mxGraphModel>
  </diagram>
</mxfile>
